{"accessors":[{"bufferView":0,"componentType":5126,"count":41370,"max":[95.24797058105469,109.99781799316406,1693.0],"min":[-124.7476577758789,-109.99781799316406,1599.0],"type":"VEC3"},{"bufferView":1,"componentType":5126,"count":41370,"type":"VEC3"},{"bufferView":2,"componentType":5125,"count":41370,"type":"SCALAR"},{"bufferView":3,"componentType":5126,"count":116808,"max":[148.82115173339844,163.57345581054688,1757.0],"min":[-178.32083129882813,-163.57345581054688,1693.0],"type":"VEC3"},{"bufferView":4,"componentType":5126,"count":116808,"type":"VEC3"},{"bufferView":5,"componentType":5126,"count":116808,"type":"VEC2"},{"bufferView":6,"componentType":5125,"count":116808,"type":"SCALAR"},{"bufferView":7,"componentType":5126,"count":26130,"max":[200.0,200.0,400.0],"min":[-200.0,-200.0,0.0],"type":"VEC3"},{"bufferView":8,"componentType":5126,"count":26130,"type":"VEC3"},{"bufferView":9,"componentType":5126,"count":26130,"type":"VEC2"},{"bufferView":10,"componentType":5125,"count":26130,"type":"SCALAR"},{"bufferView":11,"componentType":5126,"count":38376,"max":[-199.74984741210938,10.0,80.0],"min":[-239.74984741210938,-10.0,60.0],"type":"VEC3"},{"bufferView":12,"componentType":5126,"count":38376,"type":"VEC3"},{"bufferView":13,"componentType":5126,"count":38376,"type":"VEC2"},{"bufferView":14,"componentType":5125,"count":38376,"type":"SCALAR"},{"bufferView":15,"componentType":5126,"count":38376,"max":[-199.74984741210938,10.0,340.0],"min":[-239.74984741210938,-10.0,320.0],"type":"VEC3"},{"bufferView":16,"componentType":5126,"count":38376,"type":"VEC3"},{"bufferView":17,"componentType":5126,"count":38376,"type":"VEC2"},{"bufferView":18,"componentType":5125,"count":38376,"type":"SCALAR"},{"bufferView":19,"componentType":5126,"count":13398,"max":[-135.70542907714844,90.17914581298828,1.7763568394002505e-14],"min":[-150.70474243164063,75.1798324584961,-20.0],"type":"VEC3"},{"bufferView":20,"componentType":5126,"count":13398,"type":"VEC3"},{"bufferView":21,"componentType":5126,"count":13398,"type":"VEC2"},{"bufferView":22,"componentType":5125,"count":13398,"type":"SCALAR"},{"bufferView":23,"componentType":5126,"count":13578,"max":[150.70498657226563,90.17939758300781,1.7763568394002505e-14],"min":[135.70518493652344,75.1795883178711,-20.0],"type":"VEC3"},{"bufferView":24,"componentType":5126,"count":13578,"type":"VEC3"},{"bufferView":25,"componentType":5126,"count":13578,"type":"VEC2"},{"bufferView":26,"componentType":5125,"count":13578,"type":"SCALAR"},{"bufferView":27,"componentType":5126,"count":13530,"max":[7.5,-157.85897827148438,1.7763568394002505e-14],"min":[-7.5,-172.85897827148438,-20.0],"type":"VEC3"},{"bufferView":28,"componentType":5126,"count":13530,"type":"VEC3"},{"bufferView":29,"componentType":5126,"count":13530,"type":"VEC2"},{"bufferView":30,"componentType":5125,"count":13530,"type":"SCALAR"},{"bufferView":31,"componentType":5126,"count":77658,"max":[-2.2498435974121094,12.5,1879.5],"min":[-409.7498474121094,-12.5,0.0],"type":"VEC3"},{"bufferView":32,"componentType":5126,"count":77658,"type":"VEC3"},{"bufferView":33,"componentType":5126,"count":77658,"type":"VEC2"},{"bufferView":34,"componentType":5125,"count":77658,"type":"SCALAR"},{"bufferView":35,"componentType":5126,"count":32952,"max":[-193.31448364257813,7.899746417999268,77.89905548095703],"min":[-223.31448364257813,-7.899746417999268,62.1009407043457],"type":"VEC3"},{"bufferView":36,"componentType":5126,"count":32952,"type":"VEC3"},{"bufferView":37,"componentType":5125,"count":32952,"type":"SCALAR"},{"bufferView":38,"componentType":5126,"count":31632,"max":[-193.31448364257813,7.89985466003418,337.8988037109375],"min":[-223.31448364257813,-7.89985466003418,322.1011962890625],"type":"VEC3"},{"bufferView":39,"componentType":5126,"count":31632,"type":"VEC3"},{"bufferView":40,"componentType":5125,"count":31632,"type":"SCALAR"},{"bufferView":41,"componentType":5126,"count":183072,"max":[12.308666229248047,9.982078552246094,60.537132263183594],"min":[-10.725449562072754,-9.322700500488281,14.843616485595703],"type":"VEC3"},{"bufferView":42,"componentType":5126,"count":183072,"type":"VEC3"},{"bufferView":43,"componentType":5126,"count":183072,"type":"VEC2"},{"bufferView":44,"componentType":5125,"count":183072,"type":"SCALAR"},{"bufferView":45,"componentType":5126,"count":4500,"max":[0.5,0.5,0.5],"min":[-0.5,-0.5,-0.5],"type":"VEC3"},{"bufferView":46,"componentType":5126,"count":4500,"type":"VEC3"},{"bufferView":47,"componentType":5125,"count":4500,"type":"SCALAR"}],"asset":{"generator":"Luxion KeyShot","version":"2.0"},"bufferViews":[{"buffer":0,"byteLength":496440,"byteOffset":0,"byteStride":12},{"buffer":0,"byteLength":496440,"byteOffset":496440,"byteStride":12},{"buffer":0,"byteLength":165480,"byteOffset":992880},{"buffer":0,"byteLength":1401696,"byteOffset":1158360,"byteStride":12},{"buffer":0,"byteLength":1401696,"byteOffset":2560056,"byteStride":12},{"buffer":0,"byteLength":934464,"byteOffset":3961752,"byteStride":8},{"buffer":0,"byteLength":467232,"byteOffset":4896216},{"buffer":0,"byteLength":313560,"byteOffset":5363448,"byteStride":12},{"buffer":0,"byteLength":313560,"byteOffset":5677008,"byteStride":12},{"buffer":0,"byteLength":209040,"byteOffset":5990568,"byteStride":8},{"buffer":0,"byteLength":104520,"byteOffset":6199608},{"buffer":0,"byteLength":460512,"byteOffset":6304128,"byteStride":12},{"buffer":0,"byteLength":460512,"byteOffset":6764640,"byteStride":12},{"buffer":0,"byteLength":307008,"byteOffset":7225152,"byteStride":8},{"buffer":0,"byteLength":153504,"byteOffset":7532160},{"buffer":0,"byteLength":460512,"byteOffset":7685664,"byteStride":12},{"buffer":0,"byteLength":460512,"byteOffset":8146176,"byteStride":12},{"buffer":0,"byteLength":307008,"byteOffset":8606688,"byteStride":8},{"buffer":0,"byteLength":153504,"byteOffset":8913696},{"buffer":0,"byteLength":160776,"byteOffset":9067200,"byteStride":12},{"buffer":0,"byteLength":160776,"byteOffset":9227976,"byteStride":12},{"buffer":0,"byteLength":107184,"byteOffset":9388752,"byteStride":8},{"buffer":0,"byteLength":53592,"byteOffset":9495936},{"buffer":0,"byteLength":162936,"byteOffset":9549528,"byteStride":12},{"buffer":0,"byteLength":162936,"byteOffset":9712464,"byteStride":12},{"buffer":0,"byteLength":108624,"byteOffset":9875400,"byteStride":8},{"buffer":0,"byteLength":54312,"byteOffset":9984024},{"buffer":0,"byteLength":162360,"byteOffset":10038336,"byteStride":12},{"buffer":0,"byteLength":162360,"byteOffset":10200696,"byteStride":12},{"buffer":0,"byteLength":108240,"byteOffset":10363056,"byteStride":8},{"buffer":0,"byteLength":54120,"byteOffset":10471296},{"buffer":0,"byteLength":931896,"byteOffset":10525416,"byteStride":12},{"buffer":0,"byteLength":931896,"byteOffset":11457312,"byteStride":12},{"buffer":0,"byteLength":621264,"byteOffset":12389208,"byteStride":8},{"buffer":0,"byteLength":310632,"byteOffset":13010472},{"buffer":0,"byteLength":395424,"byteOffset":13321104,"byteStride":12},{"buffer":0,"byteLength":395424,"byteOffset":13716528,"byteStride":12},{"buffer":0,"byteLength":131808,"byteOffset":14111952},{"buffer":0,"byteLength":379584,"byteOffset":14243760,"byteStride":12},{"buffer":0,"byteLength":379584,"byteOffset":14623344,"byteStride":12},{"buffer":0,"byteLength":126528,"byteOffset":15002928},{"buffer":0,"byteLength":2196864,"byteOffset":15129456,"byteStride":12},{"buffer":0,"byteLength":2196864,"byteOffset":17326320,"byteStride":12},{"buffer":0,"byteLength":1464576,"byteOffset":19523184,"byteStride":8},{"buffer":0,"byteLength":732288,"byteOffset":20987760},{"buffer":0,"byteLength":54000,"byteOffset":21720048,"byteStride":12},{"buffer":0,"byteLength":54000,"byteOffset":21774048,"byteStride":12},{"buffer":0,"byteLength":18000,"byteOffset":21828048}],"buffers":[{"byteLength":21846048,"uri":"./JOAB_CHARLOTTE_FINAL02_resources/JOAB_CHARLOTTE_FINAL02.bin"}],"cameras":[{"name":"active","perspective":{"aspectRatio":1.0,"yfov":0.22801599094900377,"zfar":26349.599609375,"znear":20628.8125},"type":"perspective"},{"name":"Camera","perspective":{"aspectRatio":1.0,"yfov":0.4710899607545063,"zfar":19201.126953125,"znear":14367.5654296875},"type":"perspective"}],"extensionsUsed":["KHR_materials_transmission"],"images":[{"uri":"./JOAB_CHARLOTTE_FINAL02_resources/AGO_lampe_suspendue_3_42_normal.jpeg"},{"uri":"./JOAB_CHARLOTTE_FINAL02_resources/AGO_pot_2_46_normal.jpeg"},{"uri":"./JOAB_CHARLOTTE_FINAL02_resources/AGO_raccord_tube_pot_2_50_normal.jpeg"},{"uri":"./JOAB_CHARLOTTE_FINAL02_resources/AGO_raccord_tube_pot_3_53_normal.jpeg"},{"uri":"./JOAB_CHARLOTTE_FINAL02_resources/AGO_Feet_d08_2_57_normal.jpeg"},{"uri":"./JOAB_CHARLOTTE_FINAL02_resources/AGO_Feet_d08_3_60_normal.jpeg"},{"uri":"./JOAB_CHARLOTTE_FINAL02_resources/AGO_Feet_d08_4_63_normal.jpeg"},{"uri":"./JOAB_CHARLOTTE_FINAL02_resources/Tube_2_67_normal.jpeg"},{"uri":"./JOAB_CHARLOTTE_FINAL02_resources/Leaf_29_normal.jpeg"},{"uri":"./JOAB_CHARLOTTE_FINAL02_resources/Leaf_29_color.jpeg"},{"uri":"./JOAB_CHARLOTTE_FINAL02_resources/Leaf_29_roughness_metalness_transmission.jpeg"}],"materials":[{"alphaMode":"MASK","doubleSided":true,"extensions":{"KHR_materials_transmission":{"transmissionFactor":1.0}},"name":"Glass Heavy Frost Bright White #1","pbrMetallicRoughness":{"baseColorFactor":[1.0,1.0,1.0,1.0],"metallicFactor":0.0,"roughnessFactor":0.5}},{"doubleSided":true,"name":"Paint Textured Red #1","normalTexture":{"index":0,"scale":1},"pbrMetallicRoughness":{"baseColorFactor":[0.698744535446167,0.0766318291425705,0.08273867517709732,1.0],"metallicFactor":0.0,"roughnessFactor":0.3162277638912201}},{"doubleSided":true,"name":"Paint Textured Red #1","normalTexture":{"index":1,"scale":1},"pbrMetallicRoughness":{"baseColorFactor":[0.698744535446167,0.0766318291425705,0.08273867517709732,1.0],"metallicFactor":0.0,"roughnessFactor":0.3162277638912201}},{"doubleSided":true,"name":"Paint Textured Red #1","normalTexture":{"index":2,"scale":1},"pbrMetallicRoughness":{"baseColorFactor":[0.698744535446167,0.0766318291425705,0.08273867517709732,1.0],"metallicFactor":0.0,"roughnessFactor":0.3162277638912201}},{"doubleSided":true,"name":"Paint Textured Red #1","normalTexture":{"index":3,"scale":1},"pbrMetallicRoughness":{"baseColorFactor":[0.698744535446167,0.0766318291425705,0.08273867517709732,1.0],"metallicFactor":0.0,"roughnessFactor":0.3162277638912201}},{"doubleSided":true,"name":"Paint Textured Red #1","normalTexture":{"index":4,"scale":1},"pbrMetallicRoughness":{"baseColorFactor":[0.698744535446167,0.0766318291425705,0.08273867517709732,1.0],"metallicFactor":0.0,"roughnessFactor":0.3162277638912201}},{"doubleSided":true,"name":"Paint Textured Red #1","normalTexture":{"index":5,"scale":1},"pbrMetallicRoughness":{"baseColorFactor":[0.698744535446167,0.0766318291425705,0.08273867517709732,1.0],"metallicFactor":0.0,"roughnessFactor":0.3162277638912201}},{"doubleSided":true,"name":"Paint Textured Red #1","normalTexture":{"index":6,"scale":1},"pbrMetallicRoughness":{"baseColorFactor":[0.698744535446167,0.0766318291425705,0.08273867517709732,1.0],"metallicFactor":0.0,"roughnessFactor":0.3162277638912201}},{"doubleSided":true,"name":"Paint Textured Red #1","normalTexture":{"index":7,"scale":1},"pbrMetallicRoughness":{"baseColorFactor":[0.698744535446167,0.0766318291425705,0.08273867517709732,1.0],"metallicFactor":0.0,"roughnessFactor":0.3162277638912201}},{"doubleSided":true,"name":"Matériau_1","pbrMetallicRoughness":{"baseColorFactor":[0.9803919792175293,0.9803919792175293,0.9803919792175293,1.0],"metallicFactor":0.0,"roughnessFactor":1.0}},{"doubleSided":true,"name":"Burgundy Rubber Plant 2 Leaf","normalTexture":{"index":8,"scale":1},"pbrMetallicRoughness":{"baseColorTexture":{"index":9},"metallicRoughnessTexture":{"index":10}}},{"doubleSided":true,"name":"Soft Rough Black #3","pbrMetallicRoughness":{"baseColorFactor":[0.0,0.0,0.0,1.0],"metallicFactor":0.0,"roughnessFactor":0.3162277638912201}}],"meshes":[{"name":"AGO lampe suspendue_2","primitives":[{"attributes":{"NORMAL":1,"POSITION":0},"indices":2,"material":0,"mode":4}]},{"name":"AGO lampe suspendue_3","primitives":[{"attributes":{"NORMAL":4,"POSITION":3,"TEXCOORD_0":5},"indices":6,"material":1,"mode":4}]},{"name":"AGO pot_2","primitives":[{"attributes":{"NORMAL":8,"POSITION":7,"TEXCOORD_0":9},"indices":10,"material":2,"mode":4}]},{"name":"AGO raccord tube pot_2","primitives":[{"attributes":{"NORMAL":12,"POSITION":11,"TEXCOORD_0":13},"indices":14,"material":3,"mode":4}]},{"name":"AGO raccord tube pot_3","primitives":[{"attributes":{"NORMAL":16,"POSITION":15,"TEXCOORD_0":17},"indices":18,"material":4,"mode":4}]},{"name":"AGO_Feet_d08_2","primitives":[{"attributes":{"NORMAL":20,"POSITION":19,"TEXCOORD_0":21},"indices":22,"material":5,"mode":4}]},{"name":"AGO_Feet_d08_3","primitives":[{"attributes":{"NORMAL":24,"POSITION":23,"TEXCOORD_0":25},"indices":26,"material":6,"mode":4}]},{"name":"AGO_Feet_d08_4","primitives":[{"attributes":{"NORMAL":28,"POSITION":27,"TEXCOORD_0":29},"indices":30,"material":7,"mode":4}]},{"name":"Tube_2","primitives":[{"attributes":{"NORMAL":32,"POSITION":31,"TEXCOORD_0":33},"indices":34,"material":8,"mode":4}]},{"name":"Vis FH M8x30_2","primitives":[{"attributes":{"NORMAL":36,"POSITION":35},"indices":37,"material":9,"mode":4}]},{"name":"Vis FH M8x30_3","primitives":[{"attributes":{"NORMAL":39,"POSITION":38},"indices":40,"material":9,"mode":4}]},{"name":"Leaf","primitives":[{"attributes":{"NORMAL":42,"POSITION":41,"TEXCOORD_0":43},"indices":44,"material":10,"mode":4}]},{"name":"Cylinder","primitives":[{"attributes":{"NORMAL":46,"POSITION":45},"indices":47,"material":11,"mode":4}]}],"nodes":[{"camera":0,"matrix":[-0.008796711469295851,0.00028591087182263666,0.004747222391987052,0.0,0.0034273994938631793,0.007301322443510085,0.005911312901542155,0.0,-0.0032970893383026125,0.0068270742893219,-0.0065207558870315555,0.0,-88.794970703125,176.91572265625,-133.032265625,1.0],"name":"active"},{"camera":1,"matrix":[0.004547518480798671,0.00028591069962971896,-0.008901591342554393,0.0,-0.0027199297576364695,0.009561923892668852,-0.0010823991035519885,0.0,0.008480687141418457,0.0029133933782577513,0.004426068365573883,0.0,133.93562500000002,70.96603515625,98.287685546875,1.0],"name":"Camera"},{"mesh":0,"name":"AGO lampe suspendue_2"},{"children":[2],"name":"AGO lampe suspendue_2"},{"children":[3],"matrix":[1.0,-2.98022992950564e-08,3.970470095698154e-23,0.0,2.98022992950564e-08,1.0,2.646979853435861e-23,0.0,-1.3234899267179305e-23,-3.970470095698154e-23,1.0,0.0,4.5776399929309264e-05,-0.00012206999963382259,0.39263901114463806,1.0],"name":"AGO lampe suspendue_2"},{"mesh":1,"name":"AGO lampe suspendue_3"},{"children":[5],"name":"AGO lampe suspendue_3"},{"children":[6],"matrix":[1.0,-2.98022992950564e-08,3.970470095698154e-23,0.0,2.98022992950564e-08,1.0,2.646979853435861e-23,0.0,-1.3234899267179305e-23,-3.970470095698154e-23,1.0,0.0,4.5776399929309264e-05,-0.00012206999963382259,0.39263901114463806,1.0],"name":"AGO lampe suspendue_3"},{"children":[4,7],"matrix":[1.0,-2.98022992950564e-08,0.0,0.0,2.98022992950564e-08,1.0,-1.3234899267179305e-23,0.0,0.0,2.646979853435861e-23,1.0,0.0,4.5776399929309264e-05,-0.00012206999963382259,3.051759995287284e-05,1.0],"name":"AGO lampe suspendue"},{"mesh":2,"name":"AGO pot_2"},{"children":[9],"name":"AGO pot_2"},{"children":[10],"matrix":[1.0,-2.98022992950564e-08,3.970470095698154e-23,0.0,2.98022992950564e-08,1.0,2.646979853435861e-23,0.0,-1.3234899267179305e-23,-3.970470095698154e-23,1.0,0.0,4.5776399929309264e-05,-0.00012206999963382259,3.051759995287284e-05,1.0],"name":"AGO pot_2"},{"children":[11],"matrix":[1.0,-2.98022992950564e-08,0.0,0.0,2.98022992950564e-08,1.0,-1.3234899267179305e-23,0.0,0.0,2.646979853435861e-23,1.0,0.0,4.5776399929309264e-05,-0.00012206999963382259,3.051759995287284e-05,1.0],"name":"AGO pot"},{"mesh":3,"name":"AGO raccord tube pot_2"},{"children":[13],"name":"AGO raccord tube pot_2"},{"children":[14],"matrix":[1.0,-2.98022992950564e-08,3.970470095698154e-23,0.0,2.98022992950564e-08,1.0,2.646979853435861e-23,0.0,-1.3234899267179305e-23,-3.970470095698154e-23,1.0,0.0,4.5776399929309264e-05,-0.00012206999963382259,3.051759995287284e-05,1.0],"name":"AGO raccord tube pot_2"},{"mesh":4,"name":"AGO raccord tube pot_3"},{"children":[16],"name":"AGO raccord tube pot_3"},{"children":[17],"matrix":[1.0,-2.98022992950564e-08,3.970470095698154e-23,0.0,2.98022992950564e-08,1.0,2.646979853435861e-23,0.0,-1.3234899267179305e-23,-3.970470095698154e-23,1.0,0.0,4.5776399929309264e-05,-0.00012206999963382259,3.051759995287284e-05,1.0],"name":"AGO raccord tube pot_3"},{"children":[15,18],"matrix":[1.0,-2.98022992950564e-08,0.0,0.0,2.98022992950564e-08,1.0,-1.3234899267179305e-23,0.0,0.0,2.646979853435861e-23,1.0,0.0,4.5776399929309264e-05,-0.00012206999963382259,3.051759995287284e-05,1.0],"name":"AGO raccord tube pot"},{"mesh":5,"name":"AGO_Feet_d08_2"},{"children":[20],"name":"AGO_Feet_d08_2"},{"children":[21],"matrix":[1.0,-2.98022992950564e-08,3.970470095698154e-23,0.0,2.98022992950564e-08,1.0,2.646979853435861e-23,0.0,-1.3234899267179305e-23,-3.970470095698154e-23,1.0,0.0,4.5776399929309264e-05,-0.00012206999963382259,3.051759995287284e-05,1.0],"name":"AGO_Feet_d08_2"},{"mesh":6,"name":"AGO_Feet_d08_3"},{"children":[23],"name":"AGO_Feet_d08_3"},{"children":[24],"matrix":[1.0,-2.98022992950564e-08,3.970470095698154e-23,0.0,2.98022992950564e-08,1.0,2.646979853435861e-23,0.0,-1.3234899267179305e-23,-3.970470095698154e-23,1.0,0.0,4.5776399929309264e-05,-0.00012206999963382259,3.051759995287284e-05,1.0],"name":"AGO_Feet_d08_3"},{"mesh":7,"name":"AGO_Feet_d08_4"},{"children":[26],"name":"AGO_Feet_d08_4"},{"children":[27],"matrix":[1.0,-2.98022992950564e-08,3.970470095698154e-23,0.0,2.98022992950564e-08,1.0,2.646979853435861e-23,0.0,-1.3234899267179305e-23,-3.970470095698154e-23,1.0,0.0,4.5776399929309264e-05,-0.00012206999963382259,3.051759995287284e-05,1.0],"name":"AGO_Feet_d08_4"},{"children":[22,25,28],"matrix":[1.0,-2.98022992950564e-08,0.0,0.0,2.98022992950564e-08,1.0,-1.3234899267179305e-23,0.0,0.0,2.646979853435861e-23,1.0,0.0,4.5776399929309264e-05,-0.00012206999963382259,3.051759995287284e-05,1.0],"name":"AGO_Feet_d08"},{"mesh":8,"name":"Tube_2"},{"children":[30],"name":"Tube_2"},{"children":[31],"matrix":[1.0,-2.98022992950564e-08,3.970470095698154e-23,0.0,2.98022992950564e-08,1.0,2.646979853435861e-23,0.0,-1.3234899267179305e-23,-3.970470095698154e-23,1.0,0.0,4.5776399929309264e-05,-0.00012206999963382259,3.051759995287284e-05,1.0],"name":"Tube_2"},{"children":[32],"matrix":[1.0,-2.98022992950564e-08,0.0,0.0,2.98022992950564e-08,1.0,-1.3234899267179305e-23,0.0,0.0,2.646979853435861e-23,1.0,0.0,4.5776399929309264e-05,-0.00012206999963382259,3.051759995287284e-05,1.0],"name":"Tube"},{"mesh":9,"name":"Vis FH M8x30_2"},{"children":[34],"name":"Vis FH M8x30_2"},{"children":[35],"matrix":[1.0,-2.98022992950564e-08,3.970470095698154e-23,0.0,2.98022992950564e-08,1.0,2.646979853435861e-23,0.0,-1.3234899267179305e-23,-3.970470095698154e-23,1.0,0.0,4.5776399929309264e-05,-0.00012206999963382259,3.051759995287284e-05,1.0],"name":"Vis FH M8x30_2"},{"mesh":10,"name":"Vis FH M8x30_3"},{"children":[37],"name":"Vis FH M8x30_3"},{"children":[38],"matrix":[1.0,-2.98022992950564e-08,3.970470095698154e-23,0.0,2.98022992950564e-08,1.0,2.646979853435861e-23,0.0,-1.3234899267179305e-23,-3.970470095698154e-23,1.0,0.0,4.5776399929309264e-05,-0.00012206999963382259,3.051759995287284e-05,1.0],"name":"Vis FH M8x30_3"},{"children":[36,39],"matrix":[1.0,-2.98022992950564e-08,0.0,0.0,2.98022992950564e-08,1.0,-1.3234899267179305e-23,0.0,0.0,2.646979853435861e-23,1.0,0.0,4.5776399929309264e-05,-0.00012206999963382259,3.051759995287284e-05,1.0],"name":"Vis FH M8x30"},{"children":[8,12,19,29,33,40],"matrix":[0.18488800525665283,-7.287680058161718e-24,-0.14124099910259247,0.0,-0.14124099910259247,-3.7905799388227024e-08,-0.18488800525665283,0.0,-2.3011100580561106e-08,0.23266400396823883,-3.012209859321047e-08,0.0,-205.89999389648438,-98.86669921875,-194.77200317382813,1.0],"name":"Ago_Lamp_d08"},{"children":[41],"name":"RootNode"},{"children":[42],"matrix":[10.0,0.0,0.0,0.0,0.0,10.0,0.0,0.0,0.0,0.0,10.0,0.0,1132.6201,1035.436160327279,4336.4004,1.0],"name":"AGO_FINAL_LKS"},{"children":[43],"name":"Default"},{"name":"Rubber Plant 4 by Visune"},{"matrix":[1.0,0.0,0.0,0.0,0.0,6.123230292458899e-17,-1.0,0.0,0.0,1.0,6.123230292458899e-17,0.0,2.2204500197172533e-16,6.352750133633129e-22,-5.551119755337213e-17,1.0],"mesh":11,"name":"Leaf"},{"children":[46],"matrix":[74.99999999999973,-9.911583718860175e-39,7.054752978078272e-31,0.0,-4.8981813282036e-38,74.99999999999973,3.9217860839644894e-31,0.0,1.9293761781744558e-30,-5.99628427552925e-31,74.99999999999973,0.0,-926.3792999999984,-403.52581688290576,2388.6806999999912,0.9999999999999999],"name":"Burgundy Rubber Plant 2"},{"children":[47],"name":"Burgundy Rubber Plant 2 by Visune"},{"matrix":[850.8647190733537,0.0,0.0,0.0,0.0,568.8785853385676,0.0,0.0,0.0,0.0,850.864719073353,0.0,-928.7979837657375,602.1826981600225,2376.1069111223023,0.9999999999999963],"mesh":12,"name":"Cylinder"},{"children":[49],"name":"Alocasia Black Velvet 2 by Visune"},{"children":[44,45,48,50],"matrix":[0.01,0.0,0.0,0.0,0.0,0.01,0.0,0.0,0.0,0.0,0.01,0.0,0.0,0.0,0.0,1.0],"name":"lux_root"}],"samplers":[{"magFilter":9729,"minFilter":9987,"wrapS":10497,"wrapT":10497},{"magFilter":9729,"minFilter":9987,"wrapS":10497,"wrapT":10497},{"magFilter":9729,"minFilter":9987,"wrapS":10497,"wrapT":10497},{"magFilter":9729,"minFilter":9987,"wrapS":10497,"wrapT":10497},{"magFilter":9729,"minFilter":9987,"wrapS":10497,"wrapT":10497},{"magFilter":9729,"minFilter":9987,"wrapS":10497,"wrapT":10497},{"magFilter":9729,"minFilter":9987,"wrapS":10497,"wrapT":10497},{"magFilter":9729,"minFilter":9987,"wrapS":10497,"wrapT":10497},{"magFilter":9729,"minFilter":9987,"wrapS":10497,"wrapT":10497},{"magFilter":9729,"minFilter":9987,"wrapS":10497,"wrapT":10497},{"magFilter":9729,"minFilter":9987,"wrapS":10497,"wrapT":10497}],"scenes":[{"nodes":[0,1,51]}],"textures":[{"sampler":0,"source":0},{"sampler":1,"source":1},{"sampler":2,"source":2},{"sampler":3,"source":3},{"sampler":4,"source":4},{"sampler":5,"source":5},{"sampler":6,"source":6},{"sampler":7,"source":7},{"sampler":8,"source":8},{"sampler":9,"source":9},{"sampler":10,"source":10}]}  