{"accessors":[{"bufferView":0,"componentType":5126,"count":41370,"max":[95.24797058105469,109.99781799316406,1693.0],"min":[-124.7476577758789,-109.99781799316406,1599.0],"type":"VEC3"},{"bufferView":1,"componentType":5126,"count":41370,"type":"VEC3"},{"bufferView":2,"componentType":5126,"count":41370,"type":"VEC2"},{"bufferView":3,"componentType":5125,"count":41370,"type":"SCALAR"},{"bufferView":4,"componentType":5126,"count":116808,"max":[148.82115173339844,163.57345581054688,1757.0],"min":[-178.32083129882813,-163.57345581054688,1693.0],"type":"VEC3"},{"bufferView":5,"componentType":5126,"count":116808,"type":"VEC3"},{"bufferView":6,"componentType":5126,"count":116808,"type":"VEC2"},{"bufferView":7,"componentType":5125,"count":116808,"type":"SCALAR"},{"bufferView":8,"componentType":5126,"count":26130,"max":[200.0,200.0,400.0],"min":[-200.0,-200.0,0.0],"type":"VEC3"},{"bufferView":9,"componentType":5126,"count":26130,"type":"VEC3"},{"bufferView":10,"componentType":5126,"count":26130,"type":"VEC2"},{"bufferView":11,"componentType":5125,"count":26130,"type":"SCALAR"},{"bufferView":12,"componentType":5126,"count":38376,"max":[-199.74984741210938,10.0,80.0],"min":[-239.74984741210938,-10.0,60.0],"type":"VEC3"},{"bufferView":13,"componentType":5126,"count":38376,"type":"VEC3"},{"bufferView":14,"componentType":5126,"count":38376,"type":"VEC2"},{"bufferView":15,"componentType":5125,"count":38376,"type":"SCALAR"},{"bufferView":16,"componentType":5126,"count":38376,"max":[-199.74984741210938,10.0,340.0],"min":[-239.74984741210938,-10.0,320.0],"type":"VEC3"},{"bufferView":17,"componentType":5126,"count":38376,"type":"VEC3"},{"bufferView":18,"componentType":5126,"count":38376,"type":"VEC2"},{"bufferView":19,"componentType":5125,"count":38376,"type":"SCALAR"},{"bufferView":20,"componentType":5126,"count":13398,"max":[-135.70542907714844,90.17914581298828,1.7763568394002505e-14],"min":[-150.70474243164063,75.1798324584961,-20.0],"type":"VEC3"},{"bufferView":21,"componentType":5126,"count":13398,"type":"VEC3"},{"bufferView":22,"componentType":5126,"count":13398,"type":"VEC2"},{"bufferView":23,"componentType":5125,"count":13398,"type":"SCALAR"},{"bufferView":24,"componentType":5126,"count":13578,"max":[150.70498657226563,90.17939758300781,1.7763568394002505e-14],"min":[135.70518493652344,75.1795883178711,-20.0],"type":"VEC3"},{"bufferView":25,"componentType":5126,"count":13578,"type":"VEC3"},{"bufferView":26,"componentType":5126,"count":13578,"type":"VEC2"},{"bufferView":27,"componentType":5125,"count":13578,"type":"SCALAR"},{"bufferView":28,"componentType":5126,"count":13530,"max":[7.5,-157.85897827148438,1.7763568394002505e-14],"min":[-7.5,-172.85897827148438,-20.0],"type":"VEC3"},{"bufferView":29,"componentType":5126,"count":13530,"type":"VEC3"},{"bufferView":30,"componentType":5126,"count":13530,"type":"VEC2"},{"bufferView":31,"componentType":5125,"count":13530,"type":"SCALAR"},{"bufferView":32,"componentType":5126,"count":77658,"max":[-2.2498435974121094,12.5,1879.5],"min":[-409.7498474121094,-12.5,0.0],"type":"VEC3"},{"bufferView":33,"componentType":5126,"count":77658,"type":"VEC3"},{"bufferView":34,"componentType":5126,"count":77658,"type":"VEC2"},{"bufferView":35,"componentType":5125,"count":77658,"type":"SCALAR"},{"bufferView":36,"componentType":5126,"count":2592,"max":[1.0449897050857544,0.030761778354644775,0.17008616030216217],"min":[-1.5803816318511963,-0.020101584494113922,-0.1443329155445099],"type":"VEC3"},{"bufferView":37,"componentType":5126,"count":2592,"type":"VEC3"},{"bufferView":38,"componentType":5125,"count":2592,"type":"SCALAR"},{"bufferView":39,"componentType":5126,"count":236295,"max":[0.36887940764427185,0.45206353068351746,0.32626935839653015],"min":[-0.4373162090778351,-0.41506025195121765,-0.7669687271118164],"type":"VEC3"},{"bufferView":40,"componentType":5126,"count":236295,"type":"VEC3"},{"bufferView":41,"componentType":5125,"count":236295,"type":"SCALAR"},{"bufferView":42,"componentType":5126,"count":1728,"max":[0.1302032172679901,0.12888413667678833,0.024397749453783035],"min":[-0.1297195851802826,-0.12932661175727844,-0.024797020480036736],"type":"VEC3"},{"bufferView":43,"componentType":5126,"count":1728,"type":"VEC3"},{"bufferView":44,"componentType":5126,"count":1728,"type":"VEC2"},{"bufferView":45,"componentType":5125,"count":1728,"type":"SCALAR"}],"asset":{"generator":"Luxion KeyShot","version":"2.0"},"bufferViews":[{"buffer":0,"byteLength":496440,"byteOffset":0,"byteStride":12},{"buffer":0,"byteLength":496440,"byteOffset":496440,"byteStride":12},{"buffer":0,"byteLength":330960,"byteOffset":992880,"byteStride":8},{"buffer":0,"byteLength":165480,"byteOffset":1323840},{"buffer":0,"byteLength":1401696,"byteOffset":1489320,"byteStride":12},{"buffer":0,"byteLength":1401696,"byteOffset":2891016,"byteStride":12},{"buffer":0,"byteLength":934464,"byteOffset":4292712,"byteStride":8},{"buffer":0,"byteLength":467232,"byteOffset":5227176},{"buffer":0,"byteLength":313560,"byteOffset":5694408,"byteStride":12},{"buffer":0,"byteLength":313560,"byteOffset":6007968,"byteStride":12},{"buffer":0,"byteLength":209040,"byteOffset":6321528,"byteStride":8},{"buffer":0,"byteLength":104520,"byteOffset":6530568},{"buffer":0,"byteLength":460512,"byteOffset":6635088,"byteStride":12},{"buffer":0,"byteLength":460512,"byteOffset":7095600,"byteStride":12},{"buffer":0,"byteLength":307008,"byteOffset":7556112,"byteStride":8},{"buffer":0,"byteLength":153504,"byteOffset":7863120},{"buffer":0,"byteLength":460512,"byteOffset":8016624,"byteStride":12},{"buffer":0,"byteLength":460512,"byteOffset":8477136,"byteStride":12},{"buffer":0,"byteLength":307008,"byteOffset":8937648,"byteStride":8},{"buffer":0,"byteLength":153504,"byteOffset":9244656},{"buffer":0,"byteLength":160776,"byteOffset":9398160,"byteStride":12},{"buffer":0,"byteLength":160776,"byteOffset":9558936,"byteStride":12},{"buffer":0,"byteLength":107184,"byteOffset":9719712,"byteStride":8},{"buffer":0,"byteLength":53592,"byteOffset":9826896},{"buffer":0,"byteLength":162936,"byteOffset":9880488,"byteStride":12},{"buffer":0,"byteLength":162936,"byteOffset":10043424,"byteStride":12},{"buffer":0,"byteLength":108624,"byteOffset":10206360,"byteStride":8},{"buffer":0,"byteLength":54312,"byteOffset":10314984},{"buffer":0,"byteLength":162360,"byteOffset":10369296,"byteStride":12},{"buffer":0,"byteLength":162360,"byteOffset":10531656,"byteStride":12},{"buffer":0,"byteLength":108240,"byteOffset":10694016,"byteStride":8},{"buffer":0,"byteLength":54120,"byteOffset":10802256},{"buffer":0,"byteLength":931896,"byteOffset":10856376,"byteStride":12},{"buffer":0,"byteLength":931896,"byteOffset":11788272,"byteStride":12},{"buffer":0,"byteLength":621264,"byteOffset":12720168,"byteStride":8},{"buffer":0,"byteLength":310632,"byteOffset":13341432},{"buffer":0,"byteLength":31104,"byteOffset":13652064,"byteStride":12},{"buffer":0,"byteLength":31104,"byteOffset":13683168,"byteStride":12},{"buffer":0,"byteLength":10368,"byteOffset":13714272},{"buffer":0,"byteLength":2835540,"byteOffset":13724640,"byteStride":12},{"buffer":0,"byteLength":2835540,"byteOffset":16560180,"byteStride":12},{"buffer":0,"byteLength":945180,"byteOffset":19395720},{"buffer":0,"byteLength":20736,"byteOffset":20340900,"byteStride":12},{"buffer":0,"byteLength":20736,"byteOffset":20361636,"byteStride":12},{"buffer":0,"byteLength":13824,"byteOffset":20382372,"byteStride":8},{"buffer":0,"byteLength":6912,"byteOffset":20396196}],"buffers":[{"byteLength":20403108,"uri":"./JOAB_+_CHARLOTTE_resources/JOAB_+_CHARLOTTE.bin"}],"cameras":[{"name":"active","perspective":{"aspectRatio":1.0,"yfov":0.4710899607545063,"zfar":22766.490234375,"znear":13072.0283203125},"type":"perspective"},{"name":"Camera","perspective":{"aspectRatio":1.0,"yfov":0.4710899607545063,"zfar":22766.490234375,"znear":13072.0283203125},"type":"perspective"}],"images":[{"uri":"./JOAB_+_CHARLOTTE_resources/AGO_lampe_suspendue_2_39_color.jpeg"},{"uri":"./JOAB_+_CHARLOTTE_resources/AGO_lampe_suspendue_3_42_normal.jpeg"},{"uri":"./JOAB_+_CHARLOTTE_resources/AGO_pot_2_46_normal.jpeg"},{"uri":"./JOAB_+_CHARLOTTE_resources/AGO_raccord_tube_pot_2_50_normal.jpeg"},{"uri":"./JOAB_+_CHARLOTTE_resources/AGO_raccord_tube_pot_3_53_normal.jpeg"},{"uri":"./JOAB_+_CHARLOTTE_resources/AGO_Feet_d08_2_57_normal.jpeg"},{"uri":"./JOAB_+_CHARLOTTE_resources/AGO_Feet_d08_3_60_normal.jpeg"},{"uri":"./JOAB_+_CHARLOTTE_resources/AGO_Feet_d08_4_63_normal.jpeg"},{"uri":"./JOAB_+_CHARLOTTE_resources/Tube_2_67_normal.jpeg"},{"uri":"./JOAB_+_CHARLOTTE_resources/Soil_84_normal.jpeg"},{"uri":"./JOAB_+_CHARLOTTE_resources/Soil_84_color.jpeg"},{"uri":"./JOAB_+_CHARLOTTE_resources/Soil_84_roughness_metalness_transmission.jpeg"}],"materials":[{"doubleSided":true,"name":"Emissive Neutral #1","pbrMetallicRoughness":{"baseColorTexture":{"index":0}}},{"doubleSided":true,"name":"Hard Textured Plastic Red #1","normalTexture":{"index":1,"scale":1},"pbrMetallicRoughness":{"baseColorFactor":[0.47635847330093384,0.0700976699590683,0.02725239470601082,1.0],"metallicFactor":0.0,"roughnessFactor":0.3162277638912201}},{"doubleSided":true,"name":"Hard Textured Plastic Red #1","normalTexture":{"index":2,"scale":1},"pbrMetallicRoughness":{"baseColorFactor":[0.47635847330093384,0.0700976699590683,0.02725239470601082,1.0],"metallicFactor":0.0,"roughnessFactor":0.3162277638912201}},{"doubleSided":true,"name":"Hard Textured Plastic Red #1","normalTexture":{"index":3,"scale":1},"pbrMetallicRoughness":{"baseColorFactor":[0.47635847330093384,0.0700976699590683,0.02725239470601082,1.0],"metallicFactor":0.0,"roughnessFactor":0.3162277638912201}},{"doubleSided":true,"name":"Hard Textured Plastic Red #1","normalTexture":{"index":4,"scale":1},"pbrMetallicRoughness":{"baseColorFactor":[0.47635847330093384,0.0700976699590683,0.02725239470601082,1.0],"metallicFactor":0.0,"roughnessFactor":0.3162277638912201}},{"doubleSided":true,"name":"Hard Textured Plastic Red #1","normalTexture":{"index":5,"scale":1},"pbrMetallicRoughness":{"baseColorFactor":[0.47635847330093384,0.0700976699590683,0.02725239470601082,1.0],"metallicFactor":0.0,"roughnessFactor":0.3162277638912201}},{"doubleSided":true,"name":"Hard Textured Plastic Red #1","normalTexture":{"index":6,"scale":1},"pbrMetallicRoughness":{"baseColorFactor":[0.47635847330093384,0.0700976699590683,0.02725239470601082,1.0],"metallicFactor":0.0,"roughnessFactor":0.3162277638912201}},{"doubleSided":true,"name":"Hard Textured Plastic Red #1","normalTexture":{"index":7,"scale":1},"pbrMetallicRoughness":{"baseColorFactor":[0.47635847330093384,0.0700976699590683,0.02725239470601082,1.0],"metallicFactor":0.0,"roughnessFactor":0.3162277638912201}},{"doubleSided":true,"name":"Hard Textured Plastic Red #1","normalTexture":{"index":8,"scale":1},"pbrMetallicRoughness":{"baseColorFactor":[0.47635847330093384,0.0700976699590683,0.02725239470601082,1.0],"metallicFactor":0.0,"roughnessFactor":0.3162277638912201}},{"doubleSided":true,"name":"black rubber","pbrMetallicRoughness":{"baseColorFactor":[0.023333799093961716,0.023333799093961716,0.023333799093961716,1.0],"metallicFactor":0.0,"roughnessFactor":1.0}},{"doubleSided":true,"name":"Daun","pbrMetallicRoughness":{"baseColorFactor":[0.2851141691207886,0.3429369330406189,0.07723979651927948,1.0],"metallicFactor":0.0,"roughnessFactor":1.0}},{"doubleSided":true,"name":"Soil_1","normalTexture":{"index":9,"scale":1},"pbrMetallicRoughness":{"baseColorTexture":{"index":10},"metallicRoughnessTexture":{"index":11}}}],"meshes":[{"name":"AGO lampe suspendue_2","primitives":[{"attributes":{"NORMAL":1,"POSITION":0,"TEXCOORD_0":2},"indices":3,"material":0,"mode":4}]},{"name":"AGO lampe suspendue_3","primitives":[{"attributes":{"NORMAL":5,"POSITION":4,"TEXCOORD_0":6},"indices":7,"material":1,"mode":4}]},{"name":"AGO pot_2","primitives":[{"attributes":{"NORMAL":9,"POSITION":8,"TEXCOORD_0":10},"indices":11,"material":2,"mode":4}]},{"name":"AGO raccord tube pot_2","primitives":[{"attributes":{"NORMAL":13,"POSITION":12,"TEXCOORD_0":14},"indices":15,"material":3,"mode":4}]},{"name":"AGO raccord tube pot_3","primitives":[{"attributes":{"NORMAL":17,"POSITION":16,"TEXCOORD_0":18},"indices":19,"material":4,"mode":4}]},{"name":"AGO_Feet_d08_2","primitives":[{"attributes":{"NORMAL":21,"POSITION":20,"TEXCOORD_0":22},"indices":23,"material":5,"mode":4}]},{"name":"AGO_Feet_d08_3","primitives":[{"attributes":{"NORMAL":25,"POSITION":24,"TEXCOORD_0":26},"indices":27,"material":6,"mode":4}]},{"name":"AGO_Feet_d08_4","primitives":[{"attributes":{"NORMAL":29,"POSITION":28,"TEXCOORD_0":30},"indices":31,"material":7,"mode":4}]},{"name":"Tube_2","primitives":[{"attributes":{"NORMAL":33,"POSITION":32,"TEXCOORD_0":34},"indices":35,"material":8,"mode":4}]},{"name":"BézierCurve.001","primitives":[{"attributes":{"NORMAL":37,"POSITION":36},"indices":38,"material":9,"mode":4}]},{"name":"Leaves","primitives":[{"attributes":{"NORMAL":40,"POSITION":39},"indices":41,"material":10,"mode":4}]},{"name":"Soil","primitives":[{"attributes":{"NORMAL":43,"POSITION":42,"TEXCOORD_0":44},"indices":45,"material":11,"mode":4}]}],"nodes":[{"camera":0,"matrix":[0.004547518480798671,0.00028591069962971896,-0.008901591342554393,0.0,-0.0027199297576364695,0.009561923892668852,-0.0010823991035519885,0.0,0.008480687141418457,0.0029133933782577513,0.004426068365573883,0.0,133.93562500000002,70.96603515625,98.287685546875,1.0],"name":"active"},{"camera":1,"matrix":[0.004547518480798671,0.00028591069962971896,-0.008901591342554393,0.0,-0.0027199297576364695,0.009561923892668852,-0.0010823991035519885,0.0,0.008480687141418457,0.0029133933782577513,0.004426068365573883,0.0,133.93562500000002,70.96603515625,98.287685546875,1.0],"name":"Camera"},{"mesh":0,"name":"AGO lampe suspendue_2"},{"children":[2],"name":"AGO lampe suspendue_2"},{"children":[3],"matrix":[1.0,-2.98022992950564e-08,3.970470095698154e-23,0.0,2.98022992950564e-08,1.0,2.646979853435861e-23,0.0,-1.3234899267179305e-23,-3.970470095698154e-23,1.0,0.0,4.5776399929309264e-05,-0.00012206999963382259,0.39263901114463806,1.0],"name":"AGO lampe suspendue_2"},{"mesh":1,"name":"AGO lampe suspendue_3"},{"children":[5],"name":"AGO lampe suspendue_3"},{"children":[6],"matrix":[1.0,-2.98022992950564e-08,3.970470095698154e-23,0.0,2.98022992950564e-08,1.0,2.646979853435861e-23,0.0,-1.3234899267179305e-23,-3.970470095698154e-23,1.0,0.0,4.5776399929309264e-05,-0.00012206999963382259,0.39263901114463806,1.0],"name":"AGO lampe suspendue_3"},{"children":[4,7],"matrix":[1.0,-2.98022992950564e-08,0.0,0.0,2.98022992950564e-08,1.0,-1.3234899267179305e-23,0.0,0.0,2.646979853435861e-23,1.0,0.0,4.5776399929309264e-05,-0.00012206999963382259,3.051759995287284e-05,1.0],"name":"AGO lampe suspendue"},{"mesh":2,"name":"AGO pot_2"},{"children":[9],"name":"AGO pot_2"},{"children":[10],"matrix":[1.0,-2.98022992950564e-08,3.970470095698154e-23,0.0,2.98022992950564e-08,1.0,2.646979853435861e-23,0.0,-1.3234899267179305e-23,-3.970470095698154e-23,1.0,0.0,4.5776399929309264e-05,-0.00012206999963382259,3.051759995287284e-05,1.0],"name":"AGO pot_2"},{"children":[11],"matrix":[1.0,-2.98022992950564e-08,0.0,0.0,2.98022992950564e-08,1.0,-1.3234899267179305e-23,0.0,0.0,2.646979853435861e-23,1.0,0.0,4.5776399929309264e-05,-0.00012206999963382259,3.051759995287284e-05,1.0],"name":"AGO pot"},{"mesh":3,"name":"AGO raccord tube pot_2"},{"children":[13],"name":"AGO raccord tube pot_2"},{"children":[14],"matrix":[1.0,-2.98022992950564e-08,3.970470095698154e-23,0.0,2.98022992950564e-08,1.0,2.646979853435861e-23,0.0,-1.3234899267179305e-23,-3.970470095698154e-23,1.0,0.0,4.5776399929309264e-05,-0.00012206999963382259,3.051759995287284e-05,1.0],"name":"AGO raccord tube pot_2"},{"mesh":4,"name":"AGO raccord tube pot_3"},{"children":[16],"name":"AGO raccord tube pot_3"},{"children":[17],"matrix":[1.0,-2.98022992950564e-08,3.970470095698154e-23,0.0,2.98022992950564e-08,1.0,2.646979853435861e-23,0.0,-1.3234899267179305e-23,-3.970470095698154e-23,1.0,0.0,4.5776399929309264e-05,-0.00012206999963382259,3.051759995287284e-05,1.0],"name":"AGO raccord tube pot_3"},{"children":[15,18],"matrix":[1.0,-2.98022992950564e-08,0.0,0.0,2.98022992950564e-08,1.0,-1.3234899267179305e-23,0.0,0.0,2.646979853435861e-23,1.0,0.0,4.5776399929309264e-05,-0.00012206999963382259,3.051759995287284e-05,1.0],"name":"AGO raccord tube pot"},{"mesh":5,"name":"AGO_Feet_d08_2"},{"children":[20],"name":"AGO_Feet_d08_2"},{"children":[21],"matrix":[1.0,-2.98022992950564e-08,3.970470095698154e-23,0.0,2.98022992950564e-08,1.0,2.646979853435861e-23,0.0,-1.3234899267179305e-23,-3.970470095698154e-23,1.0,0.0,4.5776399929309264e-05,-0.00012206999963382259,3.051759995287284e-05,1.0],"name":"AGO_Feet_d08_2"},{"mesh":6,"name":"AGO_Feet_d08_3"},{"children":[23],"name":"AGO_Feet_d08_3"},{"children":[24],"matrix":[1.0,-2.98022992950564e-08,3.970470095698154e-23,0.0,2.98022992950564e-08,1.0,2.646979853435861e-23,0.0,-1.3234899267179305e-23,-3.970470095698154e-23,1.0,0.0,4.5776399929309264e-05,-0.00012206999963382259,3.051759995287284e-05,1.0],"name":"AGO_Feet_d08_3"},{"mesh":7,"name":"AGO_Feet_d08_4"},{"children":[26],"name":"AGO_Feet_d08_4"},{"children":[27],"matrix":[1.0,-2.98022992950564e-08,3.970470095698154e-23,0.0,2.98022992950564e-08,1.0,2.646979853435861e-23,0.0,-1.3234899267179305e-23,-3.970470095698154e-23,1.0,0.0,4.5776399929309264e-05,-0.00012206999963382259,3.051759995287284e-05,1.0],"name":"AGO_Feet_d08_4"},{"children":[22,25,28],"matrix":[1.0,-2.98022992950564e-08,0.0,0.0,2.98022992950564e-08,1.0,-1.3234899267179305e-23,0.0,0.0,2.646979853435861e-23,1.0,0.0,4.5776399929309264e-05,-0.00012206999963382259,3.051759995287284e-05,1.0],"name":"AGO_Feet_d08"},{"mesh":8,"name":"Tube_2"},{"children":[30],"name":"Tube_2"},{"children":[31],"matrix":[1.0,-2.98022992950564e-08,3.970470095698154e-23,0.0,2.98022992950564e-08,1.0,2.646979853435861e-23,0.0,-1.3234899267179305e-23,-3.970470095698154e-23,1.0,0.0,4.5776399929309264e-05,-0.00012206999963382259,3.051759995287284e-05,1.0],"name":"Tube_2"},{"children":[32],"matrix":[1.0,-2.98022992950564e-08,0.0,0.0,2.98022992950564e-08,1.0,-1.3234899267179305e-23,0.0,0.0,2.646979853435861e-23,1.0,0.0,4.5776399929309264e-05,-0.00012206999963382259,3.051759995287284e-05,1.0],"name":"Tube"},{"name":"Vis FH M8x30_2"},{"children":[34],"matrix":[1.0,-2.98022992950564e-08,3.970470095698154e-23,0.0,2.98022992950564e-08,1.0,2.646979853435861e-23,0.0,-1.3234899267179305e-23,-3.970470095698154e-23,1.0,0.0,4.5776399929309264e-05,-0.00012206999963382259,3.051759995287284e-05,1.0],"name":"Vis FH M8x30_2"},{"name":"Vis FH M8x30_3"},{"children":[36],"matrix":[1.0,-2.98022992950564e-08,3.970470095698154e-23,0.0,2.98022992950564e-08,1.0,2.646979853435861e-23,0.0,-1.3234899267179305e-23,-3.970470095698154e-23,1.0,0.0,4.5776399929309264e-05,-0.00012206999963382259,3.051759995287284e-05,1.0],"name":"Vis FH M8x30_3"},{"children":[35,37],"matrix":[1.0,-2.98022992950564e-08,0.0,0.0,2.98022992950564e-08,1.0,-1.3234899267179305e-23,0.0,0.0,2.646979853435861e-23,1.0,0.0,4.5776399929309264e-05,-0.00012206999963382259,3.051759995287284e-05,1.0],"name":"Vis FH M8x30"},{"children":[8,12,19,29,33,38],"matrix":[0.18488800525665283,-7.287680058161718e-24,-0.14124099910259247,0.0,-0.14124099910259247,-3.7905799388227024e-08,-0.18488800525665283,0.0,-2.3011100580561106e-08,0.23266400396823883,-3.012209859321047e-08,0.0,-205.89999389648438,-98.86669921875,-194.77200317382813,1.0],"name":"Ago_Lamp_d08"},{"mesh":9,"name":"BézierCurve.001"},{"children":[40],"name":"BézierCurve.001"},{"children":[41],"matrix":[184.88800048828125,2.891890015215698e-13,-141.24099731445313,0.0,6.173850124469027e-06,232.66400146484375,8.081719897745643e-06,0.0,141.24099731445313,-1.0170099812967237e-05,184.88800048828125,0.0,-445.2279968261719,-98.86669921875,-15.282400131225586,1.0],"name":"BézierCurve.001"},{"mesh":10,"name":"Leaves"},{"children":[43],"name":"Leaves"},{"children":[44],"matrix":[2.9296200275421143,0.7102770209312439,-8.790750178028044e-15,0.0,-0.7102770209312439,2.9296200275421143,-1.3176800450764858e-07,0.0,-3.1047200366174366e-08,1.2805800508886023e-07,3.0144898891448975,0.0,0.1441430002450943,-0.1361979991197586,3.3620998859405518,1.0],"name":"Leaves"},{"mesh":11,"name":"Soil"},{"children":[46],"name":"Soil"},{"children":[47],"matrix":[4.473810195922852,0.0,0.0,0.0,-4.440889980918258e-16,4.473810195922852,-1.95557007032221e-07,0.0,0.0,1.9555599806153623e-07,4.473810195922852,0.0,-0.0019183199619874358,-0.006571290083229542,1.1487400531768799,1.0],"name":"Soil"},{"children":[45,48],"matrix":[61.333099365234375,0.0,-46.854000091552734,0.0,-46.854000091552734,-1.2574500033224467e-05,-61.333099365234375,0.0,-7.633489985892083e-06,77.18190002441406,-9.992430022975896e-06,0.0,-205.89999389648438,-98.86669921875,-194.77200317382813,1.0],"name":"Monstera plant"},{"children":[39,42,49],"name":"RootNode"},{"children":[50],"matrix":[10.0,0.0,0.0,0.0,0.0,10.0,0.0,0.0,0.0,0.0,10.0,0.0,1132.6201,1035.436160327279,4336.4004,1.0],"name":"AGO_FINAL_LKS"},{"children":[51],"name":"Default"},{"children":[52],"matrix":[0.01,0.0,0.0,0.0,0.0,0.01,0.0,0.0,0.0,0.0,0.01,0.0,0.0,0.0,0.0,1.0],"name":"lux_root"}],"samplers":[{"magFilter":9729,"minFilter":9987,"wrapS":10497,"wrapT":10497},{"magFilter":9729,"minFilter":9987,"wrapS":10497,"wrapT":10497},{"magFilter":9729,"minFilter":9987,"wrapS":10497,"wrapT":10497},{"magFilter":9729,"minFilter":9987,"wrapS":10497,"wrapT":10497},{"magFilter":9729,"minFilter":9987,"wrapS":10497,"wrapT":10497},{"magFilter":9729,"minFilter":9987,"wrapS":10497,"wrapT":10497},{"magFilter":9729,"minFilter":9987,"wrapS":10497,"wrapT":10497},{"magFilter":9729,"minFilter":9987,"wrapS":10497,"wrapT":10497},{"magFilter":9729,"minFilter":9987,"wrapS":10497,"wrapT":10497},{"magFilter":9729,"minFilter":9987,"wrapS":10497,"wrapT":10497},{"magFilter":9729,"minFilter":9987,"wrapS":10497,"wrapT":10497},{"magFilter":9729,"minFilter":9987,"wrapS":10497,"wrapT":10497}],"scenes":[{"nodes":[0,1,53]}],"textures":[{"sampler":0,"source":0},{"sampler":1,"source":1},{"sampler":2,"source":2},{"sampler":3,"source":3},{"sampler":4,"source":4},{"sampler":5,"source":5},{"sampler":6,"source":6},{"sampler":7,"source":7},{"sampler":8,"source":8},{"sampler":9,"source":9},{"sampler":10,"source":10},{"sampler":11,"source":11}]}