<svg width="517" height="510" viewBox="0 0 517 510" fill="none" xmlns="http://www.w3.org/2000/svg">
<path d="M482.46 14.5V44.68L417.01 14.5H482.46ZM34.14 14.5H99.59L34.14 44.68V14.5ZM495.99 50.91V14.5H509.95H511.38V13.07V7.73999V6.31H509.95H495.99V1.42999V0H494.56H483.89H482.46V1.42999V6.31H281.27H34.14V1.42999V0H32.71H22.04H20.61V1.42999V6.31H7.28003H5.84998V7.73999V13.07V14.5H7.28003H20.61V50.91L1.29999 59.81L0 60.41L0.599976 61.71L2.82996 66.55L3.42999 67.85L4.72998 67.25L20.61 59.93V507.67V509.1H22.04H32.71H34.14V507.67V53.7L105.71 20.7C106.75 20.22 107.89 19.97 109.03 19.97H281.27H407.57C408.71 19.97 409.86 20.22 410.89 20.7L482.46 53.7V505.09V506.52H483.89H494.56H495.99V505.09V59.93L511.87 67.25L513.17 67.85L513.77 66.55L516.01 61.71L516.61 60.41L515.31 59.81L495.99 50.91Z" fill="#E74011"/>
<path d="M120.55 60.03C116.91 68.21 131.46 69.12 145.09 69.12C158.73 69.12 173.28 68.22 169.64 60.03L150.54 20.02H139.63L120.55 60.03Z" fill="white"/>
<path d="M233.75 60.03C230.11 68.21 244.66 69.12 258.29 69.12C271.92 69.12 286.48 68.22 282.84 60.03L263.74 20.02H252.83L233.75 60.03Z" fill="white"/>
<path d="M396.05 60.03C399.69 68.21 385.14 69.12 371.51 69.12C357.88 69.12 343.32 68.22 346.96 60.03L366.06 20.02H376.97L396.05 60.03Z" fill="white"/>
</svg>
