<svg width="301" height="90" viewBox="0 0 301 90" fill="none" xmlns="http://www.w3.org/2000/svg">
<g clip-path="url(#clip0_35_32)">
<path d="M25.87 18.56H18.64V25.84H12.45V18.56H5.21995V12.32H12.45V5.04H18.64V12.32H25.87V18.56ZM31.07 2.56C31.07 2.56 25.27 0 15.56 0C5.84995 0 0.0499521 2.56 0.0499521 2.56C0.0499521 2.56 -0.470048 13.88 1.73995 20.28C5.62995 31.54 15.57 34.7 15.57 34.7C15.57 34.7 25.51 31.54 29.4 20.28C31.6 13.88 31.08 2.55 31.08 2.55" fill="#80152A"/>
<path d="M43.7 9.62001C44.13 9.92001 44.69 10.07 45.39 10.07C45.87 10.07 46.28 9.94001 46.62 9.68001C46.93 9.43001 47.1 9.03001 47.11 8.49001C47.1 8.11001 46.91 7.79001 46.56 7.54001C46.48 7.47001 46.39 7.41001 46.3 7.35001C46.21 7.29001 46.11 7.23001 46 7.17001C45.9 7.11001 45.79 7.05001 45.68 6.99001L45.35 6.81001C45.24 6.75001 45.13 6.69001 45.02 6.62001C44.91 6.55001 44.81 6.48001 44.71 6.41001C44.61 6.34001 44.51 6.27001 44.41 6.20001C44.31 6.13001 44.22 6.05001 44.14 5.97001C43.79 5.65001 43.61 5.25001 43.59 4.77001C43.59 4.14001 43.84 3.65001 44.3 3.29001C44.75 2.95001 45.32 2.77001 46.01 2.76001C46.11 2.76001 46.22 2.76001 46.33 2.77001C46.44 2.77001 46.57 2.79001 46.71 2.80001C46.99 2.84001 47.26 2.91001 47.51 3.01001L47.39 3.70001C47.01 3.51001 46.55 3.41001 46 3.41001C45.82 3.41001 45.62 3.43001 45.42 3.47001C45.22 3.51001 45.04 3.59001 44.88 3.70001C44.72 3.80001 44.59 3.94001 44.5 4.10001C44.4 4.28001 44.35 4.50001 44.35 4.74001C44.35 4.92001 44.4 5.09001 44.5 5.25001C44.59 5.40001 44.73 5.53001 44.9 5.66001C45.06 5.78001 45.25 5.90001 45.47 6.01001C45.57 6.07001 45.68 6.13001 45.78 6.19001C45.89 6.25001 45.99 6.31001 46.1 6.37001C46.58 6.60001 46.98 6.88001 47.31 7.21001C47.39 7.29001 47.47 7.38001 47.54 7.47001C47.61 7.57001 47.67 7.67001 47.72 7.78001C47.81 7.99001 47.86 8.25001 47.86 8.54001C47.84 9.31001 47.58 9.86001 47.06 10.21C46.55 10.55 45.98 10.72 45.35 10.72C44.6 10.71 44.02 10.6 43.62 10.39L43.7 9.61001V9.62001Z" fill="#80152A"/>
<path d="M53.82 5.72009C53.44 5.54009 53.04 5.45009 52.62 5.43009C51.95 5.45009 51.43 5.66009 51.08 6.08009C50.71 6.52009 50.52 7.08009 50.52 7.78009C50.52 8.43009 50.7 8.98009 51.07 9.42009C51.43 9.88009 51.92 10.1101 52.55 10.1301C52.97 10.1301 53.39 10.0501 53.81 9.88009L53.88 10.5301C53.43 10.6801 52.95 10.7401 52.44 10.7301C51.54 10.7301 50.87 10.4301 50.43 9.84009C49.98 9.28009 49.76 8.60009 49.76 7.79009C49.78 6.89009 50.03 6.18009 50.53 5.66009C51.02 5.13009 51.68 4.86009 52.52 4.84009C52.88 4.84009 53.16 4.87009 53.38 4.92009C53.49 4.94009 53.59 4.96009 53.69 4.99009C53.73 5.00009 53.76 5.02009 53.8 5.03009C53.83 5.04009 53.86 5.05009 53.88 5.07009L53.83 5.73009L53.82 5.72009Z" fill="#80152A"/>
<path d="M55.9 2.32007H56.59V5.92007H56.61C56.76 5.62007 56.98 5.36007 57.29 5.14007C57.58 4.96007 57.94 4.86007 58.35 4.84007C59.09 4.84007 59.59 5.07007 59.87 5.50007C60.13 5.95007 60.26 6.53007 60.25 7.23007V10.6001H59.56V7.24007C59.56 7.11007 59.56 6.99007 59.55 6.88007C59.55 6.76007 59.53 6.65007 59.52 6.54007C59.51 6.44007 59.48 6.34007 59.45 6.24007C59.42 6.14007 59.38 6.06007 59.33 5.97007C59.16 5.62007 58.79 5.44007 58.24 5.43007C57.63 5.45007 57.21 5.68007 56.96 6.13007C56.7 6.59007 56.58 7.08007 56.59 7.59007V10.6001H55.9V2.32007Z" fill="#80152A"/>
<path d="M68.5901 10.6H67.7601L66.2401 5.72997H66.2101L64.6901 10.6H63.8601L62.0601 4.96997H62.8201L64.2901 9.83997H64.3101L65.8601 4.96997H66.7001L68.1801 9.83997H68.2001L69.7501 4.96997H70.4401L68.5901 10.6Z" fill="#80152A"/>
<path d="M75.65 7.39008C75.65 6.88008 75.54 6.43008 75.33 6.04008C75.1 5.64008 74.73 5.44008 74.22 5.43008C73.72 5.43008 73.32 5.64008 73.02 6.05008C72.72 6.45008 72.57 6.90008 72.57 7.39008H75.64H75.65ZM75.99 10.4201C75.47 10.6101 74.93 10.7101 74.37 10.7301C73.46 10.7201 72.8 10.4301 72.41 9.88008C72.01 9.33008 71.82 8.64008 71.83 7.78008C71.84 6.90008 72.06 6.19008 72.49 5.65008C72.9 5.12008 73.47 4.85008 74.19 4.83008C74.97 4.85008 75.53 5.12008 75.9 5.66008C76.24 6.20008 76.41 6.85008 76.41 7.63008V7.98008H72.58C72.58 8.60008 72.74 9.10008 73.05 9.49008C73.36 9.90008 73.81 10.1101 74.42 10.1301C74.71 10.1301 74.99 10.0801 75.28 9.99008C75.43 9.95008 75.56 9.91008 75.68 9.86008C75.8 9.81008 75.91 9.76008 75.99 9.71008V10.4201Z" fill="#80152A"/>
<path d="M78.5699 10.6H79.2599V4.97004H78.5699V10.6ZM78.5699 3.47004H79.2599V2.54004H78.5699V3.47004Z" fill="#80152A"/>
<path d="M81.34 10.02L84.71 5.55997H81.47V4.96997H85.51V5.55997L82.15 9.99997H85.51V10.6H81.34V10.02Z" fill="#80152A"/>
<path d="M90.9901 7.39008C90.9901 6.88008 90.8801 6.43008 90.6701 6.04008C90.4401 5.64008 90.0701 5.44008 89.5601 5.43008C89.0601 5.43008 88.6601 5.64008 88.3601 6.05008C88.0601 6.45008 87.9101 6.90008 87.9101 7.39008H90.9801H90.9901ZM91.3401 10.4201C90.8201 10.6101 90.2801 10.7101 89.7201 10.7301C88.8101 10.7201 88.1501 10.4301 87.7601 9.88008C87.3601 9.33008 87.1701 8.64008 87.1801 7.78008C87.1901 6.90008 87.4101 6.19008 87.8401 5.65008C88.2501 5.12008 88.8201 4.85008 89.5401 4.83008C90.3201 4.85008 90.8801 5.12008 91.2501 5.66008C91.5901 6.20008 91.7601 6.85008 91.7601 7.63008V7.98008H87.9301C87.9301 8.60008 88.0901 9.10008 88.4001 9.49008C88.7101 9.90008 89.1601 10.1101 89.7701 10.1301C90.0501 10.1301 90.3401 10.0801 90.6301 9.99008C90.7801 9.95008 90.9101 9.91008 91.0301 9.86008C91.1501 9.81008 91.2601 9.76008 91.3401 9.71008V10.4201Z" fill="#80152A"/>
<path d="M93.92 6.23009C93.92 5.97009 93.92 5.74009 93.91 5.53009C93.91 5.32009 93.89 5.14009 93.88 4.97009H94.57V6.05009H94.59C94.72 5.71009 94.91 5.43009 95.15 5.20009C95.38 4.97009 95.67 4.85009 96.03 4.84009C96.2 4.84009 96.37 4.87009 96.51 4.91009V5.64009C96.36 5.60009 96.19 5.57009 96.01 5.57009C95.74 5.57009 95.52 5.64009 95.34 5.77009C95.16 5.90009 95.02 6.08009 94.91 6.31009C94.81 6.54009 94.73 6.78009 94.69 7.03009C94.64 7.29009 94.61 7.55009 94.61 7.82009V10.6001H93.92V6.23009Z" fill="#80152A"/>
<path d="M98.4301 10.6H99.1201V4.97004H98.4301V10.6ZM98.4301 3.47004H99.1201V2.54004H98.4301V3.47004Z" fill="#80152A"/>
<path d="M101.28 9.78008C101.7 10.0001 102.18 10.1201 102.74 10.1301C103.09 10.1301 103.38 10.0401 103.62 9.85008C103.85 9.69008 103.97 9.45008 103.98 9.12008C103.96 8.78008 103.83 8.52008 103.57 8.34008C103.3 8.15008 102.99 7.98008 102.64 7.84008C102.56 7.80008 102.48 7.76008 102.4 7.72008L102.16 7.59008C102.02 7.51008 101.88 7.41008 101.72 7.29008C101.66 7.23008 101.6 7.17008 101.55 7.10008C101.49 7.03008 101.45 6.96008 101.41 6.88008C101.33 6.73008 101.29 6.56008 101.29 6.36008C101.3 5.79008 101.49 5.39008 101.86 5.17008C102.22 4.94008 102.64 4.83008 103.11 4.83008C103.19 4.83008 103.28 4.83008 103.39 4.84008C103.5 4.84008 103.61 4.86008 103.73 4.88008C104 4.92008 104.25 4.99008 104.49 5.09008L104.42 5.70008C104.01 5.53008 103.6 5.44008 103.18 5.44008C102.81 5.44008 102.53 5.51008 102.32 5.64008C102.2 5.71008 102.12 5.81008 102.07 5.92008C102.01 6.05008 101.97 6.20008 101.97 6.38008C101.97 6.50008 102.01 6.61008 102.09 6.71008C102.16 6.81008 102.27 6.89008 102.41 6.98008C102.48 7.02008 102.55 7.05008 102.62 7.10008C102.7 7.14008 102.78 7.18008 102.86 7.22008C102.94 7.26008 103.02 7.29008 103.11 7.34008C103.19 7.38008 103.28 7.42008 103.36 7.47008C103.71 7.62008 104.03 7.83008 104.32 8.09008C104.58 8.34008 104.72 8.70008 104.74 9.16008C104.74 9.46008 104.68 9.71008 104.56 9.90008C104.44 10.1001 104.29 10.2601 104.09 10.4001C103.68 10.6401 103.24 10.7601 102.78 10.7601C102.24 10.7601 101.72 10.6701 101.21 10.4901L101.28 9.81008V9.78008Z" fill="#80152A"/>
<path d="M110.48 5.72009C110.1 5.54009 109.7 5.45009 109.28 5.43009C108.61 5.45009 108.09 5.66009 107.74 6.08009C107.37 6.52009 107.18 7.08009 107.18 7.78009C107.18 8.43009 107.36 8.98009 107.73 9.42009C108.09 9.88009 108.58 10.1101 109.21 10.1301C109.63 10.1301 110.05 10.0501 110.47 9.88009L110.54 10.5301C110.09 10.6801 109.61 10.7401 109.1 10.7301C108.2 10.7301 107.53 10.4301 107.09 9.84009C106.64 9.28009 106.42 8.60009 106.42 7.79009C106.44 6.89009 106.69 6.18009 107.19 5.66009C107.68 5.13009 108.34 4.86009 109.18 4.84009C109.54 4.84009 109.82 4.87009 110.04 4.92009C110.15 4.94009 110.25 4.96009 110.35 4.99009C110.39 5.00009 110.42 5.02009 110.46 5.03009C110.49 5.04009 110.52 5.05009 110.54 5.07009L110.49 5.73009L110.48 5.72009Z" fill="#80152A"/>
<path d="M112.56 2.32007H113.25V5.92007H113.27C113.42 5.62007 113.64 5.36007 113.95 5.14007C114.24 4.96007 114.6 4.86007 115.01 4.84007C115.75 4.84007 116.26 5.07007 116.53 5.50007C116.79 5.95007 116.92 6.53007 116.91 7.23007V10.6001H116.22V7.24007C116.22 7.11007 116.22 6.99007 116.21 6.88007C116.21 6.76007 116.19 6.65007 116.18 6.54007C116.16 6.44007 116.14 6.34007 116.11 6.24007C116.08 6.14007 116.04 6.06007 115.99 5.97007C115.82 5.62007 115.45 5.44007 114.9 5.43007C114.29 5.45007 113.87 5.68007 113.62 6.13007C113.36 6.59007 113.24 7.08007 113.25 7.59007V10.6001H112.56V2.32007Z" fill="#80152A"/>
<path d="M122.92 7.39008C122.92 6.88008 122.81 6.43008 122.6 6.04008C122.37 5.64008 122 5.44008 121.49 5.43008C120.99 5.43008 120.59 5.64008 120.29 6.05008C119.99 6.45008 119.84 6.90008 119.84 7.39008H122.91H122.92ZM123.26 10.4201C122.74 10.6101 122.2 10.7101 121.64 10.7301C120.73 10.7201 120.07 10.4301 119.68 9.88008C119.28 9.33008 119.09 8.64008 119.1 7.78008C119.12 6.90008 119.34 6.19008 119.76 5.65008C120.17 5.12008 120.74 4.85008 121.46 4.83008C122.24 4.85008 122.8 5.12008 123.17 5.66008C123.51 6.20008 123.68 6.85008 123.68 7.63008V7.98008H119.85C119.85 8.60008 120.01 9.10008 120.32 9.49008C120.63 9.90008 121.08 10.1101 121.69 10.1301C121.97 10.1301 122.26 10.0801 122.55 9.99008C122.7 9.95008 122.83 9.91008 122.95 9.86008C123.07 9.81008 123.18 9.76008 123.26 9.71008V10.4201Z" fill="#80152A"/>
<path d="M129.49 2.88989H133.25V3.54989H130.25V6.30989H133.09V6.96989H130.25V9.93989H133.38V10.5999H129.49V2.88989Z" fill="#80152A"/>
<path d="M135.76 10.6H136.45V4.97004H135.76V10.6ZM135.76 3.47004H136.45V2.54004H135.76V3.47004Z" fill="#80152A"/>
<path d="M139.47 7.78007C139.47 8.06007 139.49 8.33007 139.54 8.58007C139.6 8.87007 139.69 9.13007 139.8 9.35007C139.92 9.56007 140.1 9.74007 140.31 9.89007C140.51 10.0401 140.78 10.1201 141.11 10.1201C141.42 10.1201 141.68 10.0401 141.9 9.89007C142.1 9.75007 142.27 9.56007 142.41 9.33007C142.66 8.84007 142.78 8.32007 142.77 7.77007C142.77 7.64007 142.77 7.50007 142.75 7.37007C142.74 7.23007 142.72 7.10007 142.69 6.96007C142.64 6.70007 142.54 6.45007 142.41 6.21007C142.27 5.96007 142.1 5.77007 141.91 5.64007C141.7 5.50007 141.43 5.43007 141.12 5.43007C140.81 5.43007 140.52 5.50007 140.32 5.64007C140.11 5.77007 139.94 5.95007 139.8 6.19007C139.68 6.41007 139.6 6.66007 139.54 6.94007C139.51 7.08007 139.49 7.22007 139.48 7.36007C139.47 7.50007 139.46 7.64007 139.46 7.78007M143.47 10.6001H142.78V9.71007H142.76C142.39 10.4101 141.81 10.7501 141.02 10.7401C140.26 10.7401 139.69 10.4501 139.3 9.89007C138.91 9.33007 138.72 8.63007 138.72 7.79007C138.72 6.93007 138.89 6.22007 139.26 5.67007C139.62 5.13007 140.21 4.86007 141.02 4.84007C141.28 4.84007 141.52 4.88007 141.74 4.96007C141.84 5.00007 141.94 5.04007 142.02 5.10007C142.1 5.16007 142.19 5.21007 142.26 5.27007C142.55 5.52007 142.71 5.74007 142.75 5.92007H142.77V2.32007H143.46V10.6001H143.47Z" fill="#80152A"/>
<path d="M146.42 7.78008C146.42 8.35008 146.54 8.85008 146.79 9.29008C147.05 9.75008 147.46 9.99008 148.03 10.0001C148.65 10.0001 149.09 9.75008 149.36 9.27008C149.61 8.82008 149.73 8.33008 149.73 7.78008C149.73 7.09008 149.61 6.53008 149.38 6.09008C149.14 5.66008 148.7 5.44008 148.07 5.43008C147.74 5.43008 147.47 5.50008 147.27 5.64008C147.06 5.77008 146.89 5.95008 146.76 6.19008C146.64 6.41008 146.56 6.66008 146.5 6.94008C146.47 7.08008 146.45 7.22008 146.44 7.36008C146.43 7.50008 146.42 7.64008 146.42 7.78008ZM150.42 10.1401C150.42 10.9401 150.23 11.6001 149.84 12.1501C149.43 12.7001 148.75 12.9801 147.8 12.9901C147.62 12.9901 147.44 12.9701 147.27 12.9501C147.1 12.9301 146.94 12.9001 146.79 12.8701C146.64 12.8301 146.51 12.8001 146.4 12.7701C146.29 12.7401 146.19 12.7201 146.11 12.6901L146.16 11.9901C146.62 12.2501 147.17 12.3801 147.8 12.3901C148.25 12.3701 148.6 12.2901 148.85 12.1501C149.11 12.0001 149.31 11.8001 149.43 11.5301C149.57 11.2601 149.65 10.9501 149.68 10.6201C149.7 10.4501 149.71 10.2701 149.71 10.0801C149.71 9.89008 149.72 9.70008 149.72 9.50008H149.7C149.3 10.2501 148.74 10.6201 148 10.6001C147.12 10.5801 146.51 10.2601 146.16 9.65008C146.06 9.51008 145.99 9.37008 145.92 9.21008C145.86 9.06008 145.81 8.90008 145.77 8.74008C145.68 8.42008 145.64 8.10008 145.64 7.78008C145.64 6.92008 145.81 6.21008 146.18 5.66008C146.54 5.12008 147.13 4.85008 147.94 4.83008C148.3 4.83008 148.62 4.87008 148.91 4.95008C149.17 5.05008 149.43 5.26008 149.69 5.60008H149.71V4.96008H150.4V10.1301L150.42 10.1401Z" fill="#80152A"/>
<path d="M156.36 7.39008C156.36 6.88008 156.25 6.43008 156.04 6.04008C155.8 5.64008 155.44 5.44008 154.93 5.43008C154.43 5.43008 154.03 5.64008 153.73 6.05008C153.43 6.45008 153.28 6.90008 153.28 7.39008H156.35H156.36ZM156.7 10.4201C156.18 10.6101 155.64 10.7101 155.08 10.7301C154.17 10.7201 153.51 10.4301 153.12 9.88008C152.72 9.33008 152.53 8.64008 152.54 7.78008C152.55 6.90008 152.77 6.19008 153.2 5.65008C153.61 5.12008 154.18 4.85008 154.9 4.83008C155.68 4.85008 156.24 5.12008 156.61 5.66008C156.95 6.20008 157.12 6.85008 157.12 7.63008V7.98008H153.29C153.29 8.60008 153.45 9.10008 153.76 9.49008C154.07 9.90008 154.52 10.1101 155.13 10.1301C155.42 10.1301 155.7 10.0801 155.99 9.99008C156.13 9.95008 156.27 9.91008 156.39 9.86008C156.51 9.81008 156.62 9.76008 156.7 9.71008V10.4201Z" fill="#80152A"/>
<path d="M159.28 6.29009C159.28 6.08009 159.28 5.86009 159.27 5.64009C159.27 5.42009 159.25 5.19009 159.24 4.97009H159.91V5.98009H159.93C160 5.85009 160.07 5.72009 160.16 5.58009C160.25 5.45009 160.36 5.33009 160.49 5.22009C160.63 5.10009 160.8 5.01009 161 4.94009C161.2 4.87009 161.45 4.84009 161.73 4.84009C162.42 4.86009 162.92 5.06009 163.21 5.46009C163.49 5.86009 163.64 6.37009 163.64 7.01009V10.6101H162.95V7.19009C162.95 6.66009 162.85 6.23009 162.66 5.91009C162.46 5.62009 162.11 5.46009 161.63 5.45009C161.03 5.45009 160.59 5.68009 160.34 6.11009C160.22 6.30009 160.13 6.52009 160.07 6.76009C160.01 7.02009 159.98 7.26009 159.98 7.50009V10.6101H159.29V6.30009L159.28 6.29009Z" fill="#80152A"/>
<path d="M166.57 7.78009C166.57 8.45009 166.73 9.00009 167.05 9.44009C167.36 9.89009 167.81 10.1201 168.42 10.1301C169.03 10.1201 169.5 9.88009 169.81 9.44009C170.12 9.01009 170.27 8.46009 170.27 7.78009C170.27 7.10009 170.12 6.56009 169.81 6.10009C169.49 5.67009 169.03 5.44009 168.42 5.43009C167.81 5.44009 167.36 5.67009 167.05 6.10009C166.73 6.56009 166.57 7.12009 166.57 7.78009ZM165.81 7.78009C165.81 6.97009 166.02 6.29009 166.45 5.73009C166.87 5.15009 167.53 4.85009 168.42 4.84009C169.32 4.84009 169.98 5.14009 170.42 5.73009C170.83 6.30009 171.03 6.98009 171.03 7.78009C171.03 8.58009 170.83 9.24009 170.42 9.82009C169.99 10.4201 169.32 10.7201 168.42 10.7201C167.53 10.7201 166.88 10.4101 166.45 9.82009C166.02 9.25009 165.81 8.57009 165.81 7.78009Z" fill="#80152A"/>
<path d="M172.75 9.78008C173.17 10.0001 173.65 10.1201 174.21 10.1301C174.56 10.1301 174.85 10.0401 175.09 9.85008C175.32 9.69008 175.44 9.45008 175.45 9.12008C175.44 8.78008 175.3 8.52008 175.05 8.34008C174.78 8.15008 174.47 7.98008 174.12 7.84008C174.04 7.80008 173.96 7.76008 173.88 7.72008L173.64 7.59008C173.5 7.51008 173.35 7.41008 173.2 7.29008C173.14 7.23008 173.08 7.17008 173.03 7.10008C172.98 7.03008 172.93 6.96008 172.89 6.88008C172.81 6.73008 172.77 6.56008 172.77 6.36008C172.79 5.79008 172.97 5.39008 173.34 5.17008C173.7 4.94008 174.11 4.83008 174.59 4.83008C174.67 4.83008 174.76 4.83008 174.87 4.84008C174.98 4.84008 175.09 4.86008 175.22 4.88008C175.49 4.92008 175.74 4.99008 175.98 5.09008L175.92 5.70008C175.51 5.53008 175.1 5.44008 174.68 5.44008C174.31 5.44008 174.03 5.51008 173.82 5.64008C173.7 5.71008 173.62 5.81008 173.57 5.92008C173.5 6.05008 173.47 6.20008 173.47 6.38008C173.47 6.50008 173.51 6.61008 173.59 6.71008C173.66 6.81008 173.77 6.89008 173.91 6.98008C173.98 7.02008 174.05 7.05008 174.12 7.10008C174.2 7.14008 174.28 7.18008 174.36 7.22008C174.44 7.26008 174.52 7.29008 174.61 7.34008C174.69 7.38008 174.78 7.42008 174.86 7.47008C175.21 7.62008 175.53 7.83008 175.81 8.09008C176.07 8.34008 176.21 8.70008 176.23 9.16008C176.23 9.46008 176.17 9.71008 176.05 9.90008C175.93 10.1001 175.77 10.2601 175.58 10.4001C175.17 10.6401 174.74 10.7601 174.28 10.7601C173.74 10.7601 173.22 10.6701 172.71 10.4901L172.78 9.81008L172.75 9.78008Z" fill="#80152A"/>
<path d="M177.87 9.78008C178.29 10.0001 178.77 10.1201 179.33 10.1301C179.68 10.1301 179.97 10.0401 180.21 9.85008C180.44 9.69008 180.56 9.45008 180.57 9.12008C180.55 8.78008 180.42 8.52008 180.16 8.34008C179.89 8.15008 179.58 7.98008 179.23 7.84008C179.15 7.80008 179.07 7.76008 178.99 7.72008L178.75 7.59008C178.61 7.51008 178.47 7.41008 178.31 7.29008C178.25 7.23008 178.19 7.17008 178.14 7.10008C178.08 7.03008 178.04 6.96008 178 6.88008C177.92 6.73008 177.88 6.56008 177.88 6.36008C177.89 5.79008 178.08 5.39008 178.45 5.17008C178.81 4.94008 179.23 4.83008 179.7 4.83008C179.78 4.83008 179.87 4.83008 179.98 4.84008C180.09 4.84008 180.2 4.86008 180.33 4.88008C180.6 4.92008 180.85 4.99008 181.09 5.09008L181.02 5.70008C180.61 5.53008 180.2 5.44008 179.78 5.44008C179.41 5.44008 179.13 5.51008 178.92 5.64008C178.8 5.71008 178.72 5.81008 178.67 5.92008C178.6 6.05008 178.57 6.20008 178.57 6.38008C178.57 6.50008 178.61 6.61008 178.69 6.71008C178.76 6.81008 178.87 6.89008 179.01 6.98008C179.08 7.02008 179.15 7.05008 179.22 7.10008C179.3 7.14008 179.38 7.18008 179.46 7.22008C179.54 7.26008 179.62 7.29008 179.71 7.34008C179.79 7.38008 179.88 7.42008 179.96 7.47008C180.31 7.62008 180.63 7.83008 180.92 8.09008C181.18 8.34008 181.32 8.70008 181.34 9.16008C181.34 9.46008 181.28 9.71008 181.16 9.90008C181.04 10.1001 180.89 10.2601 180.69 10.4001C180.28 10.6401 179.84 10.7601 179.38 10.7601C178.84 10.7601 178.32 10.6701 177.81 10.4901L177.88 9.81008L177.87 9.78008Z" fill="#80152A"/>
<path d="M186.84 7.39008C186.84 6.88008 186.73 6.43008 186.52 6.04008C186.28 5.64008 185.92 5.44008 185.41 5.43008C184.91 5.43008 184.51 5.64008 184.21 6.05008C183.91 6.45008 183.76 6.90008 183.76 7.39008H186.83H186.84ZM187.18 10.4201C186.66 10.6101 186.12 10.7101 185.56 10.7301C184.65 10.7201 183.99 10.4301 183.6 9.88008C183.2 9.33008 183.01 8.64008 183.02 7.78008C183.04 6.90008 183.26 6.19008 183.68 5.65008C184.09 5.12008 184.66 4.85008 185.38 4.83008C186.16 4.85008 186.72 5.12008 187.09 5.66008C187.43 6.20008 187.6 6.85008 187.6 7.63008V7.98008H183.77C183.77 8.60008 183.93 9.10008 184.24 9.49008C184.55 9.90008 185 10.1101 185.61 10.1301C185.9 10.1301 186.18 10.0801 186.47 9.99008C186.62 9.95008 186.75 9.91008 186.87 9.86008C186.99 9.81008 187.1 9.76008 187.18 9.71008V10.4201Z" fill="#80152A"/>
<path d="M189.76 6.29009C189.76 6.08009 189.76 5.86009 189.75 5.64009C189.75 5.42009 189.73 5.19009 189.72 4.97009H190.39V5.98009H190.41C190.47 5.85009 190.55 5.72009 190.64 5.58009C190.73 5.45009 190.84 5.33009 190.97 5.22009C191.11 5.10009 191.28 5.01009 191.48 4.94009C191.68 4.87009 191.93 4.84009 192.21 4.84009C192.9 4.86009 193.4 5.06009 193.69 5.46009C193.97 5.86009 194.12 6.37009 194.12 7.01009V10.6101H193.43V7.19009C193.43 6.66009 193.33 6.23009 193.14 5.91009C192.94 5.62009 192.59 5.46009 192.11 5.45009C191.51 5.45009 191.07 5.68009 190.82 6.11009C190.7 6.30009 190.61 6.52009 190.55 6.76009C190.49 7.02009 190.46 7.26009 190.46 7.50009V10.6101H189.77V6.30009L189.76 6.29009Z" fill="#80152A"/>
<path d="M196.28 9.78008C196.7 10.0001 197.18 10.1201 197.74 10.1301C198.09 10.1301 198.38 10.0401 198.62 9.85008C198.85 9.69008 198.97 9.45008 198.98 9.12008C198.96 8.78008 198.83 8.52008 198.57 8.34008C198.3 8.15008 197.99 7.98008 197.64 7.84008C197.56 7.80008 197.48 7.76008 197.4 7.72008L197.16 7.59008C197.02 7.51008 196.88 7.41008 196.72 7.29008C196.66 7.23008 196.6 7.17008 196.55 7.10008C196.49 7.03008 196.45 6.96008 196.41 6.88008C196.33 6.73008 196.29 6.56008 196.29 6.36008C196.3 5.79008 196.49 5.39008 196.86 5.17008C197.22 4.94008 197.64 4.83008 198.11 4.83008C198.19 4.83008 198.28 4.83008 198.39 4.84008C198.5 4.84008 198.61 4.86008 198.73 4.88008C199 4.92008 199.25 4.99008 199.49 5.09008L199.42 5.70008C199.01 5.53008 198.6 5.44008 198.18 5.44008C197.81 5.44008 197.53 5.51008 197.32 5.64008C197.2 5.71008 197.12 5.81008 197.07 5.92008C197 6.05008 196.97 6.20008 196.97 6.38008C196.97 6.50008 197.01 6.61008 197.09 6.71008C197.16 6.81008 197.27 6.89008 197.41 6.98008C197.48 7.02008 197.55 7.05008 197.62 7.10008C197.7 7.14008 197.78 7.18008 197.86 7.22008C197.94 7.26008 198.02 7.29008 198.11 7.34008C198.19 7.38008 198.28 7.42008 198.36 7.47008C198.71 7.62008 199.03 7.83008 199.32 8.09008C199.58 8.34008 199.72 8.70008 199.74 9.16008C199.74 9.46008 199.68 9.71008 199.56 9.90008C199.44 10.1001 199.29 10.2601 199.09 10.4001C198.68 10.6401 198.24 10.7601 197.78 10.7601C197.24 10.7601 196.72 10.6701 196.21 10.4901L196.28 9.81008V9.78008Z" fill="#80152A"/>
<path d="M205.47 5.72009C205.09 5.54009 204.69 5.45009 204.27 5.43009C203.6 5.45009 203.08 5.66009 202.72 6.08009C202.35 6.52009 202.16 7.08009 202.16 7.78009C202.16 8.43009 202.34 8.98009 202.71 9.42009C203.07 9.88009 203.56 10.1101 204.19 10.1301C204.61 10.1301 205.03 10.0501 205.45 9.88009L205.52 10.5301C205.07 10.6801 204.59 10.7401 204.08 10.7301C203.18 10.7301 202.51 10.4301 202.07 9.84009C201.62 9.28009 201.4 8.60009 201.4 7.79009C201.42 6.89009 201.67 6.18009 202.17 5.66009C202.66 5.13009 203.33 4.86009 204.17 4.84009C204.53 4.84009 204.81 4.87009 205.03 4.92009C205.14 4.94009 205.24 4.96009 205.34 4.99009C205.38 5.00009 205.41 5.02009 205.45 5.03009C205.48 5.04009 205.51 5.05009 205.53 5.07009L205.48 5.73009L205.47 5.72009Z" fill="#80152A"/>
<path d="M207.55 2.32007H208.24V5.92007H208.26C208.41 5.62007 208.63 5.36007 208.94 5.14007C209.23 4.96007 209.59 4.86007 210 4.84007C210.74 4.84007 211.24 5.07007 211.52 5.50007C211.78 5.95007 211.91 6.53007 211.9 7.23007V10.6001H211.21V7.24007C211.21 7.11007 211.21 6.99007 211.2 6.88007C211.2 6.76007 211.18 6.65007 211.17 6.54007C211.15 6.44007 211.13 6.34007 211.1 6.24007C211.07 6.14007 211.03 6.06007 210.98 5.97007C210.8 5.62007 210.44 5.44007 209.89 5.43007C209.28 5.45007 208.86 5.68007 208.61 6.13007C208.35 6.59007 208.23 7.08007 208.24 7.59007V10.6001H207.55V2.32007Z" fill="#80152A"/>
<path d="M217.65 7.76008H217.45C217.3 7.76008 217.16 7.76008 217 7.76008C216.85 7.76008 216.7 7.76008 216.55 7.78008C216.39 7.79008 216.24 7.82008 216.1 7.85008C215.96 7.88008 215.82 7.92008 215.7 7.97008C215.44 8.06008 215.23 8.19008 215.09 8.38008C214.92 8.57008 214.84 8.82008 214.84 9.12008C214.84 9.48008 214.96 9.74008 215.19 9.89008C215.4 10.0501 215.67 10.1301 216 10.1301C216.41 10.1301 216.73 10.0501 216.95 9.89008C217.18 9.73008 217.34 9.55008 217.44 9.34008C217.56 9.10008 217.62 8.87008 217.62 8.67008C217.62 8.55008 217.63 8.45008 217.64 8.36008C217.64 8.27008 217.64 8.19008 217.64 8.11008V7.77008L217.65 7.76008ZM217.72 9.69008H217.7C217.53 10.0201 217.29 10.2801 216.96 10.4501C216.64 10.6201 216.29 10.7101 215.92 10.7301C215.52 10.7101 215.21 10.6501 214.98 10.5401C214.74 10.4401 214.55 10.3001 214.41 10.1201C214.18 9.75008 214.07 9.43008 214.08 9.14008C214.08 8.67008 214.19 8.30008 214.42 8.03008C214.63 7.76008 214.91 7.57008 215.27 7.44008C215.44 7.38008 215.61 7.33008 215.8 7.29008C215.99 7.25008 216.18 7.22008 216.39 7.20008C216.78 7.18008 217.16 7.16008 217.53 7.16008H217.66V6.87008C217.68 5.91008 217.26 5.43008 216.39 5.43008C215.8 5.43008 215.26 5.58008 214.75 5.89008V5.22008C215.27 4.97008 215.82 4.84008 216.39 4.83008C217.7 4.83008 218.36 5.52008 218.35 6.93008V9.41008C218.35 9.62008 218.35 9.83008 218.35 10.0201C218.36 10.2201 218.38 10.4101 218.4 10.5901H217.72V9.68008V9.69008Z" fill="#80152A"/>
<path d="M221.31 5.56994H220.18V4.96994H221.31V4.55994C221.31 4.40994 221.31 4.26994 221.32 4.11994C221.32 3.96994 221.34 3.82994 221.35 3.67994C221.36 3.39994 221.42 3.14994 221.51 2.92994C221.61 2.68994 221.76 2.51994 221.96 2.38994C222.16 2.25994 222.43 2.18994 222.78 2.18994H222.95C223.02 2.18994 223.08 2.18994 223.14 2.19994C223.26 2.21994 223.36 2.25994 223.42 2.29994L223.38 2.90994C223.22 2.82994 223.04 2.78994 222.83 2.78994C222.61 2.78994 222.44 2.83994 222.31 2.93994C222.19 3.06994 222.1 3.20994 222.06 3.36994C222.02 3.53994 222 3.71994 222 3.90994C222 4.00994 221.99 4.10994 221.99 4.20994V4.96994H223.25V5.56994H221.99V10.5999H221.3V5.56994H221.31Z" fill="#80152A"/>
<path d="M227.76 5.57012H226.49V9.21012C226.49 9.47012 226.55 9.69012 226.67 9.86012C226.78 10.0401 226.97 10.1401 227.24 10.1401C227.49 10.1401 227.7 10.1001 227.88 10.0101L227.92 10.5801C227.85 10.6101 227.74 10.6401 227.58 10.6801C227.41 10.7201 227.24 10.7401 227.08 10.7401C226.79 10.7401 226.55 10.6901 226.37 10.5901C226.21 10.5001 226.08 10.3601 225.99 10.1801C225.92 10.0101 225.87 9.81012 225.85 9.58012C225.83 9.36012 225.81 9.12012 225.81 8.86012V5.57012H224.71V4.97012H225.81V3.61012L226.5 3.37012V4.97012H227.77V5.57012H227.76Z" fill="#80152A"/>
<path d="M49.08 18.98C48.84 18.85 48.56 18.76 48.26 18.71C48.1 18.69 47.95 18.68 47.8 18.67C47.65 18.66 47.51 18.65 47.37 18.65C46.38 18.65 45.62 18.97 45.08 19.59C44.54 20.2 44.27 21 44.27 21.98C44.27 22.96 44.54 23.76 45.07 24.36C45.6 24.97 46.36 25.28 47.37 25.3C47.5 25.3 47.64 25.3 47.79 25.28C47.94 25.27 48.09 25.25 48.26 25.22C48.57 25.18 48.84 25.09 49.08 24.96L49.12 25.62C49 25.68 48.87 25.73 48.74 25.77C48.6 25.81 48.45 25.84 48.28 25.87C48.11 25.9 47.95 25.92 47.8 25.93C47.65 25.94 47.5 25.95 47.37 25.95C46.16 25.95 45.21 25.57 44.54 24.85C43.85 24.14 43.51 23.18 43.51 21.97C43.53 20.77 43.87 19.81 44.55 19.09C45.24 18.36 46.18 17.99 47.37 17.99C47.49 17.99 47.63 17.99 47.78 18.01C47.93 18.02 48.1 18.03 48.28 18.05C48.64 18.09 48.92 18.17 49.13 18.28L49.09 18.98H49.08Z" fill="#80152A"/>
<path d="M51.98 23.0101C51.98 23.6801 52.14 24.2301 52.46 24.6601C52.77 25.1101 53.22 25.3401 53.83 25.3601C54.44 25.3401 54.91 25.1101 55.22 24.6601C55.53 24.2301 55.68 23.6801 55.68 23.0101C55.68 22.3401 55.53 21.7901 55.22 21.3301C54.9 20.9001 54.44 20.6701 53.83 20.6601C53.22 20.6801 52.77 20.9001 52.46 21.3301C52.14 21.7901 51.98 22.3501 51.98 23.0101ZM51.22 23.0101C51.22 22.2001 51.43 21.5201 51.86 20.9601C52.28 20.3801 52.94 20.0801 53.83 20.0701C54.73 20.0701 55.39 20.3701 55.83 20.9601C56.24 21.5301 56.44 22.2101 56.44 23.0101C56.44 23.8101 56.24 24.4701 55.83 25.0501C55.4 25.6501 54.73 25.9501 53.83 25.9501C52.94 25.9501 52.29 25.6401 51.86 25.0501C51.43 24.4801 51.22 23.8001 51.22 23.0101Z" fill="#80152A"/>
<path d="M58.6001 21.5201C58.6001 21.3101 58.6001 21.0901 58.5901 20.8701C58.5901 20.6501 58.5701 20.4201 58.5601 20.2001H59.2301V21.2101H59.2501C59.3201 21.0801 59.3901 20.9501 59.4801 20.8101C59.5701 20.6801 59.6801 20.5601 59.8101 20.4501C59.9501 20.3301 60.1201 20.2401 60.3201 20.1701C60.5201 20.1001 60.7701 20.0701 61.0501 20.0701C61.7401 20.0901 62.2401 20.2901 62.5301 20.6901C62.8201 21.0901 62.9601 21.6001 62.9601 22.2401V25.8401H62.2701V22.4201C62.2701 21.8901 62.1701 21.4601 61.9701 21.1401C61.7701 20.8501 61.4201 20.6901 60.9401 20.6801C60.3401 20.6801 59.9001 20.9101 59.6501 21.3401C59.5301 21.5301 59.4401 21.7501 59.3801 21.9901C59.3201 22.2501 59.2901 22.4901 59.2901 22.7301V25.8401H58.6001V21.5301V21.5201Z" fill="#80152A"/>
<path d="M66.02 20.7899H64.89V20.1899H66.02V19.7799C66.02 19.6299 66.02 19.4899 66.03 19.3399C66.03 19.1899 66.05 19.0499 66.06 18.8999C66.07 18.6199 66.13 18.3699 66.22 18.1499C66.32 17.9099 66.47 17.7399 66.67 17.6099C66.87 17.4799 67.14 17.4099 67.49 17.4099H67.67C67.73 17.4099 67.8 17.4099 67.86 17.4199C67.98 17.4399 68.08 17.4799 68.14 17.5199L68.1 18.1299C67.94 18.0499 67.76 18.0099 67.55 18.0099C67.33 18.0099 67.16 18.0599 67.03 18.1599C66.91 18.2899 66.82 18.4299 66.78 18.5899C66.74 18.7599 66.72 18.9399 66.72 19.1299C66.72 19.2299 66.71 19.3299 66.71 19.4299V20.1899H67.97V20.7899H66.71V25.8199H66.02V20.7899Z" fill="#80152A"/>
<path d="M72.35 18H73.22L71.84 19.59H71.34L72.36 18H72.35ZM73.46 22.62C73.46 22.11 73.35 21.66 73.14 21.27C72.91 20.87 72.54 20.67 72.03 20.66C71.53 20.66 71.13 20.87 70.83 21.28C70.53 21.68 70.38 22.13 70.38 22.61H73.45L73.46 22.62ZM73.81 25.65C73.29 25.84 72.75 25.94 72.19 25.96C71.28 25.95 70.62 25.66 70.23 25.11C69.83 24.56 69.64 23.87 69.65 23.01C69.66 22.13 69.88 21.42 70.31 20.88C70.72 20.35 71.29 20.08 72.01 20.06C72.79 20.08 73.35 20.35 73.72 20.89C74.06 21.43 74.23 22.08 74.23 22.86V23.21H70.4C70.4 23.83 70.56 24.33 70.87 24.72C71.18 25.13 71.63 25.34 72.24 25.36C72.52 25.36 72.81 25.31 73.09 25.22C73.24 25.18 73.37 25.14 73.49 25.09C73.61 25.04 73.71 24.99 73.8 24.94V25.65H73.81Z" fill="#80152A"/>
<path d="M76.8199 23.01C76.8199 23.29 76.8499 23.56 76.8899 23.82C76.9499 24.11 77.0399 24.36 77.1499 24.59C77.2699 24.8 77.45 24.98 77.66 25.13C77.86 25.29 78.1299 25.3601 78.4599 25.3601C78.7699 25.3601 79.0299 25.28 79.2499 25.13C79.4499 24.99 79.6199 24.8 79.7599 24.57C80.0099 24.08 80.1299 23.56 80.1199 23.01C80.1199 22.88 80.1199 22.7401 80.0999 22.6101C80.0899 22.4701 80.0699 22.3401 80.0399 22.2001C79.9899 21.9401 79.8899 21.6901 79.7599 21.4501C79.6199 21.2001 79.4499 21.01 79.2599 20.88C79.0499 20.74 78.7799 20.67 78.4699 20.67C78.1599 20.67 77.8699 20.74 77.6699 20.88C77.4599 21.01 77.2899 21.19 77.1499 21.43C77.0299 21.65 76.9499 21.9 76.8899 22.18C76.8599 22.32 76.8399 22.46 76.8299 22.6C76.8199 22.74 76.8099 22.8801 76.8099 23.0201M80.8199 25.83H80.1299V24.9401H80.1099C79.7399 25.6401 79.1599 25.98 78.3699 25.97C77.6099 25.97 77.0399 25.6801 76.6499 25.1201C76.2599 24.5601 76.0699 23.8601 76.0699 23.0201C76.0699 22.1601 76.2399 21.45 76.6099 20.9C76.9699 20.36 77.5499 20.09 78.3699 20.07C78.6299 20.07 78.8699 20.1101 79.0899 20.1901C79.1899 20.2301 79.2899 20.27 79.3799 20.33C79.4699 20.39 79.5499 20.44 79.6199 20.5C79.9099 20.75 80.0699 20.97 80.1099 21.15H80.1299V17.55H80.8199V25.83Z" fill="#80152A"/>
<path d="M85.6301 18H86.5001L85.1201 19.59H84.6201L85.6401 18H85.6301ZM86.7501 22.62C86.7501 22.11 86.6401 21.66 86.4301 21.27C86.1901 20.87 85.8301 20.67 85.3201 20.66C84.8201 20.66 84.4201 20.87 84.1201 21.28C83.8201 21.68 83.6701 22.13 83.6701 22.61H86.7401L86.7501 22.62ZM87.0901 25.65C86.5701 25.84 86.0301 25.94 85.4701 25.96C84.5601 25.95 83.9001 25.66 83.5101 25.11C83.1101 24.56 82.9201 23.87 82.9301 23.01C82.9401 22.13 83.1601 21.42 83.5901 20.88C84.0001 20.35 84.5701 20.08 85.2901 20.06C86.0701 20.08 86.6301 20.35 87.0001 20.89C87.3401 21.43 87.5101 22.08 87.5101 22.86V23.21H83.6801C83.6801 23.83 83.8401 24.33 84.1501 24.72C84.4601 25.13 84.9101 25.34 85.5201 25.36C85.8001 25.36 86.0901 25.31 86.3801 25.22C86.5301 25.18 86.6601 25.14 86.7801 25.09C86.9001 25.04 87.0101 24.99 87.0901 24.94V25.65Z" fill="#80152A"/>
<path d="M89.68 21.4601C89.68 21.2001 89.68 20.9701 89.67 20.7601C89.67 20.5501 89.65 20.3701 89.64 20.2001H90.33V21.2801H90.35C90.48 20.9401 90.67 20.6601 90.91 20.4301C91.14 20.2001 91.43 20.0801 91.79 20.0701C91.96 20.0701 92.13 20.1001 92.27 20.1401V20.8701C92.12 20.8301 91.95 20.8001 91.77 20.8001C91.5 20.8001 91.28 20.8701 91.1 21.0001C90.92 21.1301 90.78 21.3101 90.67 21.5401C90.57 21.7701 90.49 22.0101 90.45 22.2601C90.4 22.5201 90.37 22.7801 90.37 23.0501V25.8301H89.68V21.4601Z" fill="#80152A"/>
<path d="M97.33 22.9901H97.13C96.98 22.9901 96.83 22.9901 96.68 22.9901C96.53 22.9901 96.38 22.9901 96.23 23.0101C96.07 23.0301 95.92 23.0501 95.78 23.0801C95.64 23.1101 95.5 23.1501 95.38 23.2001C95.12 23.2901 94.91 23.4201 94.77 23.6101C94.6 23.8001 94.52 24.0501 94.52 24.3501C94.52 24.7101 94.64 24.9701 94.87 25.1201C95.08 25.2801 95.35 25.3601 95.68 25.3601C96.09 25.3601 96.41 25.2801 96.63 25.1201C96.86 24.9601 97.02 24.7801 97.12 24.5701C97.24 24.3301 97.3 24.1001 97.31 23.9001C97.31 23.7801 97.32 23.6801 97.33 23.5901C97.34 23.5001 97.33 23.4201 97.33 23.3401V23.0001V22.9901ZM97.4 24.9201H97.38C97.21 25.2501 96.97 25.5101 96.64 25.6801C96.32 25.8501 95.97 25.9401 95.6 25.9601C95.2 25.9401 94.88 25.8801 94.66 25.7701C94.42 25.6701 94.23 25.5301 94.09 25.3501C93.86 24.9801 93.75 24.6601 93.76 24.3701C93.76 23.9001 93.87 23.5301 94.1 23.2601C94.31 22.9901 94.59 22.8001 94.95 22.6701C95.12 22.6101 95.3 22.5601 95.48 22.5201C95.67 22.4801 95.86 22.4501 96.07 22.4301C96.46 22.4101 96.84 22.3901 97.21 22.3901H97.34V22.1001C97.36 21.1401 96.94 20.6601 96.07 20.6601C95.49 20.6601 94.94 20.8101 94.43 21.1201V20.4501C94.95 20.2001 95.5 20.0701 96.07 20.0601C97.38 20.0601 98.04 20.7501 98.03 22.1601V24.6401C98.03 24.8601 98.03 25.0601 98.03 25.2501C98.04 25.4401 98.06 25.6301 98.08 25.8201H97.4V24.9101V24.9201Z" fill="#80152A"/>
<path d="M102.93 20.7901H101.66V24.4301C101.66 24.6901 101.72 24.9101 101.83 25.0801C101.94 25.2601 102.13 25.3601 102.4 25.3601C102.65 25.3601 102.86 25.3201 103.04 25.2301L103.08 25.8001C103.02 25.8301 102.9 25.8601 102.74 25.9001C102.57 25.9401 102.4 25.9601 102.24 25.9601C101.95 25.9601 101.71 25.9101 101.53 25.8101C101.37 25.7201 101.24 25.5801 101.15 25.4001C101.08 25.2301 101.03 25.0301 101.01 24.8001C100.99 24.5801 100.98 24.3401 100.98 24.0801V20.7901H99.88V20.1901H100.98V18.8301L101.67 18.5901V20.1901H102.94V20.7901H102.93Z" fill="#80152A"/>
<path d="M105.03 25.83H105.72V20.2H105.03V25.83ZM105.03 18.7H105.72V17.77H105.03V18.7Z" fill="#80152A"/>
<path d="M108.65 23.0101C108.65 23.6801 108.81 24.2301 109.13 24.6601C109.44 25.1101 109.89 25.3401 110.5 25.3601C111.11 25.3401 111.58 25.1101 111.89 24.6601C112.2 24.2301 112.35 23.6801 112.35 23.0101C112.35 22.3401 112.2 21.7901 111.89 21.3301C111.57 20.9001 111.11 20.6701 110.5 20.6601C109.89 20.6801 109.44 20.9001 109.13 21.3301C108.81 21.7901 108.65 22.3501 108.65 23.0101ZM107.89 23.0101C107.89 22.2001 108.1 21.5201 108.53 20.9601C108.95 20.3801 109.61 20.0801 110.5 20.0701C111.4 20.0701 112.06 20.3701 112.5 20.9601C112.91 21.5301 113.11 22.2101 113.11 23.0101C113.11 23.8101 112.91 24.4701 112.5 25.0501C112.07 25.6501 111.4 25.9501 110.5 25.9501C109.61 25.9501 108.96 25.6401 108.53 25.0501C108.1 24.4801 107.89 23.8001 107.89 23.0101Z" fill="#80152A"/>
<path d="M115.27 21.5201C115.27 21.3101 115.27 21.0901 115.26 20.8701C115.26 20.6501 115.24 20.4201 115.23 20.2001H115.9V21.2101H115.92C115.98 21.0801 116.06 20.9501 116.15 20.8101C116.24 20.6801 116.35 20.5601 116.48 20.4501C116.62 20.3301 116.79 20.2401 116.99 20.1701C117.19 20.1001 117.44 20.0701 117.72 20.0701C118.41 20.0901 118.91 20.2901 119.2 20.6901C119.48 21.0901 119.63 21.6001 119.63 22.2401V25.8401H118.94V22.4201C118.94 21.8901 118.84 21.4601 118.65 21.1401C118.45 20.8501 118.1 20.6901 117.62 20.6801C117.02 20.6801 116.58 20.9101 116.33 21.3401C116.21 21.5301 116.12 21.7501 116.06 21.9901C116 22.2501 115.97 22.4901 115.97 22.7301V25.8401H115.28V21.5301L115.27 21.5201Z" fill="#80152A"/>
<path d="M125.58 25.0101C126 25.2301 126.48 25.3501 127.04 25.3601C127.39 25.3601 127.68 25.2701 127.92 25.0801C128.15 24.9201 128.27 24.6801 128.28 24.3501C128.27 24.0101 128.13 23.7501 127.88 23.5701C127.61 23.3801 127.3 23.2101 126.95 23.0701C126.87 23.0301 126.79 22.9901 126.71 22.9501L126.47 22.8201C126.33 22.7401 126.18 22.6401 126.03 22.5201C125.97 22.4601 125.91 22.4001 125.86 22.3301C125.81 22.2601 125.76 22.1901 125.72 22.1101C125.64 21.9601 125.6 21.7901 125.6 21.5901C125.62 21.0201 125.8 20.6201 126.17 20.4001C126.53 20.1701 126.94 20.0601 127.42 20.0601C127.5 20.0601 127.59 20.0601 127.7 20.0701C127.81 20.0701 127.92 20.0901 128.05 20.1101C128.32 20.1501 128.57 20.2201 128.81 20.3201L128.75 20.9301C128.34 20.7601 127.93 20.6701 127.51 20.6701C127.14 20.6701 126.86 20.7401 126.65 20.8701C126.53 20.9401 126.45 21.0401 126.4 21.1501C126.33 21.2801 126.3 21.4301 126.3 21.6101C126.3 21.7301 126.34 21.8401 126.42 21.9401C126.49 22.0401 126.6 22.1201 126.74 22.2101C126.81 22.2501 126.88 22.2801 126.95 22.3301C127.03 22.3701 127.11 22.4101 127.19 22.4501C127.27 22.4901 127.35 22.5201 127.44 22.5701C127.52 22.6101 127.61 22.6501 127.69 22.7001C128.04 22.8501 128.36 23.0601 128.64 23.3201C128.9 23.5701 129.04 23.9301 129.06 24.3901C129.06 24.6901 129 24.9401 128.88 25.1301C128.76 25.3301 128.6 25.5001 128.41 25.6301C128 25.8701 127.57 25.9901 127.11 25.9901C126.57 25.9901 126.05 25.9001 125.54 25.7201L125.61 25.0401L125.58 25.0101Z" fill="#80152A"/>
<path d="M135.49 24.4999C135.49 24.7099 135.49 24.9299 135.49 25.1499C135.5 25.3699 135.52 25.5999 135.53 25.8199H134.86V24.8099H134.84L134.74 24.9999C134.71 25.0699 134.67 25.1299 134.63 25.1899C134.54 25.3199 134.43 25.4499 134.29 25.5699C134.14 25.6899 133.97 25.7799 133.78 25.8399C133.56 25.9199 133.31 25.9599 133.03 25.9599C132.34 25.9399 131.85 25.7399 131.56 25.3399C131.26 24.9399 131.11 24.4199 131.12 23.7899V20.1899H131.81V23.6099C131.81 24.1499 131.92 24.5699 132.13 24.8699C132.34 25.1899 132.68 25.3599 133.14 25.3599C133.45 25.3599 133.72 25.2899 133.94 25.1599C134.15 25.0399 134.32 24.8799 134.44 24.6799C134.56 24.4799 134.65 24.2599 134.71 24.0199C134.74 23.8999 134.76 23.7799 134.77 23.6699C134.78 23.5499 134.79 23.4299 134.79 23.3199V20.2099H135.48V24.5199L135.49 24.4999Z" fill="#80152A"/>
<path d="M138.08 25.83H138.77V20.2H138.08V25.83ZM138.08 18.7H138.77V17.77H138.08V18.7Z" fill="#80152A"/>
<path d="M140.94 25.0101C141.36 25.2301 141.84 25.3501 142.4 25.3601C142.75 25.3601 143.04 25.2701 143.28 25.0801C143.51 24.9201 143.63 24.6801 143.64 24.3501C143.63 24.0101 143.49 23.7501 143.24 23.5701C142.97 23.3801 142.66 23.2101 142.31 23.0701C142.23 23.0301 142.15 22.9901 142.07 22.9501L141.83 22.8201C141.69 22.7401 141.54 22.6401 141.39 22.5201C141.33 22.4601 141.27 22.4001 141.22 22.3301C141.17 22.2601 141.12 22.1901 141.08 22.1101C141 21.9601 140.96 21.7901 140.96 21.5901C140.98 21.0201 141.16 20.6201 141.53 20.4001C141.89 20.1701 142.3 20.0601 142.78 20.0601C142.86 20.0601 142.95 20.0601 143.06 20.0701C143.17 20.0701 143.28 20.0901 143.41 20.1101C143.68 20.1501 143.93 20.2201 144.17 20.3201L144.11 20.9301C143.7 20.7601 143.29 20.6701 142.87 20.6701C142.5 20.6701 142.22 20.7401 142.01 20.8701C141.89 20.9401 141.81 21.0401 141.76 21.1501C141.69 21.2801 141.66 21.4301 141.66 21.6101C141.66 21.7301 141.7 21.8401 141.78 21.9401C141.85 22.0401 141.96 22.1201 142.1 22.2101C142.17 22.2501 142.24 22.2801 142.31 22.3301C142.39 22.3701 142.47 22.4101 142.55 22.4501C142.63 22.4901 142.71 22.5201 142.8 22.5701C142.88 22.6101 142.97 22.6501 143.05 22.7001C143.4 22.8501 143.72 23.0601 144 23.3201C144.26 23.5701 144.4 23.9301 144.42 24.3901C144.42 24.6901 144.36 24.9401 144.24 25.1301C144.12 25.3301 143.96 25.5001 143.77 25.6301C143.36 25.8701 142.93 25.9901 142.47 25.9901C141.93 25.9901 141.41 25.9001 140.9 25.7201L140.97 25.0401L140.94 25.0101Z" fill="#80152A"/>
<path d="M146.06 25.0101C146.48 25.2301 146.96 25.3501 147.52 25.3601C147.87 25.3601 148.16 25.2701 148.4 25.0801C148.63 24.9201 148.75 24.6801 148.76 24.3501C148.75 24.0101 148.61 23.7501 148.36 23.5701C148.09 23.3801 147.78 23.2101 147.43 23.0701C147.35 23.0301 147.27 22.9901 147.19 22.9501L146.95 22.8201C146.81 22.7401 146.66 22.6401 146.51 22.5201C146.45 22.4601 146.39 22.4001 146.34 22.3301C146.29 22.2601 146.24 22.1901 146.2 22.1101C146.12 21.9601 146.08 21.7901 146.08 21.5901C146.1 21.0201 146.28 20.6201 146.65 20.4001C147.01 20.1701 147.42 20.0601 147.9 20.0601C147.98 20.0601 148.07 20.0601 148.18 20.0701C148.29 20.0701 148.4 20.0901 148.53 20.1101C148.8 20.1501 149.05 20.2201 149.29 20.3201L149.23 20.9301C148.82 20.7601 148.41 20.6701 147.99 20.6701C147.62 20.6701 147.34 20.7401 147.13 20.8701C147.01 20.9401 146.93 21.0401 146.88 21.1501C146.81 21.2801 146.78 21.4301 146.78 21.6101C146.78 21.7301 146.82 21.8401 146.9 21.9401C146.97 22.0401 147.08 22.1201 147.22 22.2101C147.29 22.2501 147.36 22.2801 147.43 22.3301C147.51 22.3701 147.59 22.4101 147.67 22.4501C147.75 22.4901 147.83 22.5201 147.92 22.5701C148 22.6101 148.09 22.6501 148.17 22.7001C148.52 22.8501 148.84 23.0601 149.12 23.3201C149.38 23.5701 149.52 23.9301 149.54 24.3901C149.54 24.6901 149.48 24.9401 149.36 25.1301C149.24 25.3301 149.08 25.5001 148.89 25.6301C148.48 25.8701 148.05 25.9901 147.59 25.9901C147.05 25.9901 146.53 25.9001 146.02 25.7201L146.09 25.0401L146.06 25.0101Z" fill="#80152A"/>
<path d="M155.02 22.6201C155.02 22.1101 154.91 21.6601 154.7 21.2701C154.46 20.8701 154.1 20.6701 153.59 20.6601C153.09 20.6601 152.69 20.8701 152.39 21.2801C152.09 21.6801 151.94 22.1301 151.94 22.6101H155.01L155.02 22.6201ZM155.36 25.6501C154.84 25.8401 154.3 25.9401 153.74 25.9601C152.83 25.9501 152.17 25.6601 151.78 25.1101C151.38 24.5601 151.19 23.8701 151.2 23.0101C151.22 22.1301 151.44 21.4201 151.86 20.8801C152.27 20.3501 152.84 20.0801 153.56 20.0601C154.34 20.0801 154.9 20.3501 155.27 20.8901C155.61 21.4301 155.78 22.0801 155.78 22.8601V23.2101H151.95C151.95 23.8301 152.11 24.3301 152.42 24.7201C152.73 25.1301 153.18 25.3401 153.79 25.3601C154.07 25.3601 154.36 25.3101 154.65 25.2201C154.8 25.1801 154.93 25.1401 155.05 25.0901C155.17 25.0401 155.28 24.9901 155.36 24.9401V25.6501Z" fill="#80152A"/>
<path d="M49.08 34.21C48.84 34.09 48.56 33.99 48.26 33.94C48.1 33.92 47.95 33.91 47.8 33.9C47.65 33.89 47.51 33.88 47.37 33.88C46.38 33.88 45.62 34.2 45.08 34.82C44.54 35.43 44.27 36.23 44.27 37.21C44.27 38.19 44.54 38.99 45.07 39.59C45.6 40.2 46.36 40.51 47.37 40.53C47.5 40.53 47.64 40.53 47.79 40.51C47.94 40.5 48.09 40.48 48.26 40.45C48.57 40.41 48.84 40.32 49.08 40.19L49.12 40.86C49 40.92 48.87 40.97 48.74 41.01C48.6 41.05 48.45 41.08 48.28 41.11C48.11 41.14 47.95 41.16 47.8 41.17C47.65 41.17 47.5 41.19 47.37 41.19C46.16 41.19 45.21 40.81 44.54 40.09C43.85 39.38 43.51 38.42 43.51 37.21C43.53 36.01 43.87 35.05 44.55 34.33C45.24 33.6 46.18 33.23 47.37 33.23C47.49 33.23 47.63 33.23 47.78 33.25C47.93 33.26 48.1 33.27 48.28 33.29C48.64 33.33 48.92 33.41 49.13 33.52L49.09 34.22L49.08 34.21Z" fill="#80152A"/>
<path d="M51.98 38.2401C51.98 38.9101 52.14 39.46 52.46 39.89C52.77 40.34 53.22 40.57 53.83 40.59C54.44 40.58 54.91 40.34 55.22 39.89C55.53 39.46 55.68 38.9101 55.68 38.2401C55.68 37.5701 55.53 37.0201 55.22 36.5601C54.9 36.1301 54.44 35.9 53.83 35.89C53.22 35.9 52.77 36.1301 52.46 36.5601C52.14 37.0201 51.98 37.5801 51.98 38.2401ZM51.22 38.2401C51.22 37.4301 51.43 36.75 51.86 36.19C52.28 35.61 52.94 35.31 53.83 35.3C54.73 35.3 55.39 35.6 55.83 36.19C56.24 36.76 56.44 37.4401 56.44 38.2401C56.44 39.0401 56.24 39.7 55.83 40.28C55.4 40.88 54.73 41.18 53.83 41.18C52.94 41.18 52.29 40.87 51.86 40.28C51.43 39.71 51.22 39.0301 51.22 38.2401Z" fill="#80152A"/>
<path d="M58.6001 36.75C58.6001 36.54 58.6001 36.32 58.5901 36.1C58.5901 35.88 58.5701 35.65 58.5601 35.43H59.2301V36.44H59.2501C59.3201 36.31 59.3901 36.1801 59.4801 36.0401C59.5701 35.9101 59.6801 35.79 59.8101 35.68C59.9501 35.56 60.1201 35.4701 60.3201 35.4001C60.5201 35.3301 60.7701 35.3 61.0501 35.3C61.7401 35.32 62.2401 35.52 62.5301 35.92C62.8201 36.32 62.9601 36.8301 62.9601 37.4701V41.07H62.2701V37.6501C62.2701 37.1201 62.1701 36.69 61.9701 36.37C61.7701 36.08 61.4201 35.92 60.9401 35.91C60.3401 35.91 59.9001 36.14 59.6501 36.57C59.5301 36.76 59.4401 36.9801 59.3801 37.2201C59.3201 37.4801 59.2901 37.72 59.2901 37.96V41.07H58.6001V36.76V36.75Z" fill="#80152A"/>
<path d="M66.02 36.0199H64.89V35.4199H66.02V35.0099C66.02 34.8599 66.02 34.7199 66.03 34.5699C66.03 34.4199 66.05 34.2799 66.06 34.1299C66.07 33.8499 66.13 33.5999 66.22 33.3799C66.32 33.1399 66.47 32.9699 66.67 32.8399C66.87 32.7099 67.14 32.6399 67.49 32.6399H67.67C67.73 32.6399 67.8 32.6399 67.86 32.6499C67.98 32.6699 68.08 32.7099 68.14 32.7499L68.1 33.3599C67.94 33.2799 67.76 33.2399 67.55 33.2399C67.33 33.2399 67.16 33.2899 67.03 33.3899C66.91 33.5199 66.82 33.6599 66.78 33.8199C66.74 33.9899 66.72 34.1699 66.72 34.3599C66.72 34.4599 66.71 34.5599 66.71 34.6599V35.4199H67.97V36.0199H66.71V41.0499H66.02V36.0199Z" fill="#80152A"/>
<path d="M73.46 37.85C73.46 37.34 73.35 36.89 73.14 36.5C72.91 36.1 72.54 35.9 72.03 35.89C71.53 35.89 71.13 36.1 70.83 36.51C70.53 36.91 70.38 37.36 70.38 37.84H73.45L73.46 37.85ZM73.81 40.88C73.29 41.07 72.75 41.17 72.19 41.19C71.28 41.18 70.62 40.89 70.23 40.34C69.83 39.8 69.64 39.1 69.65 38.24C69.66 37.36 69.88 36.65 70.31 36.11C70.72 35.58 71.29 35.31 72.01 35.29C72.79 35.31 73.35 35.58 73.72 36.12C74.06 36.66 74.23 37.31 74.23 38.09V38.44H70.4C70.4 39.06 70.56 39.56 70.87 39.95C71.18 40.36 71.63 40.57 72.24 40.59C72.52 40.59 72.81 40.54 73.09 40.45C73.24 40.41 73.37 40.37 73.49 40.32C73.61 40.27 73.71 40.22 73.8 40.17V40.88H73.81Z" fill="#80152A"/>
<path d="M76.8199 38.24C76.8199 38.52 76.8499 38.79 76.8899 39.05C76.9499 39.34 77.0399 39.59 77.1499 39.82C77.2699 40.03 77.45 40.21 77.66 40.36C77.86 40.51 78.1299 40.59 78.4599 40.59C78.7699 40.59 79.0299 40.51 79.2499 40.36C79.4499 40.22 79.6199 40.03 79.7599 39.8C80.0099 39.31 80.1299 38.79 80.1199 38.24C80.1199 38.11 80.1199 37.97 80.0999 37.84C80.0899 37.7 80.0699 37.57 80.0399 37.43C79.9899 37.17 79.8899 36.92 79.7599 36.68C79.6199 36.43 79.4499 36.24 79.2599 36.11C79.0499 35.97 78.7799 35.9 78.4699 35.9C78.1599 35.9 77.8699 35.97 77.6699 36.11C77.4599 36.24 77.2899 36.42 77.1499 36.66C77.0299 36.88 76.9499 37.13 76.8899 37.41C76.8599 37.55 76.8399 37.69 76.8299 37.83C76.8199 37.97 76.8099 38.11 76.8099 38.25M80.8199 41.06H80.1299V40.17H80.1099C79.7399 40.87 79.1599 41.21 78.3699 41.2C77.6099 41.2 77.0399 40.91 76.6499 40.35C76.2599 39.79 76.0699 39.09 76.0699 38.25C76.0699 37.39 76.2399 36.68 76.6099 36.13C76.9699 35.59 77.5499 35.32 78.3699 35.3C78.6299 35.3 78.8699 35.34 79.0899 35.42C79.1899 35.46 79.2899 35.5 79.3799 35.56C79.4699 35.62 79.5499 35.67 79.6199 35.73C79.9099 35.98 80.0699 36.2 80.1099 36.38H80.1299V32.78H80.8199V41.06Z" fill="#80152A"/>
<path d="M86.7501 37.85C86.7501 37.34 86.6401 36.89 86.4301 36.5C86.1901 36.1 85.8301 35.9 85.3201 35.89C84.8201 35.89 84.4201 36.1 84.1201 36.51C83.8201 36.91 83.6701 37.36 83.6701 37.84H86.7401L86.7501 37.85ZM87.0901 40.88C86.5701 41.07 86.0301 41.17 85.4701 41.19C84.5601 41.18 83.9001 40.89 83.5101 40.34C83.1101 39.8 82.9201 39.1 82.9301 38.24C82.9401 37.36 83.1601 36.65 83.5901 36.11C84.0001 35.58 84.5701 35.31 85.2901 35.29C86.0701 35.31 86.6301 35.58 87.0001 36.12C87.3401 36.66 87.5101 37.31 87.5101 38.09V38.44H83.6801C83.6801 39.06 83.8401 39.56 84.1501 39.95C84.4601 40.36 84.9101 40.57 85.5201 40.59C85.8001 40.59 86.0901 40.54 86.3801 40.45C86.5301 40.41 86.6601 40.37 86.7801 40.32C86.9001 40.27 87.0101 40.22 87.0901 40.17V40.88Z" fill="#80152A"/>
<path d="M89.68 36.69C89.68 36.43 89.68 36.2001 89.67 35.9901C89.67 35.7801 89.65 35.6 89.64 35.43H90.33V36.51H90.35C90.48 36.17 90.67 35.89 90.91 35.66C91.14 35.43 91.43 35.31 91.79 35.3C91.96 35.3 92.13 35.33 92.27 35.37V36.1C92.12 36.06 91.95 36.03 91.77 36.03C91.5 36.03 91.28 36.1 91.1 36.23C90.92 36.36 90.78 36.5401 90.67 36.7701C90.57 37.0001 90.49 37.2401 90.45 37.4901C90.4 37.7501 90.37 38.01 90.37 38.28V41.0601H89.68V36.69Z" fill="#80152A"/>
<path d="M97.33 38.22H97.13C96.98 38.22 96.83 38.22 96.68 38.22C96.53 38.22 96.38 38.22 96.23 38.24C96.07 38.25 95.92 38.28 95.78 38.31C95.64 38.34 95.5 38.38 95.38 38.43C95.12 38.52 94.91 38.65 94.77 38.84C94.6 39.03 94.52 39.28 94.52 39.58C94.52 39.94 94.64 40.2 94.87 40.35C95.08 40.51 95.35 40.59 95.68 40.59C96.09 40.59 96.41 40.51 96.63 40.35C96.86 40.19 97.02 40.01 97.12 39.8C97.24 39.56 97.3 39.33 97.31 39.13C97.31 39.01 97.32 38.91 97.33 38.82C97.33 38.73 97.33 38.65 97.33 38.57V38.23V38.22ZM97.4 40.15H97.38C97.21 40.48 96.97 40.74 96.64 40.91C96.32 41.08 95.97 41.17 95.6 41.19C95.2 41.17 94.88 41.11 94.66 41C94.42 40.9 94.23 40.76 94.09 40.58C93.86 40.21 93.75 39.89 93.76 39.6C93.76 39.13 93.87 38.76 94.1 38.49C94.31 38.22 94.59 38.03 94.95 37.9C95.12 37.84 95.3 37.79 95.48 37.75C95.67 37.71 95.86 37.68 96.07 37.66C96.46 37.64 96.84 37.62 97.21 37.62H97.34V37.33C97.36 36.37 96.94 35.89 96.07 35.89C95.49 35.89 94.94 36.04 94.43 36.35V35.68C94.95 35.43 95.5 35.3 96.07 35.29C97.38 35.29 98.04 35.98 98.03 37.39V39.87C98.03 40.08 98.03 40.29 98.03 40.48C98.04 40.68 98.06 40.87 98.08 41.05H97.4V40.14V40.15Z" fill="#80152A"/>
<path d="M100 40.4699L103.37 36.0199H100.14V35.4299H104.17V36.0199L100.8 40.4599H104.17V41.0599H100V40.4699Z" fill="#80152A"/>
<path d="M106.24 41.06H106.93V35.43H106.24V41.06ZM106.24 33.93H106.93V33H106.24V33.93Z" fill="#80152A"/>
<path d="M109.86 38.2401C109.86 38.9101 110.02 39.46 110.34 39.89C110.65 40.34 111.1 40.57 111.71 40.59C112.32 40.58 112.79 40.34 113.1 39.89C113.41 39.46 113.56 38.9101 113.56 38.2401C113.56 37.5701 113.41 37.0201 113.1 36.5601C112.78 36.1301 112.32 35.9 111.71 35.89C111.1 35.9 110.65 36.1301 110.34 36.5601C110.02 37.0201 109.86 37.5801 109.86 38.2401ZM109.1 38.2401C109.1 37.4301 109.31 36.75 109.74 36.19C110.16 35.61 110.82 35.31 111.71 35.3C112.61 35.3 113.27 35.6 113.71 36.19C114.12 36.76 114.32 37.4401 114.32 38.2401C114.32 39.0401 114.12 39.7 113.71 40.28C113.28 40.88 112.61 41.18 111.71 41.18C110.83 41.18 110.17 40.87 109.74 40.28C109.31 39.71 109.1 39.0301 109.1 38.2401Z" fill="#80152A"/>
<path d="M116.48 36.75C116.48 36.54 116.48 36.32 116.47 36.1C116.47 35.88 116.45 35.65 116.44 35.43H117.11V36.44H117.13C117.2 36.31 117.27 36.1801 117.36 36.0401C117.45 35.9101 117.56 35.79 117.69 35.68C117.83 35.56 118 35.4701 118.2 35.4001C118.4 35.3301 118.65 35.3 118.93 35.3C119.62 35.32 120.12 35.52 120.41 35.92C120.7 36.32 120.84 36.8301 120.84 37.4701V41.07H120.15V37.6501C120.15 37.1201 120.05 36.69 119.85 36.37C119.65 36.08 119.3 35.92 118.82 35.91C118.22 35.91 117.78 36.14 117.53 36.57C117.41 36.76 117.32 36.9801 117.26 37.2201C117.2 37.4801 117.17 37.72 117.17 37.96V41.07H116.48V36.76V36.75Z" fill="#80152A"/>
<path d="M126.84 37.85C126.84 37.34 126.73 36.89 126.52 36.5C126.29 36.1 125.92 35.9 125.41 35.89C124.91 35.89 124.51 36.1 124.21 36.51C123.91 36.91 123.76 37.36 123.76 37.84H126.83L126.84 37.85ZM127.19 40.88C126.67 41.07 126.13 41.17 125.57 41.19C124.66 41.18 124 40.89 123.61 40.34C123.21 39.8 123.02 39.1 123.03 38.24C123.04 37.36 123.26 36.65 123.69 36.11C124.1 35.58 124.67 35.31 125.39 35.29C126.17 35.31 126.73 35.58 127.1 36.12C127.44 36.66 127.61 37.31 127.61 38.09V38.44H123.78C123.78 39.06 123.94 39.56 124.25 39.95C124.56 40.36 125.01 40.57 125.62 40.59C125.91 40.59 126.19 40.54 126.48 40.45C126.63 40.41 126.76 40.37 126.88 40.32C127 40.27 127.11 40.22 127.19 40.17V40.88Z" fill="#80152A"/>
<path d="M133.43 40.08C133.86 40.38 134.42 40.53 135.12 40.53C135.6 40.53 136.01 40.4 136.35 40.14C136.66 39.89 136.83 39.49 136.84 38.95C136.83 38.57 136.64 38.25 136.29 38C136.21 37.93 136.12 37.87 136.03 37.81C135.94 37.75 135.84 37.69 135.73 37.63C135.63 37.57 135.52 37.51 135.41 37.45L135.08 37.27C134.97 37.21 134.86 37.15 134.75 37.08C134.64 37.01 134.54 36.94 134.44 36.87C134.34 36.8 134.24 36.73 134.14 36.66C134.04 36.59 133.95 36.51 133.87 36.43C133.52 36.11 133.34 35.71 133.32 35.23C133.32 34.6 133.56 34.11 134.03 33.75C134.48 33.41 135.05 33.23 135.74 33.22C135.84 33.22 135.95 33.22 136.06 33.23C136.17 33.23 136.3 33.25 136.44 33.26C136.72 33.3 136.99 33.37 137.24 33.47L137.12 34.16C136.74 33.97 136.28 33.87 135.73 33.87C135.55 33.87 135.35 33.89 135.15 33.93C134.95 33.97 134.77 34.05 134.61 34.16C134.45 34.26 134.32 34.4 134.23 34.56C134.13 34.74 134.08 34.96 134.08 35.2C134.08 35.38 134.13 35.55 134.23 35.71C134.32 35.86 134.46 35.99 134.63 36.12C134.79 36.24 134.98 36.36 135.2 36.47C135.3 36.53 135.41 36.59 135.51 36.65C135.62 36.71 135.72 36.77 135.83 36.83C136.31 37.06 136.71 37.34 137.04 37.67C137.12 37.75 137.2 37.84 137.27 37.93C137.34 38.03 137.4 38.13 137.45 38.24C137.54 38.45 137.59 38.71 137.59 39C137.58 39.77 137.31 40.32 136.79 40.67C136.28 41.01 135.71 41.18 135.08 41.18C134.33 41.17 133.75 41.06 133.35 40.85L133.43 40.07V40.08Z" fill="#80152A"/>
<path d="M141.84 41.0599H141.03L139.13 35.4299H139.89L141.44 40.2999H141.46L143.08 35.4299H143.8L141.84 41.0599Z" fill="#80152A"/>
<path d="M145.62 41.06H146.31V35.43H145.62V41.06ZM145.62 33.93H146.31V33H145.62V33.93Z" fill="#80152A"/>
<path d="M148.4 40.4699L151.76 36.0199H148.53V35.4299H152.56V36.0199L149.2 40.4599H152.56V41.0599H148.4V40.4699Z" fill="#80152A"/>
<path d="M154.12 40.4699L157.49 36.0199H154.25V35.4299H158.28V36.0199L154.92 40.4599H158.28V41.0599H154.12V40.4699Z" fill="#80152A"/>
<path d="M163.77 37.85C163.77 37.34 163.66 36.89 163.45 36.5C163.22 36.1 162.85 35.9 162.34 35.89C161.84 35.89 161.44 36.1 161.14 36.51C160.84 36.91 160.69 37.36 160.69 37.84H163.76L163.77 37.85ZM164.11 40.88C163.59 41.07 163.05 41.17 162.49 41.19C161.58 41.18 160.92 40.89 160.53 40.34C160.13 39.8 159.94 39.1 159.95 38.24C159.96 37.36 160.18 36.65 160.61 36.11C161.02 35.58 161.59 35.31 162.31 35.29C163.09 35.31 163.65 35.58 164.02 36.12C164.36 36.66 164.53 37.31 164.53 38.09V38.44H160.7C160.7 39.06 160.86 39.56 161.17 39.95C161.48 40.36 161.93 40.57 162.54 40.59C162.82 40.59 163.11 40.54 163.39 40.45C163.54 40.41 163.67 40.37 163.79 40.32C163.91 40.27 164.02 40.22 164.1 40.17V40.88H164.11Z" fill="#80152A"/>
<path d="M166.69 36.69C166.69 36.43 166.69 36.2001 166.68 35.9901C166.68 35.7801 166.66 35.6 166.65 35.43H167.34V36.51H167.36C167.49 36.17 167.68 35.89 167.92 35.66C168.15 35.43 168.44 35.31 168.8 35.3C168.97 35.3 169.14 35.33 169.28 35.37V36.1C169.13 36.06 168.96 36.03 168.78 36.03C168.51 36.03 168.29 36.1 168.11 36.23C167.93 36.36 167.79 36.5401 167.68 36.7701C167.58 37.0001 167.5 37.2401 167.46 37.4901C167.41 37.7501 167.38 38.01 167.38 38.28V41.0601H166.69V36.69Z" fill="#80152A"/>
<path d="M174.35 38.22H174.15C174 38.22 173.85 38.22 173.7 38.22C173.55 38.22 173.4 38.22 173.25 38.24C173.09 38.25 172.94 38.28 172.8 38.31C172.66 38.34 172.52 38.38 172.4 38.43C172.14 38.52 171.93 38.65 171.79 38.84C171.62 39.03 171.54 39.28 171.54 39.58C171.54 39.94 171.66 40.2 171.89 40.35C172.1 40.51 172.37 40.59 172.7 40.59C173.11 40.59 173.43 40.51 173.65 40.35C173.88 40.19 174.04 40.01 174.14 39.8C174.26 39.56 174.32 39.33 174.33 39.13C174.33 39.01 174.34 38.91 174.35 38.82C174.35 38.73 174.35 38.65 174.35 38.57V38.23V38.22ZM174.41 40.15H174.39C174.22 40.48 173.98 40.74 173.65 40.91C173.33 41.08 172.98 41.17 172.61 41.19C172.21 41.17 171.89 41.11 171.67 41C171.43 40.9 171.24 40.76 171.1 40.58C170.87 40.21 170.76 39.89 170.77 39.6C170.77 39.13 170.88 38.76 171.11 38.49C171.32 38.22 171.6 38.03 171.96 37.9C172.13 37.84 172.31 37.79 172.49 37.75C172.68 37.71 172.87 37.68 173.08 37.66C173.47 37.64 173.85 37.62 174.22 37.62H174.35V37.33C174.37 36.37 173.95 35.89 173.08 35.89C172.5 35.89 171.95 36.04 171.44 36.35V35.68C171.96 35.43 172.51 35.3 173.08 35.29C174.39 35.29 175.05 35.98 175.04 37.39V39.87C175.04 40.08 175.04 40.29 175.04 40.48C175.05 40.68 175.07 40.87 175.09 41.05H174.41V40.14V40.15Z" fill="#80152A"/>
<path d="M49.08 49.44C48.84 49.32 48.56 49.22 48.26 49.17C48.1 49.15 47.95 49.14 47.8 49.13C47.65 49.12 47.51 49.11 47.37 49.11C46.38 49.11 45.62 49.43 45.08 50.05C44.54 50.66 44.27 51.46 44.27 52.44C44.27 53.42 44.54 54.22 45.07 54.83C45.6 55.44 46.36 55.75 47.37 55.77C47.5 55.77 47.64 55.77 47.79 55.75C47.94 55.74 48.09 55.72 48.26 55.69C48.57 55.65 48.84 55.56 49.08 55.43L49.12 56.1C49 56.16 48.87 56.21 48.74 56.25C48.6 56.29 48.45 56.32 48.28 56.35C48.11 56.38 47.95 56.4 47.8 56.41C47.65 56.41 47.5 56.43 47.37 56.43C46.16 56.43 45.21 56.05 44.54 55.33C43.85 54.62 43.51 53.66 43.51 52.45C43.53 51.25 43.87 50.29 44.55 49.57C45.24 48.84 46.18 48.47 47.37 48.47C47.49 48.47 47.63 48.47 47.78 48.49C47.93 48.5 48.1 48.51 48.28 48.53C48.64 48.57 48.92 48.65 49.13 48.76L49.09 49.46L49.08 49.44Z" fill="#80152A"/>
<path d="M51.98 53.47C51.98 54.14 52.14 54.69 52.46 55.12C52.77 55.57 53.22 55.8 53.83 55.82C54.44 55.81 54.91 55.57 55.22 55.12C55.53 54.69 55.68 54.14 55.68 53.47C55.68 52.8 55.53 52.25 55.22 51.79C54.9 51.36 54.44 51.13 53.83 51.12C53.22 51.13 52.77 51.36 52.46 51.79C52.14 52.25 51.98 52.81 51.98 53.47ZM51.22 53.47C51.22 52.66 51.43 51.98 51.86 51.42C52.28 50.84 52.94 50.54 53.83 50.53C54.73 50.53 55.39 50.83 55.83 51.42C56.24 51.99 56.44 52.67 56.44 53.47C56.44 54.27 56.24 54.93 55.83 55.51C55.4 56.11 54.73 56.41 53.83 56.41C52.94 56.41 52.29 56.1 51.86 55.51C51.43 54.94 51.22 54.26 51.22 53.47Z" fill="#80152A"/>
<path d="M58.6001 51.98C58.6001 51.77 58.6001 51.55 58.5901 51.33C58.5901 51.11 58.5701 50.88 58.5601 50.66H59.2301V51.67H59.2501C59.3201 51.54 59.3901 51.41 59.4801 51.27C59.5701 51.14 59.6801 51.02 59.8101 50.91C59.9501 50.79 60.1201 50.7 60.3201 50.63C60.5201 50.56 60.7701 50.53 61.0501 50.53C61.7401 50.55 62.2401 50.75 62.5301 51.15C62.8201 51.55 62.9601 52.06 62.9601 52.7V56.3H62.2701V52.88C62.2701 52.35 62.1701 51.92 61.9701 51.6C61.7701 51.31 61.4201 51.15 60.9401 51.14C60.3401 51.14 59.9001 51.37 59.6501 51.8C59.5301 51.99 59.4401 52.21 59.3801 52.45C59.3201 52.71 59.2901 52.95 59.2901 53.19V56.3H58.6001V51.99V51.98Z" fill="#80152A"/>
<path d="M66.02 51.2501H64.89V50.6501H66.02V50.2401C66.02 50.0901 66.02 49.9501 66.03 49.8001C66.03 49.6501 66.05 49.5101 66.06 49.3601C66.07 49.0801 66.13 48.8301 66.22 48.6101C66.32 48.3701 66.47 48.2001 66.67 48.0701C66.87 47.9401 67.14 47.8701 67.49 47.8701H67.67C67.73 47.8701 67.8 47.8701 67.86 47.8801C67.98 47.9001 68.08 47.9401 68.14 47.9801L68.1 48.5901C67.94 48.5101 67.76 48.4701 67.55 48.4701C67.33 48.4701 67.16 48.5201 67.03 48.6301C66.91 48.7501 66.82 48.9001 66.78 49.0601C66.74 49.2301 66.72 49.4101 66.72 49.6001C66.72 49.7001 66.71 49.8001 66.71 49.9001V50.6601H67.97V51.2601H66.71V56.2901H66.02V51.2601V51.2501Z" fill="#80152A"/>
<path d="M73.46 53.07C73.46 52.56 73.35 52.11 73.14 51.72C72.91 51.32 72.54 51.12 72.03 51.11C71.53 51.11 71.13 51.32 70.83 51.73C70.53 52.14 70.38 52.58 70.38 53.07H73.45H73.46ZM73.81 56.11C73.29 56.3 72.75 56.4 72.19 56.42C71.28 56.41 70.62 56.12 70.23 55.57C69.83 55.02 69.64 54.33 69.65 53.47C69.66 52.59 69.88 51.88 70.31 51.34C70.72 50.81 71.29 50.54 72.01 50.52C72.79 50.54 73.35 50.81 73.72 51.35C74.06 51.89 74.23 52.54 74.23 53.32V53.67H70.4C70.4 54.29 70.56 54.79 70.87 55.18C71.18 55.59 71.63 55.8 72.24 55.82C72.52 55.82 72.81 55.77 73.09 55.68C73.24 55.64 73.37 55.6 73.49 55.55C73.61 55.5 73.71 55.45 73.8 55.4V56.11H73.81Z" fill="#80152A"/>
<path d="M76.8199 53.47C76.8199 53.75 76.8499 54.02 76.8899 54.28C76.9499 54.57 77.0399 54.82 77.1499 55.05C77.2699 55.26 77.45 55.44 77.66 55.59C77.86 55.74 78.1299 55.82 78.4599 55.82C78.7699 55.82 79.0299 55.74 79.2499 55.59C79.4499 55.45 79.6199 55.26 79.7599 55.03C80.0099 54.54 80.1299 54.02 80.1199 53.47C80.1199 53.34 80.1199 53.2 80.0999 53.07C80.0899 52.93 80.0699 52.8 80.0399 52.66C79.9899 52.4 79.8899 52.15 79.7599 51.91C79.6199 51.66 79.4499 51.47 79.2599 51.34C79.0499 51.2 78.7799 51.13 78.4699 51.13C78.1599 51.13 77.8699 51.2 77.6699 51.34C77.4599 51.47 77.2899 51.65 77.1499 51.89C77.0299 52.11 76.9499 52.36 76.8899 52.64C76.8599 52.78 76.8399 52.92 76.8299 53.06C76.8199 53.2 76.8099 53.34 76.8099 53.48M80.8199 56.29H80.1299V55.4H80.1099C79.7399 56.1 79.1599 56.44 78.3699 56.43C77.6099 56.43 77.0399 56.14 76.6499 55.58C76.2599 55.02 76.0699 54.32 76.0699 53.48C76.0699 52.62 76.2399 51.91 76.6099 51.36C76.9699 50.82 77.5499 50.55 78.3699 50.53C78.6299 50.53 78.8699 50.57 79.0899 50.65C79.1899 50.69 79.2899 50.73 79.3799 50.79C79.4699 50.85 79.5499 50.9 79.6199 50.96C79.9099 51.21 80.0699 51.43 80.1099 51.61H80.1299V48.01H80.8199V56.29Z" fill="#80152A"/>
<path d="M86.7501 53.07C86.7501 52.56 86.6401 52.11 86.4301 51.72C86.1901 51.32 85.8301 51.12 85.3201 51.11C84.8201 51.11 84.4201 51.32 84.1201 51.73C83.8201 52.14 83.6701 52.58 83.6701 53.07H86.7401H86.7501ZM87.0901 56.11C86.5701 56.3 86.0301 56.4 85.4701 56.42C84.5601 56.41 83.9001 56.12 83.5101 55.57C83.1101 55.02 82.9201 54.33 82.9301 53.47C82.9401 52.59 83.1601 51.88 83.5901 51.34C84.0001 50.81 84.5701 50.54 85.2901 50.52C86.0701 50.54 86.6301 50.81 87.0001 51.35C87.3401 51.89 87.5101 52.54 87.5101 53.32V53.67H83.6801C83.6801 54.29 83.8401 54.79 84.1501 55.18C84.4601 55.59 84.9101 55.8 85.5201 55.82C85.8001 55.82 86.0901 55.77 86.3801 55.68C86.5301 55.64 86.6601 55.6 86.7801 55.55C86.9001 55.5 87.0101 55.45 87.0901 55.4V56.11Z" fill="#80152A"/>
<path d="M89.68 51.91C89.68 51.65 89.68 51.42 89.67 51.21C89.67 51 89.65 50.82 89.64 50.65H90.33V51.73H90.35C90.48 51.39 90.67 51.11 90.91 50.88C91.14 50.65 91.43 50.53 91.79 50.52C91.96 50.52 92.13 50.55 92.27 50.59V51.32C92.12 51.28 91.95 51.25 91.77 51.25C91.5 51.25 91.28 51.32 91.1 51.45C90.92 51.58 90.78 51.76 90.67 51.99C90.57 52.22 90.49 52.46 90.45 52.71C90.4 52.97 90.37 53.23 90.37 53.5V56.28H89.68V51.91Z" fill="#80152A"/>
<path d="M97.33 53.45H97.13C96.98 53.45 96.83 53.45 96.68 53.45C96.53 53.45 96.38 53.45 96.23 53.47C96.07 53.48 95.92 53.51 95.78 53.54C95.64 53.57 95.5 53.61 95.38 53.66C95.12 53.75 94.91 53.88 94.77 54.07C94.6 54.26 94.52 54.51 94.52 54.81C94.52 55.17 94.64 55.43 94.87 55.58C95.08 55.74 95.35 55.82 95.68 55.82C96.09 55.82 96.41 55.74 96.63 55.58C96.86 55.42 97.02 55.24 97.12 55.03C97.24 54.79 97.3 54.56 97.31 54.36C97.31 54.24 97.32 54.14 97.33 54.05C97.33 53.96 97.33 53.88 97.33 53.8V53.46V53.45ZM97.4 55.38H97.38C97.21 55.71 96.97 55.97 96.64 56.14C96.32 56.31 95.97 56.4 95.6 56.42C95.2 56.4 94.88 56.34 94.66 56.23C94.42 56.13 94.23 55.99 94.09 55.81C93.86 55.44 93.75 55.12 93.76 54.83C93.76 54.36 93.87 53.99 94.1 53.71C94.31 53.45 94.59 53.25 94.95 53.13C95.12 53.07 95.3 53.02 95.48 52.98C95.67 52.94 95.86 52.91 96.07 52.89C96.46 52.87 96.84 52.85 97.21 52.85H97.34V52.56C97.36 51.6 96.94 51.12 96.07 51.12C95.49 51.12 94.94 51.27 94.43 51.58V50.91C94.95 50.66 95.5 50.53 96.07 50.52C97.38 50.52 98.04 51.21 98.03 52.62V55.1C98.03 55.31 98.03 55.52 98.03 55.71C98.04 55.9 98.06 56.09 98.08 56.28H97.4V55.37V55.38Z" fill="#80152A"/>
<path d="M100 55.6999L103.37 51.2499H100.14V50.6499H104.17V51.2499L100.8 55.6899H104.17V56.2899H100V55.6999Z" fill="#80152A"/>
<path d="M106.24 56.29H106.93V50.66H106.24V56.29ZM106.24 49.16H106.93V48.23H106.24V49.16Z" fill="#80152A"/>
<path d="M113.89 54.9599C113.89 55.1699 113.89 55.3899 113.89 55.6099C113.9 55.8299 113.92 56.0599 113.93 56.2799H113.26V55.2699H113.24L113.14 55.4599C113.11 55.5299 113.08 55.5899 113.03 55.6499C112.94 55.7799 112.83 55.9099 112.69 56.0299C112.54 56.1499 112.37 56.2399 112.18 56.2999C111.96 56.3799 111.71 56.4199 111.43 56.4199C110.74 56.3999 110.25 56.1999 109.96 55.7999C109.66 55.3999 109.51 54.8799 109.52 54.2499V50.6499H110.21V54.0699C110.21 54.6099 110.32 55.0299 110.53 55.3299C110.74 55.6499 111.08 55.8199 111.54 55.8199C111.85 55.8199 112.12 55.7499 112.34 55.6199C112.55 55.4999 112.72 55.3399 112.84 55.1299C112.96 54.9299 113.05 54.7099 113.11 54.4699C113.14 54.3499 113.16 54.2299 113.17 54.1199C113.18 53.9999 113.19 53.8799 113.19 53.7699V50.6599H113.88V54.9699L113.89 54.9599Z" fill="#80152A"/>
<path d="M116.48 51.98C116.48 51.77 116.48 51.55 116.47 51.33C116.47 51.11 116.45 50.88 116.44 50.66H117.11V51.67H117.13C117.2 51.54 117.27 51.41 117.36 51.27C117.45 51.14 117.56 51.02 117.69 50.91C117.83 50.79 118 50.7 118.2 50.63C118.4 50.56 118.65 50.53 118.93 50.53C119.62 50.55 120.12 50.75 120.41 51.15C120.7 51.55 120.84 52.06 120.84 52.7V56.3H120.15V52.88C120.15 52.35 120.05 51.92 119.85 51.6C119.65 51.31 119.3 51.15 118.82 51.14C118.22 51.14 117.78 51.37 117.53 51.8C117.41 51.99 117.32 52.21 117.26 52.45C117.2 52.71 117.17 52.95 117.17 53.19V56.3H116.48V51.99V51.98Z" fill="#80152A"/>
<path d="M126.8 55.47C127.22 55.69 127.7 55.81 128.26 55.82C128.61 55.82 128.9 55.73 129.14 55.54C129.37 55.38 129.49 55.14 129.5 54.81C129.49 54.47 129.35 54.21 129.1 54.03C128.83 53.84 128.52 53.67 128.17 53.53C128.09 53.49 128.01 53.45 127.93 53.41L127.69 53.28C127.55 53.2 127.4 53.1 127.25 52.98C127.19 52.92 127.13 52.86 127.08 52.79C127.03 52.72 126.98 52.65 126.94 52.57C126.86 52.42 126.82 52.25 126.82 52.05C126.84 51.48 127.02 51.08 127.39 50.86C127.75 50.63 128.16 50.52 128.64 50.52C128.72 50.52 128.81 50.52 128.92 50.53C129.03 50.53 129.14 50.55 129.27 50.57C129.54 50.61 129.79 50.68 130.03 50.78L129.97 51.39C129.56 51.22 129.15 51.13 128.73 51.13C128.36 51.13 128.08 51.2 127.87 51.33C127.75 51.4 127.67 51.5 127.62 51.61C127.55 51.74 127.52 51.89 127.52 52.07C127.52 52.19 127.56 52.3 127.64 52.4C127.71 52.5 127.82 52.58 127.96 52.67C128.03 52.71 128.1 52.74 128.17 52.79C128.25 52.83 128.33 52.87 128.41 52.91C128.49 52.95 128.57 52.98 128.66 53.03C128.74 53.07 128.83 53.11 128.91 53.16C129.26 53.31 129.58 53.52 129.86 53.78C130.12 54.03 130.26 54.39 130.28 54.85C130.28 55.15 130.22 55.4 130.1 55.59C129.98 55.79 129.82 55.95 129.63 56.09C129.22 56.33 128.79 56.45 128.33 56.45C127.79 56.45 127.27 56.36 126.76 56.18L126.83 55.5L126.8 55.47Z" fill="#80152A"/>
<path d="M134.29 56.2899H133.47L131.58 50.6599H132.34L133.88 55.5299H133.9L135.53 50.6599H136.25L134.29 56.2899Z" fill="#80152A"/>
<path d="M138.07 56.29H138.76V50.66H138.07V56.29ZM138.07 49.16H138.76V48.23H138.07V49.16Z" fill="#80152A"/>
<path d="M140.84 55.6999L144.21 51.2499H140.97V50.6499H145.01V51.2499L141.64 55.6899H145.01V56.2899H140.84V55.6999Z" fill="#80152A"/>
<path d="M147.08 51.91C147.08 51.65 147.08 51.42 147.07 51.21C147.07 51 147.05 50.82 147.04 50.65H147.73V51.73H147.75C147.88 51.39 148.07 51.11 148.31 50.88C148.54 50.65 148.83 50.53 149.19 50.52C149.36 50.52 149.53 50.55 149.67 50.59V51.32C149.52 51.28 149.35 51.25 149.17 51.25C148.9 51.25 148.68 51.32 148.5 51.45C148.32 51.58 148.18 51.76 148.07 51.99C147.97 52.22 147.89 52.46 147.85 52.71C147.8 52.97 147.77 53.23 147.77 53.5V56.28H147.08V51.91Z" fill="#80152A"/>
<path d="M154.73 53.45H154.53C154.38 53.45 154.23 53.45 154.08 53.45C153.93 53.45 153.78 53.45 153.63 53.47C153.47 53.48 153.32 53.51 153.18 53.54C153.04 53.57 152.9 53.61 152.78 53.66C152.52 53.75 152.31 53.88 152.17 54.07C152 54.26 151.92 54.51 151.92 54.81C151.92 55.17 152.04 55.43 152.27 55.58C152.48 55.74 152.75 55.82 153.08 55.82C153.49 55.82 153.81 55.74 154.03 55.58C154.26 55.42 154.42 55.24 154.52 55.03C154.64 54.79 154.7 54.56 154.71 54.36C154.71 54.24 154.72 54.14 154.73 54.05C154.73 53.96 154.73 53.88 154.73 53.8V53.46V53.45ZM154.8 55.38H154.78C154.61 55.71 154.37 55.97 154.04 56.14C153.72 56.31 153.37 56.4 153 56.42C152.6 56.4 152.28 56.34 152.06 56.23C151.82 56.13 151.63 55.99 151.49 55.81C151.26 55.44 151.15 55.12 151.16 54.83C151.16 54.36 151.27 53.99 151.5 53.71C151.71 53.45 151.99 53.25 152.35 53.13C152.52 53.07 152.7 53.02 152.88 52.98C153.07 52.94 153.26 52.91 153.47 52.89C153.86 52.87 154.24 52.85 154.61 52.85H154.74V52.56C154.76 51.6 154.34 51.12 153.47 51.12C152.89 51.12 152.34 51.27 151.83 51.58V50.91C152.35 50.66 152.9 50.53 153.47 50.52C154.78 50.52 155.44 51.21 155.43 52.62V55.1C155.43 55.31 155.43 55.52 155.43 55.71C155.44 55.9 155.46 56.09 155.48 56.28H154.8V55.37V55.38Z" fill="#80152A"/>
<path d="M43.77 79.04H48.29V80.25H45.31V82.16H48.04V83.37H45.31V85.53H48.32V86.75H43.77V79.04Z" fill="#80152A"/>
<path d="M49.88 81.06H51.25V81.86H51.27C51.51 81.52 51.78 81.28 52.08 81.13C52.37 81 52.66 80.94 52.95 80.94C53.74 80.92 54.29 81.26 54.61 81.95C54.8 81.6 55.06 81.35 55.38 81.19C55.69 81.03 56.03 80.95 56.38 80.95C57.07 80.95 57.54 81.17 57.8 81.58C58.06 81.99 58.18 82.52 58.16 83.18V86.77H56.69V83.38C56.69 83.09 56.66 82.81 56.59 82.54C56.53 82.4 56.45 82.29 56.35 82.22C56.23 82.14 56.06 82.1 55.85 82.1C55.62 82.1 55.43 82.16 55.28 82.29C55.13 82.41 55.02 82.57 54.94 82.78C54.87 82.96 54.82 83.16 54.8 83.39C54.78 83.51 54.77 83.62 54.77 83.72C54.77 83.82 54.76 83.92 54.76 84.02V86.78H53.29V83.39C53.29 83.1 53.26 82.82 53.19 82.55C53.13 82.41 53.05 82.3 52.95 82.23C52.83 82.15 52.66 82.11 52.45 82.11C52.22 82.11 52.03 82.17 51.88 82.3C51.73 82.42 51.62 82.58 51.54 82.79C51.47 82.97 51.42 83.17 51.4 83.4C51.38 83.52 51.37 83.63 51.37 83.73C51.37 83.83 51.36 83.93 51.36 84.03V86.79H49.89V81.1L49.88 81.06Z" fill="#80152A"/>
<path d="M61.2901 83.89C61.2901 84.32 61.3801 84.72 61.5901 85.1C61.6801 85.27 61.8201 85.42 61.9801 85.54C62.1501 85.67 62.3501 85.73 62.5801 85.73C62.8101 85.73 63.0301 85.67 63.1901 85.54C63.3501 85.42 63.4801 85.28 63.5601 85.1C63.6101 85 63.6501 84.91 63.6901 84.8C63.7201 84.7 63.7501 84.59 63.7701 84.49C63.7901 84.39 63.8001 84.28 63.8101 84.18C63.8101 84.08 63.8201 83.98 63.8201 83.88C63.8201 83.45 63.7401 83.05 63.5801 82.68C63.4901 82.5 63.3701 82.35 63.2101 82.24C63.0401 82.13 62.8401 82.08 62.6101 82.08C62.1501 82.08 61.8101 82.29 61.6001 82.69C61.4001 83.06 61.2901 83.46 61.2901 83.89ZM59.8101 78.46H61.2801V81.79H61.3001C61.6901 81.22 62.2501 80.93 62.9901 80.93C63.8501 80.93 64.4601 81.23 64.8301 81.81C65.2001 82.38 65.3701 83.08 65.3601 83.89C65.3601 84.69 65.1901 85.38 64.8301 85.96C64.4601 86.56 63.8401 86.87 62.9901 86.88C62.6801 86.88 62.3701 86.82 62.0601 86.69C61.7501 86.56 61.4901 86.34 61.2601 86.05H61.2401V86.75H59.8201V78.47L59.8101 78.46Z" fill="#80152A"/>
<path d="M67.7201 85.1001C67.7201 85.3401 67.8101 85.5101 67.9901 85.6201C68.1501 85.7401 68.3701 85.8001 68.6501 85.8001C69.1101 85.7801 69.4501 85.6201 69.6801 85.2901C69.8901 84.9401 70.0001 84.5501 69.9901 84.1201H69.1001C69.1001 84.1201 69.0101 84.1201 68.9701 84.1201C68.9301 84.1201 68.8801 84.1301 68.8401 84.1401C68.6401 84.1601 68.4601 84.21 68.3001 84.27C68.1201 84.34 67.9901 84.4401 67.8901 84.5701C67.7701 84.7001 67.7101 84.8701 67.7101 85.1001M66.9301 81.3601C67.5501 81.0901 68.2101 80.9401 68.8901 80.9301C70.5301 80.9101 71.3501 81.7101 71.3301 83.3201V84.0501C71.3301 84.3301 71.3301 84.5901 71.3301 84.8201C71.3301 85.0601 71.3301 85.2701 71.3501 85.4701C71.3501 85.8801 71.3801 86.3001 71.4201 86.7401H70.1301C70.0901 86.4001 70.0601 86.1201 70.0601 85.8901H70.0401C69.8601 86.2101 69.6101 86.4501 69.3001 86.6101C68.9801 86.7901 68.6401 86.8701 68.2901 86.8701C67.7701 86.8501 67.3201 86.7101 66.9401 86.4301C66.5401 86.1401 66.3301 85.7301 66.3101 85.1801C66.3101 84.7601 66.4001 84.4101 66.6001 84.1401C66.7701 83.8801 67.0001 83.6801 67.2801 83.5601C67.5701 83.4201 67.8801 83.3301 68.2101 83.2801C68.3801 83.2601 68.5401 83.2501 68.7001 83.2401C68.8601 83.2301 69.0201 83.2201 69.1701 83.2201H69.9801C69.9801 82.7601 69.8801 82.4401 69.6701 82.2601C69.4601 82.0801 69.1401 82.0001 68.7001 82.0001C68.0401 82.0101 67.4601 82.2201 66.9601 82.6201L66.9201 81.3501L66.9301 81.3601Z" fill="#80152A"/>
<path d="M76.2901 82.2499C76.0601 82.1699 75.8601 82.1099 75.6801 82.0599C75.5801 82.0399 75.4701 82.0299 75.3601 82.0199C75.2501 82.0099 75.1201 81.9999 74.9801 81.9999C74.7801 81.9999 74.5901 82.0399 74.4101 82.1199C74.2201 82.2199 74.1201 82.3899 74.1101 82.6299C74.1201 82.8399 74.2601 82.9899 74.5101 83.0799C74.5701 83.1099 74.6301 83.1399 74.7001 83.1599C74.7701 83.1799 74.8501 83.1999 74.9301 83.2299C75.0101 83.2499 75.0901 83.2799 75.1601 83.2999C75.2301 83.3299 75.3101 83.3499 75.3901 83.3799C75.5701 83.4399 75.7301 83.4999 75.8701 83.5799C76.0201 83.6699 76.1601 83.7799 76.2601 83.8899C76.3801 84.0099 76.4801 84.1599 76.5601 84.3399C76.6301 84.5299 76.6601 84.7599 76.6601 85.0099C76.6401 85.6699 76.4001 86.1399 75.9401 86.4299C75.4601 86.7199 74.9201 86.8599 74.3001 86.8599C73.7201 86.8499 73.1701 86.7699 72.6301 86.6199L72.7201 85.4099C73.1701 85.6599 73.6601 85.7899 74.1701 85.7899C74.3701 85.7899 74.5701 85.7399 74.7901 85.6399C75.0101 85.5499 75.1201 85.3599 75.1301 85.0999C75.1301 84.9599 75.1001 84.8399 75.0301 84.7299C74.9601 84.6499 74.8601 84.5799 74.7301 84.5199C74.6101 84.4699 74.4701 84.4199 74.3201 84.3699C74.1701 84.3199 74.0201 84.2799 73.8501 84.2299C73.7701 84.1999 73.6901 84.1699 73.6201 84.1399C73.5501 84.1099 73.4701 84.0799 73.3901 84.0399C73.3101 83.9999 73.2301 83.9599 73.1601 83.9099C73.0901 83.8599 73.0301 83.8099 72.9701 83.7499C72.8401 83.6199 72.7401 83.4699 72.6801 83.3099C72.6001 83.1299 72.5601 82.9199 72.5601 82.6799C72.5801 82.0599 72.8101 81.6099 73.2501 81.3299C73.6801 81.0499 74.1901 80.9099 74.7701 80.9099C74.9401 80.9099 75.1001 80.9099 75.2501 80.9299C75.4001 80.9399 75.5401 80.9499 75.6701 80.9699C75.7901 80.9899 75.9201 81.0199 76.0301 81.0399C76.1501 81.0699 76.2601 81.0899 76.3701 81.1199L76.2701 82.2399L76.2901 82.2499Z" fill="#80152A"/>
<path d="M81.32 82.2499C81.09 82.1699 80.89 82.1099 80.71 82.0599C80.61 82.0399 80.5 82.0299 80.39 82.0199C80.28 82.0099 80.15 81.9999 80.01 81.9999C79.81 81.9999 79.62 82.0399 79.44 82.1199C79.25 82.2199 79.15 82.3899 79.15 82.6299C79.16 82.8399 79.3 82.9899 79.55 83.0799C79.61 83.1099 79.67 83.1399 79.74 83.1599C79.81 83.1799 79.89 83.1999 79.97 83.2299C80.05 83.2499 80.13 83.2799 80.2 83.2999C80.27 83.3299 80.35 83.3499 80.43 83.3799C80.61 83.4399 80.77 83.4999 80.91 83.5799C81.06 83.6699 81.19 83.7799 81.3 83.8899C81.42 84.0099 81.52 84.1599 81.6 84.3399C81.66 84.5299 81.7 84.7599 81.7 85.0099C81.68 85.6699 81.44 86.1399 80.98 86.4299C80.5 86.7199 79.96 86.8599 79.34 86.8599C78.76 86.8499 78.21 86.7699 77.67 86.6199L77.76 85.4099C78.21 85.6599 78.7 85.7899 79.21 85.7899C79.41 85.7899 79.61 85.7399 79.83 85.6399C80.05 85.5499 80.16 85.3599 80.17 85.0999C80.17 84.9599 80.14 84.8399 80.07 84.7299C80 84.6499 79.9 84.5799 79.77 84.5199C79.64 84.4699 79.51 84.4199 79.36 84.3699C79.21 84.3199 79.06 84.2799 78.89 84.2299C78.81 84.1999 78.73 84.1699 78.66 84.1399C78.59 84.1099 78.51 84.0799 78.43 84.0399C78.35 83.9999 78.27 83.9599 78.2 83.9099C78.13 83.8599 78.07 83.8099 78.01 83.7499C77.88 83.6199 77.78 83.4699 77.72 83.3099C77.64 83.1299 77.6 82.9199 77.6 82.6799C77.62 82.0599 77.85 81.6099 78.29 81.3299C78.72 81.0499 79.23 80.9099 79.81 80.9099C79.98 80.9099 80.14 80.9099 80.29 80.9299C80.44 80.9399 80.58 80.9499 80.71 80.9699C80.83 80.9899 80.95 81.0199 81.07 81.0399C81.19 81.0699 81.3 81.0899 81.41 81.1199L81.31 82.2399L81.32 82.2499Z" fill="#80152A"/>
<path d="M85.35 85.2101H85.37L86.73 81.0601H88.22L86.1 86.7001C86.04 86.8501 85.98 87.0101 85.93 87.1601C85.88 87.3101 85.82 87.4601 85.76 87.6101C85.64 87.9301 85.49 88.1901 85.33 88.4201C85.16 88.6601 84.96 88.8401 84.72 88.9801C84.45 89.1301 84.13 89.2001 83.75 89.2001C83.41 89.2001 83.06 89.1501 82.71 89.0501L82.81 87.9601C82.97 88.0301 83.22 88.0601 83.57 88.0601C83.88 88.0401 84.11 87.9501 84.27 87.7701C84.44 87.5801 84.52 87.3301 84.52 87.0401L82.36 81.0701H83.98L85.34 85.2201L85.35 85.2101Z" fill="#80152A"/>
<path d="M93.65 83.7699C93.65 83.8299 93.65 83.8799 93.65 83.9299C93.65 83.9799 93.65 84.0399 93.67 84.0999L93.69 84.2799C93.69 84.3399 93.71 84.3999 93.72 84.4599C93.76 84.6999 93.84 84.9099 93.94 85.0999C94.06 85.2999 94.2 85.4499 94.38 85.5499C94.56 85.6799 94.79 85.7399 95.06 85.7399C95.35 85.7399 95.59 85.6799 95.77 85.5599C95.95 85.4599 96.09 85.3099 96.21 85.1099C96.32 84.9199 96.39 84.7099 96.43 84.4699C96.45 84.3499 96.46 84.2399 96.47 84.1199C96.48 84.0099 96.49 83.8899 96.49 83.7699C96.49 83.3099 96.38 82.9099 96.15 82.5899C95.91 82.2699 95.55 82.0999 95.06 82.0799C94.59 82.0999 94.24 82.2699 94.01 82.5999C93.77 82.9299 93.65 83.3199 93.65 83.7699ZM92.11 83.9399C92.11 82.9899 92.4 82.2499 92.97 81.7199C93.52 81.2099 94.22 80.9399 95.06 80.9299C95.92 80.9299 96.63 81.1999 97.18 81.7199C97.73 82.2399 98.01 82.9799 98.02 83.9399C98.02 84.7799 97.76 85.4699 97.25 86.0099C96.73 86.5799 96 86.8599 95.06 86.8699C94.13 86.8699 93.4 86.5799 92.89 86.0099C92.37 85.4499 92.11 84.7599 92.11 83.9399Z" fill="#80152A"/>
<path d="M99.87 82.1401H98.78V81.0601H99.87V80.2601C99.87 79.6701 100.03 79.2001 100.34 78.8601C100.63 78.5201 101.07 78.3401 101.66 78.3301C101.86 78.3301 102.05 78.3501 102.23 78.3701C102.41 78.3901 102.57 78.4201 102.73 78.4501L102.61 79.6801C102.55 79.6301 102.47 79.5801 102.37 79.5401C102.26 79.5001 102.13 79.4901 101.98 79.4901C101.75 79.4901 101.58 79.5801 101.48 79.7601C101.39 79.9301 101.34 80.1301 101.34 80.3701V81.0801H102.62V82.1601H101.34V86.7601H99.87V82.1601V82.1401Z" fill="#80152A"/>
<path d="M111.22 80.4499C110.72 80.2299 110.2 80.1199 109.66 80.1199C109.51 80.1199 109.38 80.1399 109.26 80.1599C109.11 80.1999 108.98 80.2499 108.87 80.3299C108.74 80.4099 108.65 80.5199 108.57 80.6599C108.49 80.8099 108.45 80.9899 108.45 81.1899C108.45 81.3399 108.5 81.4799 108.6 81.5999C108.7 81.6999 108.83 81.7999 108.99 81.8999C109.07 81.9399 109.16 81.9899 109.25 82.0299C109.34 82.0699 109.44 82.1099 109.54 82.1499C109.64 82.1899 109.73 82.2299 109.84 82.2699L110.15 82.3999C110.35 82.4699 110.55 82.5699 110.76 82.6899C110.96 82.8099 111.14 82.9499 111.3 83.1199C111.38 83.1999 111.45 83.2899 111.51 83.3899C111.57 83.4899 111.63 83.5899 111.68 83.7099C111.77 83.9499 111.81 84.2299 111.81 84.5599C111.81 85.3799 111.52 85.9799 110.96 86.3499C110.42 86.7099 109.74 86.8899 108.93 86.8899C108.73 86.8899 108.55 86.8899 108.39 86.8699C108.22 86.8599 108.07 86.8299 107.93 86.7999C107.79 86.7699 107.64 86.7399 107.48 86.7099C107.32 86.6799 107.15 86.6399 106.97 86.5899L107.11 85.1999C107.65 85.4999 108.22 85.6599 108.85 85.6799C109.16 85.6799 109.47 85.5999 109.76 85.4399C110.05 85.2799 110.2 85.0299 110.21 84.6899C110.21 84.5099 110.17 84.3499 110.08 84.2199C109.99 84.0899 109.86 83.9799 109.7 83.8899C109.53 83.7999 109.35 83.7199 109.16 83.6299C108.97 83.5499 108.76 83.4599 108.55 83.3799C108.45 83.3399 108.35 83.2899 108.24 83.2399C108.14 83.1899 108.04 83.1399 107.94 83.0799C107.74 82.9599 107.55 82.8299 107.39 82.6799C107.31 82.5999 107.24 82.5099 107.17 82.4099C107.11 82.3199 107.05 82.2099 107 82.0899C106.9 81.8499 106.85 81.5799 106.85 81.2799C106.86 80.4299 107.14 79.8199 107.69 79.4499C108.22 79.0999 108.83 78.9299 109.52 78.9299C110.21 78.9299 110.8 79.0199 111.35 79.2099L111.21 80.4799L111.22 80.4499Z" fill="#80152A"/>
<path d="M112.6 81.0601H114.16L115.41 85.2701H115.43L116.57 81.0601H118.28L119.51 85.2701H119.53L120.7 81.0601H122.11L120.37 86.7501H118.64L117.41 82.4101H117.39L116.19 86.7501H114.51L112.6 81.0601Z" fill="#80152A"/>
<path d="M123.18 86.7501H124.65V81.0701H123.18V86.7501ZM123.18 80.0201H124.65V78.6101H123.18V80.0201Z" fill="#80152A"/>
<path d="M126.84 82.1399H125.75V81.0599H126.84V79.9199L128.31 79.4399V81.0599H129.62V82.1399H128.31V84.7899C128.31 85.0299 128.35 85.2399 128.45 85.4299C128.55 85.6199 128.73 85.7199 129 85.7299C129.28 85.7299 129.5 85.6799 129.67 85.5799L129.71 86.7499C129.41 86.8399 129.05 86.8799 128.62 86.8799C127.44 86.8499 126.84 86.2399 126.84 85.0399V82.1499V82.1399Z" fill="#80152A"/>
<path d="M130.55 81.0601H135.02V82.2801L132.21 85.6001H135.12V86.7501H130.43V85.5401L133.29 82.2101H130.55V81.0601Z" fill="#80152A"/>
<path d="M139.97 83.3399C139.97 82.9699 139.86 82.6599 139.68 82.3999C139.5 82.1499 139.2 82.0199 138.78 81.9999C138.38 81.9999 138.07 82.1299 137.85 82.3799C137.64 82.6299 137.51 82.9499 137.48 83.3399H139.98H139.97ZM140.96 86.4299C140.44 86.7299 139.79 86.8799 139.02 86.8799C137.08 86.8399 136.09 85.8599 136.07 83.9299C136.07 83.0799 136.29 82.3699 136.73 81.7999C137.18 81.2299 137.83 80.9399 138.69 80.9299C139.72 80.9499 140.43 81.2699 140.83 81.8899C141.2 82.5199 141.39 83.3499 141.38 84.3599H137.48C137.52 84.8199 137.68 85.1699 137.97 85.4099C138.27 85.6699 138.64 85.7999 139.09 85.7999C139.46 85.7999 139.79 85.7399 140.1 85.6199C140.4 85.5199 140.69 85.3899 140.97 85.2199V86.4199L140.96 86.4299Z" fill="#80152A"/>
<path d="M142.73 81.0599H144.04V82.3499H144.06C144.1 82.0599 144.26 81.7599 144.54 81.4299C144.82 81.0999 145.17 80.9299 145.6 80.9199C145.76 80.9199 145.91 80.9299 146.05 80.9599V82.4499C145.89 82.3699 145.67 82.3299 145.39 82.3299C145.11 82.3299 144.87 82.4099 144.71 82.5699C144.54 82.7299 144.42 82.9299 144.35 83.1799C144.28 83.4099 144.23 83.6599 144.22 83.9299C144.22 84.0499 144.21 84.1799 144.2 84.2999C144.2 84.4199 144.2 84.5399 144.2 84.6499V86.7399H142.73V81.0499V81.0599Z" fill="#80152A"/>
<path d="M148.63 78.46H147.16V86.74H148.63V78.46Z" fill="#80152A"/>
<path d="M151.38 85.1001C151.38 85.3401 151.47 85.5101 151.65 85.6201C151.81 85.7401 152.03 85.8001 152.31 85.8001C152.77 85.7801 153.11 85.6201 153.34 85.2901C153.55 84.9401 153.66 84.5501 153.65 84.1201H152.76C152.76 84.1201 152.67 84.1201 152.63 84.1201C152.59 84.1201 152.54 84.1301 152.5 84.1401C152.3 84.1601 152.12 84.21 151.96 84.27C151.78 84.34 151.65 84.4401 151.55 84.5701C151.43 84.7001 151.37 84.8701 151.37 85.1001M150.59 81.3601C151.21 81.0901 151.87 80.9401 152.55 80.9301C154.19 80.9101 155.01 81.7101 154.99 83.3201V84.0501C154.99 84.3301 154.99 84.5901 154.99 84.8201C154.99 85.0601 155 85.2701 155.01 85.4701C155.01 85.8801 155.04 86.3001 155.08 86.7401H153.79C153.75 86.4001 153.72 86.1201 153.72 85.8901H153.7C153.52 86.2101 153.27 86.4501 152.96 86.6101C152.64 86.7901 152.3 86.8701 151.95 86.8701C151.43 86.8501 150.98 86.7101 150.6 86.4301C150.2 86.1401 149.99 85.7301 149.97 85.1801C149.97 84.7601 150.06 84.4101 150.26 84.1401C150.43 83.8801 150.66 83.6801 150.94 83.5601C151.23 83.4201 151.54 83.3301 151.87 83.2801C152.04 83.2601 152.2 83.2501 152.36 83.2401C152.52 83.2301 152.68 83.2201 152.83 83.2201H153.64C153.64 82.7601 153.54 82.4401 153.33 82.2601C153.12 82.0801 152.8 82.0001 152.36 82.0001C151.7 82.0101 151.12 82.2201 150.62 82.6201L150.58 81.3501L150.59 81.3601Z" fill="#80152A"/>
<path d="M156.6 81.0599H157.99V81.8299H158.01C158.49 81.2199 159.1 80.9199 159.86 80.9199C160.52 80.9199 161.01 81.1399 161.33 81.5499C161.63 81.9599 161.78 82.4899 161.78 83.1499V86.7399H160.31V83.4299C160.31 83.3399 160.31 83.2399 160.3 83.1399C160.28 82.9399 160.25 82.7699 160.19 82.6199C160.13 82.4399 160.04 82.3099 159.92 82.2099C159.78 82.1099 159.59 82.0699 159.36 82.0699C159.1 82.0699 158.89 82.1299 158.72 82.2599C158.56 82.3799 158.43 82.5399 158.33 82.7399C158.24 82.9199 158.17 83.1299 158.13 83.3499C158.08 83.5699 158.06 83.7799 158.06 83.9699V86.7499H156.59V81.0599H156.6Z" fill="#80152A"/>
<path d="M164.63 83.89C164.61 84.3 164.7 84.71 164.89 85.1C164.99 85.28 165.12 85.42 165.27 85.54C165.43 85.67 165.63 85.73 165.86 85.73C166.11 85.73 166.32 85.67 166.48 85.54C166.65 85.42 166.78 85.27 166.87 85.1C166.97 84.9 167.05 84.7 167.09 84.5C167.1 84.4 167.12 84.3 167.13 84.19C167.14 84.09 167.15 83.98 167.15 83.88C167.15 83.45 167.05 83.05 166.85 82.68C166.74 82.5 166.61 82.35 166.45 82.24C166.28 82.13 166.08 82.08 165.84 82.08C165.39 82.08 165.06 82.29 164.87 82.69C164.78 82.87 164.71 83.07 164.68 83.27C164.63 83.48 164.61 83.69 164.61 83.89M167.22 86.11H167.2C166.75 86.63 166.17 86.89 165.47 86.88C164.61 86.86 164.01 86.56 163.64 85.96C163.27 85.36 163.09 84.67 163.1 83.89C163.1 83.1 163.27 82.4 163.64 81.81C164.01 81.24 164.62 80.94 165.47 80.93C166.18 80.93 166.74 81.2 167.16 81.73H167.18V78.47H168.65V86.75H167.23V86.11H167.22Z" fill="#80152A"/>
<path d="M173.57 86.7501H175.04V81.0701H173.57V86.7501ZM173.57 80.0201H175.04V78.6101H173.57V80.0201Z" fill="#80152A"/>
<path d="M176.75 81.0599H178.14V81.8299H178.16C178.64 81.2199 179.25 80.9199 180.01 80.9199C180.67 80.9199 181.16 81.1399 181.48 81.5499C181.78 81.9599 181.93 82.4899 181.93 83.1499V86.7399H180.46V83.4299C180.46 83.3399 180.46 83.2399 180.45 83.1399C180.44 82.9399 180.4 82.7699 180.34 82.6199C180.28 82.4399 180.19 82.3099 180.07 82.2099C179.93 82.1099 179.74 82.0699 179.51 82.0699C179.25 82.0699 179.04 82.1299 178.87 82.2599C178.71 82.3799 178.58 82.5399 178.48 82.7399C178.39 82.9199 178.32 83.1299 178.28 83.3499C178.23 83.5699 178.21 83.7799 178.21 83.9699V86.7499H176.74V81.0599H176.75Z" fill="#80152A"/>
<path d="M187.3 82.1399H186.21V81.0599H187.3V79.9199L188.77 79.4399V81.0599H190.08V82.1399H188.77V84.7899C188.77 85.0299 188.81 85.2399 188.91 85.4299C189.01 85.6199 189.19 85.7199 189.46 85.7299C189.74 85.7299 189.96 85.6799 190.13 85.5799L190.17 86.7499C189.87 86.8399 189.51 86.8799 189.08 86.8799C187.9 86.8499 187.3 86.2399 187.3 85.0399V82.1499V82.1399Z" fill="#80152A"/>
<path d="M191.25 78.46H192.72V81.83H192.74C193.14 81.23 193.73 80.93 194.51 80.92C195.17 80.92 195.66 81.14 195.98 81.55C196.28 81.96 196.43 82.49 196.43 83.15V86.74H194.96V83.43C194.96 83.34 194.96 83.24 194.95 83.14C194.93 82.94 194.9 82.77 194.84 82.62C194.78 82.44 194.69 82.31 194.57 82.21C194.43 82.11 194.24 82.07 194.01 82.07C193.75 82.07 193.54 82.13 193.37 82.26C193.21 82.38 193.08 82.54 192.98 82.74C192.89 82.92 192.82 83.13 192.78 83.35C192.73 83.57 192.71 83.78 192.71 83.97V86.75H191.24V78.47L191.25 78.46Z" fill="#80152A"/>
<path d="M201.65 83.3399C201.65 82.9699 201.54 82.6599 201.36 82.3999C201.18 82.1499 200.88 82.0199 200.46 81.9999C200.06 81.9999 199.75 82.1299 199.53 82.3799C199.32 82.6299 199.19 82.9499 199.16 83.3399H201.66H201.65ZM202.64 86.4299C202.12 86.7299 201.47 86.8799 200.7 86.8799C198.76 86.8399 197.77 85.8599 197.75 83.9299C197.75 83.0799 197.97 82.3699 198.41 81.7999C198.86 81.2299 199.51 80.9399 200.37 80.9299C201.4 80.9499 202.11 81.2699 202.51 81.8899C202.88 82.5199 203.07 83.3499 203.06 84.3599H199.16C199.2 84.8199 199.36 85.1699 199.65 85.4099C199.95 85.6699 200.32 85.7999 200.77 85.7999C201.14 85.7999 201.47 85.7399 201.78 85.6199C202.08 85.5199 202.37 85.3899 202.65 85.2199V86.4199L202.64 86.4299Z" fill="#80152A"/>
<path d="M209.13 82.33H209.63C209.73 82.33 209.83 82.33 209.93 82.32C210.02 82.32 210.12 82.3 210.23 82.29C210.43 82.27 210.6 82.22 210.74 82.15C210.91 82.07 211.04 81.96 211.12 81.83C211.21 81.69 211.25 81.5 211.25 81.27C211.25 81.04 211.21 80.85 211.12 80.7C211.03 80.57 210.9 80.47 210.74 80.4C210.59 80.33 210.41 80.29 210.23 80.27C210.13 80.27 210.03 80.26 209.93 80.26H209.13V82.34V82.33ZM207.59 79.04H209.88C210.09 79.04 210.3 79.04 210.52 79.05C210.93 79.07 211.32 79.14 211.68 79.27C212.05 79.4 212.33 79.6 212.54 79.89C212.74 80.17 212.84 80.58 212.86 81.13C212.86 81.58 212.72 81.97 212.45 82.31C212.18 82.64 211.79 82.84 211.29 82.92V82.94C211.49 82.96 211.66 83.05 211.79 83.22C211.92 83.38 212.02 83.56 212.1 83.74L213.33 86.75H211.62L210.7 84.34C210.6 84.05 210.48 83.84 210.34 83.72C210.19 83.6 209.96 83.54 209.64 83.54H209.15V86.74H207.61V79.03L207.59 79.04Z" fill="#80152A"/>
<path d="M217.99 83.3399C217.99 82.9699 217.88 82.6599 217.7 82.3999C217.52 82.1499 217.22 82.0199 216.8 81.9999C216.4 81.9999 216.09 82.1299 215.87 82.3799C215.66 82.6299 215.53 82.9499 215.5 83.3399H218H217.99ZM218.98 86.4299C218.46 86.7299 217.81 86.8799 217.04 86.8799C215.1 86.8399 214.11 85.8599 214.09 83.9299C214.09 83.0799 214.31 82.3699 214.75 81.7999C215.2 81.2299 215.85 80.9399 216.71 80.9299C217.74 80.9499 218.45 81.2699 218.85 81.8899C219.22 82.5199 219.41 83.3499 219.4 84.3599H215.5C215.54 84.8199 215.7 85.1699 215.99 85.4099C216.29 85.6699 216.66 85.7999 217.11 85.7999C217.48 85.7999 217.81 85.7399 218.12 85.6199C218.42 85.5199 218.71 85.3899 218.99 85.2199V86.4199L218.98 86.4299Z" fill="#80152A"/>
<path d="M223.51 82.0799C223.05 82.0799 222.71 82.2899 222.5 82.6899C222.3 83.0599 222.19 83.4599 222.19 83.8899C222.19 84.3199 222.28 84.7199 222.48 85.0999C222.58 85.2699 222.71 85.4099 222.88 85.5399C223.05 85.6699 223.25 85.7299 223.48 85.7299C223.71 85.7299 223.93 85.6699 224.09 85.5399C224.25 85.4199 224.37 85.2799 224.46 85.0999C224.51 84.9999 224.55 84.9099 224.59 84.7999C224.62 84.6999 224.65 84.5899 224.67 84.4899C224.69 84.3899 224.7 84.2799 224.7 84.1799C224.7 84.0799 224.71 83.9799 224.71 83.8799C224.71 83.4499 224.63 83.0499 224.47 82.6799C224.38 82.4999 224.26 82.3499 224.1 82.2399C223.93 82.1299 223.73 82.0799 223.5 82.0799M220.71 81.0599H222.11V81.8699H222.13C222.44 81.2699 223.03 80.9499 223.89 80.9299C224.75 80.9299 225.36 81.2299 225.73 81.8099C226.1 82.3799 226.27 83.0799 226.26 83.8899C226.26 84.6899 226.09 85.3799 225.73 85.9599C225.36 86.5599 224.73 86.8699 223.85 86.8799C223.54 86.8799 223.26 86.8199 222.99 86.7099C222.73 86.6099 222.46 86.3999 222.19 86.0899H222.17V89.0599H220.7V81.0599H220.71Z" fill="#80152A"/>
<path d="M232.76 86.7501H231.37V85.9801H231.35C230.88 86.5801 230.26 86.8801 229.5 86.8901C228.83 86.8701 228.35 86.6601 228.05 86.2501C227.74 85.8501 227.58 85.3201 227.58 84.6601V81.0701H229.05V84.1001C229.05 84.1001 229.05 84.1801 229.05 84.2201C229.05 84.2601 229.06 84.3101 229.07 84.3501V84.4801C229.07 84.4801 229.07 84.5701 229.08 84.6201C229.1 84.8201 229.13 85.0001 229.18 85.1601C229.25 85.3201 229.34 85.4501 229.47 85.5601C229.6 85.6701 229.78 85.7201 230.01 85.7201C230.29 85.7201 230.51 85.6501 230.68 85.5101C230.85 85.3801 230.97 85.2301 231.06 85.0401C231.15 84.8601 231.22 84.6501 231.26 84.4301C231.28 84.3301 231.29 84.2301 231.29 84.1301C231.29 84.0301 231.3 83.9301 231.3 83.8401V81.0601H232.77V86.7501H232.76Z" fill="#80152A"/>
<path d="M235.92 83.89C235.92 84.32 236.01 84.72 236.21 85.1C236.31 85.27 236.44 85.42 236.61 85.54C236.78 85.67 236.98 85.73 237.21 85.73C237.44 85.73 237.66 85.67 237.82 85.54C237.98 85.42 238.1 85.28 238.19 85.1C238.24 85 238.28 84.91 238.32 84.8C238.35 84.7 238.38 84.59 238.4 84.49C238.42 84.39 238.43 84.28 238.44 84.18C238.44 84.08 238.45 83.98 238.45 83.88C238.45 83.45 238.37 83.05 238.21 82.68C238.12 82.5 238 82.35 237.84 82.24C237.67 82.13 237.47 82.08 237.24 82.08C236.78 82.08 236.44 82.29 236.23 82.69C236.03 83.06 235.92 83.46 235.92 83.89ZM234.44 78.46H235.91V81.79H235.93C236.32 81.22 236.88 80.93 237.62 80.93C238.48 80.93 239.09 81.23 239.46 81.81C239.83 82.38 240 83.08 239.99 83.89C239.99 84.69 239.82 85.38 239.46 85.96C239.09 86.56 238.47 86.87 237.62 86.88C237.31 86.88 237 86.82 236.69 86.69C236.38 86.56 236.12 86.34 235.89 86.05H235.87V86.75H234.45V78.47L234.44 78.46Z" fill="#80152A"/>
<path d="M242.81 78.46H241.34V86.74H242.81V78.46Z" fill="#80152A"/>
<path d="M244.55 86.7501H246.02V81.0701H244.55V86.7501ZM244.55 80.0201H246.02V78.6101H244.55V80.0201Z" fill="#80152A"/>
<path d="M251.38 82.2899C251.25 82.2199 251.11 82.1699 250.96 82.1399C250.88 82.1299 250.79 82.1099 250.7 82.0999C250.6 82.0899 250.5 82.0799 250.38 82.0799C249.92 82.0999 249.56 82.2599 249.31 82.5599C249.03 82.8899 248.89 83.3199 248.89 83.8699C248.89 84.4199 249.02 84.8399 249.27 85.1799C249.52 85.5299 249.9 85.7099 250.41 85.7199C250.62 85.7199 250.84 85.6899 251.05 85.6199C251.25 85.5699 251.42 85.5099 251.54 85.4599L251.6 86.6799C251.39 86.7499 251.17 86.7899 250.94 86.8099C250.82 86.8299 250.7 86.8399 250.56 86.8499C250.43 86.8599 250.28 86.8699 250.13 86.8699C249.21 86.8699 248.52 86.5799 248.06 86.0099C247.59 85.4499 247.35 84.7399 247.35 83.8699C247.35 82.9999 247.59 82.3299 248.06 81.7699C248.53 81.2199 249.2 80.9399 250.08 80.9199C250.63 80.9199 251.11 80.9799 251.5 81.1099L251.37 82.2799L251.38 82.2899Z" fill="#80152A"/>
<path d="M257.14 83.7699C257.14 83.8299 257.14 83.8799 257.14 83.9299C257.14 83.9799 257.15 84.0399 257.16 84.0999L257.18 84.2799C257.18 84.3399 257.2 84.3999 257.21 84.4599C257.26 84.6999 257.33 84.9099 257.43 85.0999C257.55 85.2999 257.69 85.4499 257.87 85.5499C258.05 85.6799 258.28 85.7399 258.55 85.7399C258.84 85.7399 259.08 85.6799 259.26 85.5599C259.44 85.4599 259.58 85.3099 259.7 85.1099C259.81 84.9199 259.88 84.7099 259.92 84.4699C259.94 84.3499 259.95 84.2399 259.96 84.1199C259.97 84.0099 259.98 83.8899 259.98 83.7699C259.98 83.3099 259.87 82.9099 259.64 82.5899C259.4 82.2699 259.04 82.0999 258.55 82.0799C258.08 82.0999 257.73 82.2699 257.5 82.5999C257.26 82.9299 257.14 83.3199 257.14 83.7699ZM255.61 83.9399C255.61 82.9899 255.9 82.2499 256.47 81.7199C257.02 81.2099 257.72 80.9399 258.56 80.9299C259.42 80.9299 260.13 81.1999 260.68 81.7199C261.23 82.2399 261.51 82.9799 261.53 83.9399C261.53 84.7799 261.27 85.4699 260.76 86.0099C260.24 86.5799 259.51 86.8599 258.57 86.8699C257.64 86.8699 256.91 86.5799 256.4 86.0099C255.88 85.4499 255.62 84.7599 255.62 83.9399" fill="#80152A"/>
<path d="M263.37 82.1401H262.28V81.0601H263.37V80.2601C263.37 79.6701 263.53 79.2001 263.84 78.8601C264.13 78.5201 264.57 78.3401 265.17 78.3301C265.37 78.3301 265.56 78.3501 265.74 78.3701C265.92 78.3901 266.08 78.4201 266.24 78.4501L266.12 79.6801C266.06 79.6301 265.98 79.5801 265.88 79.5401C265.77 79.5001 265.64 79.4901 265.49 79.4901C265.26 79.4901 265.09 79.5801 264.99 79.7601C264.9 79.9301 264.85 80.1301 264.85 80.3701V81.0801H266.13V82.1601H264.85V86.7601H263.38V82.1601L263.37 82.1401Z" fill="#80152A"/>
<path d="M270.61 79.04H272.14V82.35L274.9 79.04H276.79L273.64 82.67L276.92 86.75H274.91L272.16 83.17H272.14V86.75H270.61V79.04Z" fill="#80152A"/>
<path d="M279.12 83.7699C279.12 83.8299 279.12 83.8799 279.12 83.9299C279.12 83.9799 279.13 84.0399 279.14 84.0999L279.16 84.2799C279.16 84.3399 279.18 84.3999 279.19 84.4599C279.24 84.6999 279.31 84.9099 279.41 85.0999C279.53 85.2999 279.67 85.4499 279.85 85.5499C280.03 85.6799 280.26 85.7399 280.53 85.7399C280.82 85.7399 281.06 85.6799 281.24 85.5599C281.42 85.4599 281.56 85.3099 281.68 85.1099C281.79 84.9199 281.86 84.7099 281.9 84.4699C281.92 84.3499 281.93 84.2399 281.94 84.1199C281.95 84.0099 281.96 83.8899 281.96 83.7699C281.96 83.3099 281.85 82.9099 281.62 82.5899C281.38 82.2699 281.02 82.0999 280.53 82.0799C280.06 82.0999 279.71 82.2699 279.48 82.5999C279.24 82.9299 279.12 83.3199 279.12 83.7699ZM277.59 83.9399C277.59 82.9899 277.88 82.2499 278.45 81.7199C279 81.2099 279.7 80.9399 280.54 80.9299C281.4 80.9299 282.11 81.1999 282.66 81.7199C283.21 82.2399 283.49 82.9799 283.51 83.9399C283.51 84.7799 283.25 85.4699 282.74 86.0099C282.22 86.5799 281.49 86.8599 280.55 86.8699C279.62 86.8699 278.89 86.5799 278.38 86.0099C277.86 85.4499 277.6 84.7599 277.6 83.9399" fill="#80152A"/>
<path d="M284.84 81.0599H286.15V82.3499H286.17C286.21 82.0599 286.37 81.7599 286.65 81.4299C286.93 81.0999 287.28 80.9299 287.71 80.9199C287.87 80.9199 288.02 80.9299 288.16 80.9599V82.4499C288 82.3699 287.78 82.3299 287.5 82.3299C287.22 82.3299 286.98 82.4099 286.82 82.5699C286.65 82.7299 286.53 82.9299 286.46 83.1799C286.39 83.4099 286.34 83.6599 286.33 83.9299C286.33 84.0499 286.32 84.1799 286.31 84.2999C286.31 84.4199 286.31 84.5399 286.31 84.6499V86.7399H284.84V81.0499V81.0599Z" fill="#80152A"/>
<path d="M292.59 83.3399C292.59 82.9699 292.48 82.6599 292.3 82.3999C292.12 82.1499 291.82 82.0199 291.4 81.9999C291 81.9999 290.69 82.1299 290.47 82.3799C290.26 82.6299 290.13 82.9499 290.1 83.3399H292.6H292.59ZM293.57 86.4299C293.05 86.7299 292.4 86.8799 291.63 86.8799C289.69 86.8399 288.7 85.8599 288.68 83.9299C288.68 83.0799 288.9 82.3699 289.34 81.7999C289.79 81.2299 290.44 80.9399 291.3 80.9299C292.33 80.9499 293.04 81.2699 293.44 81.8899C293.81 82.5199 294 83.3499 293.99 84.3599H290.09C290.13 84.8199 290.29 85.1699 290.58 85.4099C290.88 85.6699 291.25 85.7999 291.7 85.7999C292.07 85.7999 292.4 85.7399 292.71 85.6199C293.01 85.5199 293.3 85.3899 293.58 85.2199V86.4199L293.57 86.4299Z" fill="#80152A"/>
<path d="M296.35 85.1001C296.35 85.3401 296.44 85.5101 296.62 85.6201C296.78 85.7401 297 85.8001 297.28 85.8001C297.74 85.7801 298.08 85.6201 298.31 85.2901C298.52 84.9401 298.62 84.5501 298.62 84.1201H297.73C297.73 84.1201 297.64 84.1201 297.6 84.1201C297.56 84.1201 297.51 84.1301 297.47 84.1401C297.27 84.1601 297.09 84.21 296.93 84.27C296.76 84.34 296.62 84.4401 296.52 84.5701C296.4 84.7001 296.35 84.8701 296.35 85.1001ZM295.55 81.3601C296.17 81.0901 296.83 80.9401 297.51 80.9301C299.16 80.9101 299.97 81.7101 299.95 83.3201V84.0501C299.95 84.3301 299.95 84.5901 299.95 84.8201C299.95 85.0601 299.96 85.2701 299.97 85.4701C299.97 85.8801 300 86.3001 300.04 86.7401H298.75C298.71 86.4001 298.69 86.1201 298.69 85.8901H298.66C298.48 86.2101 298.23 86.4501 297.93 86.6101C297.61 86.7901 297.27 86.8701 296.92 86.8701C296.4 86.8501 295.95 86.7101 295.57 86.4301C295.17 86.1401 294.96 85.7301 294.95 85.1801C294.95 84.7601 295.04 84.4101 295.23 84.1401C295.41 83.8801 295.63 83.6801 295.91 83.5601C296.2 83.4201 296.5 83.3301 296.84 83.2801C297.01 83.2601 297.17 83.2501 297.33 83.2401C297.49 83.2301 297.65 83.2201 297.8 83.2201H298.61C298.61 82.7601 298.51 82.4401 298.3 82.2601C298.09 82.0801 297.76 82.0001 297.33 82.0001C296.67 82.0101 296.09 82.2201 295.58 82.6201L295.54 81.3501L295.55 81.3601Z" fill="#80152A"/>
</g>
<defs>
<clipPath id="clip0_35_32">
<rect width="300.04" height="89.19" fill="white"/>
</clipPath>
</defs>
</svg>
