<svg width="251" height="78" viewBox="0 0 251 78" fill="none" xmlns="http://www.w3.org/2000/svg">
<g clip-path="url(#clip0_35_2)">
<path d="M45.61 0H27.1L19.7 14.04H33.31L45.61 0ZM39.95 59.87C38.32 62.92 35.05 65.97 28.96 65.97C21.99 65.97 16.22 61.83 15.46 52.04H56.06V50.63C56.06 32.23 46.92 18.41 28.19 18.41C10.99 18.4 0 31.13 0 48C0 64.87 10.45 77.61 28.74 77.61C42.24 77.61 51.49 70.53 55.41 59.87H39.95ZM28.19 29.5C35.81 29.5 40.49 34.83 40.71 42.02H15.67C16.32 34.84 20.89 29.5 28.19 29.5ZM113.75 38.86C112.23 26.56 102.1 18.4 88.06 18.4C70.32 18.4 59.32 30.7 59.32 48.01C59.32 65.32 69.55 77.62 87.95 77.62C102.54 77.62 112.01 69.35 114.18 57.15H99.38C98.07 61.61 95.24 65.86 88.28 65.86C80.33 65.86 75 60.42 75 48.12C75 35.82 80.12 30.05 87.96 30.05C94.49 30.05 97.87 34.4 98.74 38.87H113.76L113.75 38.86ZM160.01 66.84C154.24 66.84 150.65 64.34 150.65 59.66C150.65 57.92 151.3 56.39 152.39 55.3C153.91 53.78 156.85 52.8 160.99 51.71L164.37 50.84C168.29 49.86 171.12 49.1 172.42 48.55V55.41C172.42 58.13 172.2 59.11 171.88 60.09C170.14 64.99 164.91 66.84 160.02 66.84M152.07 37.23C152.29 34.62 153.05 32.98 154.68 31.57C156.53 30.05 159.14 29.28 162.41 29.28C168.61 29.28 171.88 31.78 171.88 35.92C171.88 38.97 170.68 40.38 166.66 40.93L164.16 41.26C152.19 43 135.53 45.29 135.53 60.09C135.53 70.98 144.89 77.72 156.87 77.72C166.67 77.72 171.02 74.24 173.63 71.73H173.74L174.07 76.19H187.9V75.86C186.92 74.12 186.59 72.16 186.59 68.46V42.22C186.59 36.89 186.15 33.51 185.28 30.79C182.34 21.54 172.55 18.38 162.86 18.38C149.25 18.38 139.02 24.15 138.26 36.99L152.09 37.21L152.07 37.23ZM235.67 76.2H250.91V0H235.67V76.2Z" fill="#80152A"/>
</g>
<defs>
<clipPath id="clip0_35_2">
<rect width="250.91" height="77.72" fill="white"/>
</clipPath>
</defs>
</svg>
