<svg width="163" height="490" viewBox="0 0 163 490" fill="none" xmlns="http://www.w3.org/2000/svg">
<path d="M52.26 405.39H59.58V456.15H52.26V405.39ZM38.73 487.69V489.12H40.16H50.83H52.26V487.69V469.67H59.59V479.44V480.87H61.02H70.26V487.69V489.12H71.69H77.02H78.45V487.69V480.87H106.77V487.69V489.12H108.2H113.54H114.97V487.69V480.87H143.3V487.69V489.12H144.73H150.07H151.5V487.69V480.87H160.74H162.17V479.44V382.23V380.8H160.74H61.03H59.6V382.23V391.85H52.27V389.26C52.27 374.73 44.38 361.31 31.68 354.24L23.16 349.5C17.22 346.2 13.54 339.93 13.54 333.14V31.16C13.54 21.43 21.46 13.52 31.18 13.52H88.19C98.5 13.52 107.01 21.35 107.96 31.52L72.75 47.5L71.91 47.88V48.8V49.54V50.97H73.34H115.1H116.22H156.32H157.75V49.54V48.8V47.88L156.91 47.5L121.52 31.44C121.03 23.09 117.47 15.31 111.43 9.44C105.16 3.35 96.9 0 88.18 0H31.17C13.98 0 0 13.98 0 31.17V333.15C0 344.85 6.35001 355.65 16.57 361.34L25.1 366.08C33 370.48 38.74 379.18 38.74 386.78V487.69H38.73Z" fill="#E74011"/>
<path d="M146.09 50.95C143.59 66 130.52 77.4599 114.76 77.4599C98.9999 77.4599 85.9399 65.99 83.4299 50.95H146.09Z" fill="white"/>
</svg>
