<svg width="134" height="634" viewBox="0 0 134 634" fill="none" xmlns="http://www.w3.org/2000/svg">
<path d="M131.86 622.29H73.36V80.49H85.53L77.8 94.48L77.11 95.73L78.36 96.42L87.61 101.53L88.86 102.22L89.55 100.97L114.4 55.99L115.09 54.74L113.84 54.05L104.59 48.94L103.34 48.25L102.64 49.5L92.94 67.06H73.35V13.43H92.6H94.03V12V1.42999V0H92.6H40.69H39.26V1.42999V12V13.43H40.69H59.94V67.06H40.35L30.65 49.5L29.95 48.25L28.7 48.94L19.45 54.05L18.2 54.74L18.89 55.99L43.74 100.97L44.43 102.22L45.68 101.53L54.93 96.42L56.18 95.73L55.49 94.48L47.76 80.49H59.93V622.29H1.42999H0V623.72V629.01V630.44H1.42999H4.85004C4.83004 630.78 4.87 631.13 5 631.46L5.13 631.79C5.56 632.92 6.65999 633.68 7.85999 633.68H15.97C17.18 633.68 18.28 632.92 18.7 631.79L18.83 631.46C18.96 631.12 19.01 630.77 18.98 630.44H27.07C27.05 630.78 27.09 631.13 27.22 631.46L27.35 631.79C27.78 632.92 28.88 633.68 30.08 633.68H38.19C39.4 633.68 40.5 632.92 40.92 631.79L41.05 631.46C41.18 631.12 41.23 630.77 41.2 630.44H59.58C59.56 630.78 59.6 631.13 59.73 631.47L59.86 631.8C60.29 632.93 61.39 633.69 62.59 633.69H70.7C71.91 633.69 73.01 632.93 73.43 631.8L73.56 631.47C73.69 631.13 73.74 630.78 73.71 630.45H92.09C92.07 630.79 92.11 631.14 92.24 631.47L92.37 631.8C92.8 632.93 93.9 633.69 95.1 633.69H103.21C104.42 633.69 105.52 632.93 105.94 631.8L106.07 631.47C106.2 631.13 106.25 630.78 106.22 630.45H114.31C114.29 630.79 114.33 631.14 114.46 631.47L114.59 631.8C115.02 632.93 116.12 633.69 117.32 633.69H125.43C126.64 633.69 127.74 632.93 128.16 631.8L128.29 631.47C128.42 631.13 128.47 630.78 128.44 630.45H131.86H133.29V629.02V623.73V622.3H131.86V622.29Z" fill="#E74011"/>
</svg>
