<svg width="209" height="648" viewBox="0 0 209 648" fill="none" xmlns="http://www.w3.org/2000/svg">
<path d="M206.83 48.72H110.76V13.53H130.2H131.63V12.1V1.42999V0H130.2H77.79H76.36V1.42999V12.1V13.53H77.79H97.23V48.72H1.42999H0V50.15V60.82V62.25H1.42999H97.23V635.89H34.7H33.27V637.32V642.66V644.09H34.7H38.17C38.14 644.43 38.19 644.79 38.32 645.13L38.45 645.47C38.88 646.6 39.99 647.36 41.19 647.36H49.37C50.58 647.36 51.68 646.6 52.12 645.47L52.25 645.13C52.38 644.78 52.43 644.43 52.4 644.09H60.59C60.56 644.43 60.61 644.79 60.74 645.13L60.87 645.47C61.3 646.6 62.41 647.36 63.62 647.36H71.8C73.01 647.36 74.11 646.6 74.55 645.47L74.68 645.13C74.81 644.78 74.86 644.43 74.83 644.09H96.88C96.85 644.43 96.9 644.79 97.03 645.13L97.16 645.46C97.59 646.59 98.7 647.36 99.91 647.36H108.09C109.31 647.36 110.41 646.6 110.84 645.46L110.97 645.13C111.1 644.78 111.15 644.43 111.12 644.09H133.17C133.14 644.43 133.19 644.79 133.32 645.13L133.45 645.46C133.88 646.59 134.98 647.36 136.2 647.36H144.38C145.59 647.36 146.69 646.6 147.13 645.47L147.26 645.13C147.39 644.78 147.44 644.43 147.41 644.09H155.6C155.57 644.43 155.62 644.79 155.75 645.13L155.88 645.47C156.31 646.6 157.42 647.36 158.63 647.36H166.81C168.02 647.36 169.12 646.6 169.55 645.47L169.68 645.13C169.81 644.78 169.86 644.43 169.83 644.09H173.29H174.72V635.9H110.76V62.24H206.83H208.26V60.81V50.14V48.71H206.83V48.72Z" fill="#E74011"/>
<path d="M29.7501 71.17C31.4601 70.66 33.17 69.55 33.77 66.04L34.5101 62.23H9.44006L10.1801 66.04C10.7801 69.54 12.4901 70.66 14.2001 71.17C10.5201 72.11 7.44007 75.36 6.51007 81L4.55005 92.37H39.42L37.46 81C36.5 75.35 33.4201 72.11 29.7501 71.17Z" fill="white"/>
<path d="M194.08 71.17C195.79 70.66 197.5 69.55 198.1 66.04L198.84 62.23H173.77L174.51 66.04C175.11 69.54 176.82 70.66 178.53 71.17C174.85 72.11 171.78 75.36 170.84 81L168.88 92.37H203.75L201.79 81C200.84 75.35 197.76 72.11 194.08 71.17Z" fill="white"/>
</svg>
