<svg width="156" height="490" viewBox="0 0 156 490" fill="none" xmlns="http://www.w3.org/2000/svg">
<path d="M91.78 0H79.8H63.62C54.21 0 47.03 7.64999 49.57 15.43C50.5 18.31 52.78 21.27 57.89 24.04H79.81H97.52C102.63 21.26 104.9 18.31 105.84 15.43C108.37 7.64999 101.19 0 91.78 0Z" fill="white"/>
<path d="M96.14 24.04H59.31H57.88V25.4701V30.8101V32.2401H59.31H70.9301V205.25H1.43005H0V206.68V212.01V213.44H1.43005H56.41L63.06 222.55L63.48 223.14H64.21H70.9301V477.67H29.22H27.79V479.1V484.43V485.86H29.22H31.6201V487.7V489.13H33.05H38.38H39.81V487.7V485.86H73.59V487.7V489.13H75.02H80.36H81.79V487.7V485.86H115.57V487.7V489.13H117H122.33H123.76V487.7V485.86H126.22H127.66V484.43V479.1V477.67H126.22H84.45V223.14H91.23H91.96L92.39 222.55L99.04 213.44H154.02H155.45V212.01V206.68V205.25H154.02H84.45V32.2401H96.14H97.57V30.8101V25.4701V24.04H96.14Z" fill="#E74011"/>
</svg>
