<svg width="199" height="111" viewBox="0 0 199 111" fill="none" xmlns="http://www.w3.org/2000/svg">
<g clip-path="url(#clip0_35_10)">
<path d="M19.15 10.13C18.28 6.84004 15.28 4.56004 11.87 4.61004C8.85 4.61004 6.08 6.41004 6.08 9.65004C6.07 11.79 7.58 13.63 9.67 14.03L10.99 14.34L9.72 18.99L8.54 18.73C3.67 17.63 1 13.73 1 9.79004C1.01 3.42004 6.4 0.0400391 11.92 0.0400391C16.87 0.0400391 21.96 2.76004 23.41 8.45004L19.16 10.12L19.15 10.13ZM12.19 34.67C7.32 34.67 1.98 32.13 0 26.39L4.43 24.55C5.43 27.89 8.52 30.17 12.01 30.12C15.43 30.12 18.63 28.06 18.63 24.55C18.63 22.58 17.32 20.69 14.38 20.04L13.33 19.78L14.6 15.13L16.31 15.52C21.35 16.66 23.72 20.39 23.72 24.29C23.72 29.38 19.69 34.68 12.19 34.68" fill="#80152A"/>
<path d="M37.52 19.6799H46.55V15.0799H37.52V19.6799ZM28.76 0.919922V33.7999H48.7V29.1999H34.02V5.51992H48.7V0.919922H28.76Z" fill="#80152A"/>
<path d="M86.22 19.07C85.43 29.28 77.76 34.72 69.96 34.72C62.16 34.72 54.31 29.29 53.52 19.07H58.78C59.48 26.26 64.61 30.11 69.87 30.11C75.13 30.11 80.26 26.25 80.96 19.07H86.22ZM80.96 15.56C80.21 8.42 75.09 4.6 69.87 4.6C64.65 4.6 59.52 8.41 58.78 15.56H53.52C54.35 5.43 62.16 0 69.96 0C77.76 0 85.39 5.44 86.22 15.56H80.96Z" fill="#80152A"/>
<path d="M118.66 21.7399C118.66 28.3599 113.49 33.7499 106.78 34.5799V29.8899C110.64 29.0799 113.4 25.6799 113.4 21.7399V0.919922H118.66V21.7399ZM103.28 34.5399C96.62 33.7099 91.49 28.3199 91.49 21.7399V0.919922H96.75V21.7399C96.75 25.6499 99.47 29.0399 103.28 29.8899V34.5399Z" fill="#80152A"/>
<path d="M133.78 33.7999H198.57V29.1999H133.78V33.7999ZM125.02 33.7999H130.28V0.919922H125.02V33.7999Z" fill="#80152A"/>
<path d="M89.34 57.6699H80.31V53.0699H89.34V57.6699ZM91.48 71.7899H71.54V38.9099H91.48V43.5099H76.79V67.1799H91.47V71.7799L91.48 71.7899Z" fill="#80152A"/>
<path d="M43.7 95.6599H34.67V91.0599H43.7V95.6599ZM45.85 109.78H25.91V76.8999H45.85V81.4999H31.17V105.17H45.85V109.77V109.78Z" fill="#80152A"/>
<path d="M19.46 95.6599H10.43V91.0599H19.46V95.6599ZM1.66998 109.78V76.8999H21.61V81.4999H6.92998V109.77H1.66998V109.78Z" fill="#80152A"/>
<path d="M69.17 86.11C68.3 82.82 65.3 80.54 61.89 80.59C58.87 80.59 56.1 82.39 56.1 85.63C56.09 87.76 57.6 89.6 59.7 90.01L61.01 90.32L59.74 94.97L58.56 94.71C53.69 93.61 51.02 89.71 51.02 85.77C51.02 79.41 56.41 76.04 61.93 76.04C66.88 76.04 71.97 78.76 73.41 84.45L69.16 86.12L69.17 86.11ZM62.2 110.65C57.33 110.65 51.99 108.11 50.01 102.37L54.44 100.53C55.44 103.87 58.53 106.15 62.02 106.1C65.44 106.1 68.64 104.04 68.64 100.53C68.64 98.56 67.32 96.67 64.39 96.02L63.34 95.76L64.61 91.11L66.32 91.5C71.36 92.64 73.73 96.37 73.73 100.27C73.73 105.35 69.7 110.66 62.2 110.66" fill="#80152A"/>
<path d="M91.09 109.78H85.83V85.0099H91.09V109.78ZM100.77 81.5099H76.14V76.9099H100.77V81.5099Z" fill="#80152A"/>
<path d="M109.76 76.8999H104.5V109.78H109.76V76.8999Z" fill="#80152A"/>
<path d="M144.61 77.95L135.32 102.15L130.28 100.44L139.57 76.24L144.61 77.95ZM131.85 108.86L126.81 110.57L113.92 77.96L118.96 76.25L131.85 108.86Z" fill="#80152A"/>
<path d="M175.07 108.86L170.03 110.57L157.14 77.96L162.18 76.25L175.07 108.86ZM161.62 101.23H152.98L149.43 110.57L144.39 108.86L153.68 84.66L158.72 86.37L154.78 96.67H161.62V101.23Z" fill="#80152A"/>
<path d="M198.75 109.78H187.57V105.18H198.75V109.78ZM184.06 109.78H178.8V76.8999H184.06V109.78Z" fill="#80152A"/>
<path d="M114.01 48.12C113.14 44.83 110.14 42.55 106.73 42.6C103.71 42.6 100.94 44.4 100.94 47.64C100.93 49.78 102.44 51.6201 104.54 52.0201L105.85 52.3301L104.58 56.98L103.4 56.7201C98.53 55.6201 95.86 51.72 95.86 47.78C95.86 41.42 101.25 38.05 106.77 38.05C111.72 38.05 116.81 40.7701 118.26 46.4701L114.01 48.14V48.12ZM107.04 72.6601C102.17 72.6601 96.83 70.12 94.85 64.38L99.28 62.5401C100.27 65.8801 103.37 68.1601 106.86 68.1101C110.28 68.1101 113.48 66.0501 113.48 62.5401C113.48 60.5701 112.17 58.68 109.23 58.03L108.18 57.7701L109.45 53.12L111.16 53.51C116.2 54.65 118.57 58.38 118.57 62.28C118.57 67.37 114.54 72.67 107.04 72.67" fill="#80152A"/>
<path d="M128.87 38.9099H123.61V71.7899H128.87V38.9099Z" fill="#80152A"/>
<path d="M167.45 57.72H151.23V53.03H167.45V57.72ZM166.31 61.88C163.86 68.94 157.72 72.66 151.23 72.66C141.67 72.66 133.92 64.91 133.92 55.34C133.92 45.78 141.5 37.98 151.06 37.98C155.65 37.98 160.05 39.81 163.29 43.07L159.83 46.53C157.6 44.05 154.44 42.62 151.11 42.58C144.45 42.58 139.23 48.32 139.23 55.34C139.23 62.36 144.62 68.05 151.28 68.05C155.8 68.05 159.92 65.24 161.49 59.81L166.31 61.87V61.88Z" fill="#80152A"/>
<path d="M198.57 59.3399H193.31V38.9099H198.57V59.3399ZM178.19 71.7899H172.93V51.3599H178.19V71.7899ZM198.75 70.0299L194.5 72.7899L172.49 40.6599L176.74 37.8999L198.75 70.0299Z" fill="#80152A"/>
<path d="M52.86 71.7899H50.01V67.1899H52.2C59.48 67.1899 62.98 61.2699 62.98 55.3499C62.98 49.4299 59.47 43.5199 52.2 43.5199H50.01V38.9199H52.86C63.16 38.9199 68.33 47.1199 68.33 55.3599C68.33 63.5599 63.16 71.7999 52.86 71.7999" fill="#80152A"/>
<path d="M10.78 43.5099V38.9099H1.75V71.7899H10.78V67.1799H7.01V43.5099H10.78Z" fill="#80152A"/>
</g>
<defs>
<clipPath id="clip0_35_10">
<rect width="198.75" height="110.65" fill="white"/>
</clipPath>
</defs>
</svg>
