<svg width="299" height="80" viewBox="0 0 299 80" fill="none" xmlns="http://www.w3.org/2000/svg">
<g clip-path="url(#clip0_35_5)">
<path d="M31.09 2.6499L0 77.9899H9.97L18.08 58.1499H56.48L64.62 77.9899H74.81L43.71 2.6499H31.09ZM22.2 48.0699L37.24 11.2499L52.34 48.0699H22.19H22.2Z" fill="#80152A"/>
<path d="M144.31 49.23H165.12C163.44 57.58 156.22 65.04 144.53 65.04C130.42 65.04 122.78 52.95 122.78 39.79C122.78 26.63 130.42 14.54 144.43 14.54C154.19 14.54 160.66 19.85 163.1 27.06H179.76C176.68 13.8 163.95 0 144.43 0C121.41 0 106.76 18.78 106.76 39.79C106.76 60.8 121.51 79.58 144.32 79.58C167.13 79.58 181.99 61.54 181.99 39.05V35.23H144.32V49.24L144.31 49.23Z" fill="#80152A"/>
<path d="M259.57 0C236.02 0 220.31 17.83 220.31 39.79C220.31 61.75 236.01 79.58 259.57 79.58C283.13 79.58 298.83 61.75 298.83 39.79C298.83 17.83 283.13 0 259.57 0ZM259.57 58.15C249.38 58.15 243.12 50.19 243.12 39.79C243.12 29.39 249.49 21.43 259.57 21.43C269.65 21.43 276.02 29.49 276.02 39.79C276.02 50.09 269.76 58.15 259.57 58.15Z" fill="#80152A"/>
</g>
<defs>
<clipPath id="clip0_35_5">
<rect width="298.83" height="79.58" fill="white"/>
</clipPath>
</defs>
</svg>
