<svg width="146" height="634" viewBox="0 0 146 634" fill="none" xmlns="http://www.w3.org/2000/svg">
<path d="M79.74 622.21V102.97H112.76L133.32 61.12L120.45 48.25H79.74V13.53H100.61V0H45.34V13.53H66.21V48.25H25.3L12.43 61.12L32.99 102.97H66.21V622.21H0V630.4H4.89001C4.87001 630.74 4.91001 631.1 5.04001 631.44L5.17001 631.77C5.60001 632.9 6.71001 633.67 7.92001 633.67H16.1C17.31 633.67 18.41 632.91 18.85 631.78L18.98 631.44C19.11 631.09 19.16 630.74 19.13 630.4H27.32C27.29 630.74 27.34 631.1 27.47 631.44L27.59 631.77C28.02 632.9 29.13 633.67 30.34 633.67H38.52C39.73 633.67 40.83 632.91 41.27 631.78L41.4 631.44C41.53 631.09 41.58 630.74 41.55 630.4H65.85C65.82 630.74 65.87 631.1 66 631.44L66.13 631.78C66.56 632.91 67.66 633.67 68.88 633.67H77.06C78.28 633.67 79.38 632.91 79.81 631.78L79.94 631.44C80.08 631.09 80.12 630.74 80.1 630.4H104.32C104.29 630.74 104.34 631.1 104.47 631.44L104.6 631.78C105.03 632.91 106.14 633.67 107.35 633.67H115.53C116.75 633.67 117.85 632.91 118.28 631.78L118.41 631.44C118.54 631.09 118.59 630.74 118.56 630.4H126.75C126.73 630.74 126.77 631.1 126.9 631.44L127.03 631.78C127.46 632.91 128.57 633.67 129.78 633.67H137.96C139.17 633.67 140.27 632.91 140.71 631.78L140.84 631.44C140.97 631.09 141.02 630.74 140.99 630.4H145.88V622.21H79.74Z" fill="#E74011"/>
<path d="M59.85 55.34C54.62 55.34 50.37 59.6 50.37 64.82C50.37 70.05 54.63 74.31 59.85 74.31C65.08 74.31 69.34 70.05 69.34 64.82C69.33 59.6 65.08 55.34 59.85 55.34Z" fill="white"/>
<path d="M86.0699 74.32C91.2999 74.32 95.5599 70.06 95.5599 64.83C95.5599 59.6 91.2999 55.35 86.0699 55.35C80.8399 55.35 76.58 59.61 76.58 64.83C76.58 70.06 80.8399 74.32 86.0699 74.32Z" fill="white"/>
<path d="M59.85 77.0499C54.62 77.0499 50.37 81.3099 50.37 86.5299C50.37 91.7599 54.63 96.0199 59.85 96.0199C65.08 96.0199 69.34 91.7599 69.34 86.5299C69.33 81.3099 65.08 77.0499 59.85 77.0499Z" fill="white"/>
<path d="M86.0699 77.0499C80.8399 77.0499 76.58 81.3099 76.58 86.5299C76.58 91.7599 80.8399 96.0199 86.0699 96.0199C91.2999 96.0199 95.5599 91.7599 95.5599 86.5299C95.5599 81.3099 91.2999 77.0499 86.0699 77.0499Z" fill="white"/>
</svg>
