<svg width="67" height="485" viewBox="0 0 67 485" fill="none" xmlns="http://www.w3.org/2000/svg">
<path d="M11.5397 121.07L32.4597 43.82L53.3898 121.07H11.5397ZM66.6298 128.8C66.8498 126.82 66.2198 124.84 64.8898 123.36C64.0998 122.47 63.0697 121.81 61.9197 121.43L38.1097 33.54C37.0597 29.66 36.5298 25.67 36.5298 21.68V1.43002V0H35.0997H29.8197H28.3898V1.43002V21.68C28.3898 25.67 27.8497 29.67 26.7997 33.54L2.88977 121.81C2.82977 122.03 2.78977 122.25 2.76977 122.47C2.39977 122.75 2.05978 123.04 1.77978 123.36C0.45978 124.84 -0.170332 126.82 0.0396681 128.8L2.49975 150.93C2.71975 152.93 2.70973 154.96 2.47973 156.96L0.0897169 177.06C-0.140283 179.05 0.479678 181.04 1.79968 182.53C1.92968 182.68 2.06971 182.82 2.20971 182.95C2.05971 183.09 1.90978 183.24 1.77978 183.39C0.45978 184.87 -0.170332 186.85 0.0396681 188.83L2.49975 210.96C2.71975 212.96 2.70973 214.99 2.47973 216.99L0.0897169 237.09C-0.140283 239.07 0.479678 241.07 1.79968 242.56C1.92968 242.71 2.06971 242.85 2.20971 242.98C2.05971 243.12 1.90978 243.27 1.77978 243.42C0.45978 244.9 -0.170332 246.88 0.0396681 248.86L2.49975 270.99C2.71975 272.99 2.70973 275.02 2.47973 277.02L0.0897169 297.12C-0.140283 299.1 0.479678 301.1 1.79968 302.59C1.92968 302.74 2.06971 302.87 2.20971 303.01C2.05971 303.15 1.90978 303.3 1.77978 303.45C0.45978 304.93 -0.170332 306.91 0.0396681 308.89L2.49975 331.02C2.71975 333.02 2.70973 335.05 2.47973 337.05L0.0897169 357.15C-0.140283 359.13 0.479678 361.13 1.79968 362.62C1.92968 362.77 2.06971 362.91 2.20971 363.04C2.05971 363.18 1.90978 363.33 1.77978 363.48C0.45978 364.96 -0.170332 366.94 0.0396681 368.92L2.49975 391.05C2.71975 393.05 2.70973 395.08 2.47973 397.08L0.0897169 417.18C-0.140283 419.17 0.479678 421.16 1.79968 422.65C1.92968 422.8 2.06971 422.94 2.20971 423.07C2.05971 423.21 1.90978 423.36 1.77978 423.51C0.45978 424.99 -0.170332 426.97 0.0396681 428.95L2.49975 451.08C2.71975 453.08 2.70973 455.11 2.47973 457.11L0.0897169 477.21C-0.140283 479.19 0.479678 481.19 1.79968 482.68C3.10968 484.15 4.97968 484.99 6.92968 484.99H59.7297C61.6797 484.99 63.5497 484.15 64.8597 482.68C66.1797 481.19 66.8097 479.2 66.5697 477.21L64.1797 457.11C63.9497 455.11 63.9397 453.08 64.1597 451.08L66.6197 428.95C66.8397 426.97 66.2098 424.99 64.8798 423.51C64.7398 423.35 64.5997 423.21 64.4497 423.07C64.5897 422.94 64.7297 422.8 64.8597 422.65C66.1797 421.16 66.8097 419.17 66.5697 417.18L64.1797 397.08C63.9497 395.08 63.9397 393.05 64.1597 391.05L66.6197 368.92C66.8397 366.94 66.2098 364.96 64.8798 363.48C64.7398 363.33 64.5997 363.18 64.4497 363.04C64.5897 362.91 64.7297 362.77 64.8597 362.62C66.1797 361.13 66.8097 359.14 66.5697 357.15L64.1797 337.05C63.9497 335.05 63.9397 333.02 64.1597 331.02L66.6197 308.89C66.8397 306.91 66.2098 304.93 64.8798 303.45C64.7398 303.3 64.5997 303.15 64.4497 303.01C64.5897 302.87 64.7297 302.74 64.8597 302.59C66.1797 301.1 66.8097 299.1 66.5697 297.12L64.1797 277.02C63.9497 275.02 63.9397 272.99 64.1597 270.99L66.6197 248.86C66.8397 246.88 66.2098 244.9 64.8798 243.42C64.7398 243.26 64.5997 243.12 64.4497 242.98C64.5897 242.85 64.7297 242.71 64.8597 242.56C66.1797 241.07 66.8097 239.07 66.5697 237.09L64.1797 216.99C63.9497 214.99 63.9397 212.96 64.1597 210.96L66.6197 188.83C66.8397 186.85 66.2098 184.87 64.8798 183.39C64.7398 183.23 64.5997 183.09 64.4497 182.95C64.5897 182.82 64.7297 182.68 64.8597 182.53C66.1797 181.04 66.8097 179.05 66.5697 177.06L64.1797 156.96C63.9497 154.96 63.9397 152.93 64.1597 150.93L66.6298 128.8Z" fill="#E74011"/>
<path d="M33.3397 400.19C29.2997 400.19 26.0198 396.91 26.0198 392.87C26.0198 388.84 29.2997 385.56 33.3397 385.56C37.3797 385.56 40.6597 388.84 40.6597 392.87C40.6597 396.91 37.3797 400.19 33.3397 400.19ZM33.3397 369.41C20.3797 369.41 9.87976 379.91 9.87976 392.88C9.87976 405.84 20.3797 416.34 33.3397 416.34C46.2997 416.34 56.7997 405.84 56.7997 392.88C56.7997 379.92 46.2997 369.41 33.3397 369.41Z" fill="white"/>
</svg>
