{"accessors":[{"bufferView":0,"componentType":5126,"count":454836,"max":[-10344.00390625,876.1271362304688,1891.284423828125],"min":[-11103.7578125,-3.0,-18.125009536743164],"type":"VEC3"},{"bufferView":1,"componentType":5126,"count":454836,"type":"VEC3"},{"bufferView":2,"componentType":5126,"count":454836,"type":"VEC2"},{"bufferView":3,"componentType":5125,"count":454836,"type":"SCALAR"},{"bufferView":4,"componentType":5126,"count":3680,"max":[-10336.998046875,713.7800903320313,-0.12526185810565948],"min":[-10356.998046875,693.7800903320313,-15.125262260437012],"type":"VEC3"},{"bufferView":5,"componentType":5126,"count":3680,"type":"VEC3"},{"bufferView":6,"componentType":5125,"count":15432,"type":"SCALAR"},{"bufferView":7,"componentType":5126,"count":773634,"max":[-9204.744140625,607.3768920898438,636.1218872070313],"min":[-10783.5478515625,-403.4021911621094,-18.125261306762695],"type":"VEC3"},{"bufferView":8,"componentType":5126,"count":773634,"type":"VEC3"},{"bufferView":9,"componentType":5126,"count":773634,"type":"VEC2"},{"bufferView":10,"componentType":5125,"count":773634,"type":"SCALAR"},{"bufferView":11,"componentType":5126,"count":6542,"max":[-10321.998046875,728.7800903320313,-12.125262260437012],"min":[-10371.998046875,678.7800903320313,-15.125262260437012],"type":"VEC3"},{"bufferView":12,"componentType":5126,"count":6542,"type":"VEC3"},{"bufferView":13,"componentType":5125,"count":32106,"type":"SCALAR"},{"bufferView":14,"componentType":5126,"count":91348,"max":[-10888.5,318.26202392578125,2040.0],"min":[-10923.5,8.5,-3.376134157180786],"type":"VEC3"},{"bufferView":15,"componentType":5126,"count":91348,"type":"VEC3"},{"bufferView":16,"componentType":5125,"count":528474,"type":"SCALAR"},{"bufferView":17,"componentType":5126,"count":19254,"max":[-9088.501953125,318.49981689453125,16.999814987182617],"min":[-9123.498046875,283.50018310546875,-17.99981689453125],"type":"VEC3"},{"bufferView":18,"componentType":5126,"count":19254,"type":"VEC3"},{"bufferView":19,"componentType":5125,"count":114204,"type":"SCALAR"},{"bufferView":20,"componentType":5126,"count":19254,"max":[-9088.501953125,-283.50018310546875,16.99981689453125],"min":[-9123.498046875,-318.49981689453125,-17.999814987182617],"type":"VEC3"},{"bufferView":21,"componentType":5126,"count":19254,"type":"VEC3"},{"bufferView":22,"componentType":5125,"count":114204,"type":"SCALAR"},{"bufferView":23,"componentType":5126,"count":19254,"max":[-10888.501953125,-283.50018310546875,16.99981689453125],"min":[-10923.498046875,-318.49981689453125,-17.999814987182617],"type":"VEC3"},{"bufferView":24,"componentType":5126,"count":19254,"type":"VEC3"},{"bufferView":25,"componentType":5125,"count":114204,"type":"SCALAR"},{"bufferView":26,"componentType":5126,"count":19254,"max":[-10888.501953125,318.49981689453125,16.999814987182617],"min":[-10923.498046875,283.50018310546875,-17.99981689453125],"type":"VEC3"},{"bufferView":27,"componentType":5126,"count":19254,"type":"VEC3"},{"bufferView":28,"componentType":5125,"count":114204,"type":"SCALAR"},{"bufferView":29,"componentType":5126,"count":10662,"max":[-9006.0,9.0,2009.0],"min":[-11006.0,-9.0,1991.0],"type":"VEC3"},{"bufferView":30,"componentType":5126,"count":10662,"type":"VEC3"},{"bufferView":31,"componentType":5125,"count":59436,"type":"SCALAR"},{"bufferView":32,"componentType":5126,"count":149762,"max":[-9021.546875,9.0,1991.0],"min":[-10990.453125,-9.0,1796.343505859375],"type":"VEC3"},{"bufferView":33,"componentType":5126,"count":149762,"type":"VEC3"},{"bufferView":34,"componentType":5125,"count":874752,"type":"SCALAR"},{"bufferView":35,"componentType":5126,"count":5680,"max":[-9528.0361328125,27.962238311767578,1982.0],"min":[-9583.9638671875,-27.962238311767578,1942.0],"type":"VEC3"},{"bufferView":36,"componentType":5126,"count":5680,"type":"VEC3"},{"bufferView":37,"componentType":5125,"count":29376,"type":"SCALAR"},{"bufferView":38,"componentType":5126,"count":5680,"max":[-10428.0361328125,27.962238311767578,1982.0],"min":[-10483.9638671875,-27.962238311767578,1942.0],"type":"VEC3"},{"bufferView":39,"componentType":5126,"count":5680,"type":"VEC3"},{"bufferView":40,"componentType":5125,"count":29376,"type":"SCALAR"},{"bufferView":41,"componentType":5126,"count":5680,"max":[-9978.0361328125,27.962238311767578,1982.0],"min":[-10033.9638671875,-27.962238311767578,1942.0],"type":"VEC3"},{"bufferView":42,"componentType":5126,"count":5680,"type":"VEC3"},{"bufferView":43,"componentType":5125,"count":29376,"type":"SCALAR"},{"bufferView":44,"componentType":5126,"count":90376,"max":[-10888.5,-8.5,2040.0],"min":[-10923.5,-318.26202392578125,-3.376134157180786],"type":"VEC3"},{"bufferView":45,"componentType":5126,"count":90376,"type":"VEC3"},{"bufferView":46,"componentType":5125,"count":525936,"type":"SCALAR"},{"bufferView":47,"componentType":5126,"count":90376,"max":[-9088.5,318.26202392578125,2040.0],"min":[-9123.5,8.5,-3.376134157180786],"type":"VEC3"},{"bufferView":48,"componentType":5126,"count":90376,"type":"VEC3"},{"bufferView":49,"componentType":5125,"count":525936,"type":"SCALAR"},{"bufferView":50,"componentType":5126,"count":90376,"max":[-9088.5,-8.5,2040.0],"min":[-9123.5,-318.26202392578125,-3.376134157180786],"type":"VEC3"},{"bufferView":51,"componentType":5126,"count":90376,"type":"VEC3"},{"bufferView":52,"componentType":5125,"count":525936,"type":"SCALAR"},{"bufferView":53,"componentType":5126,"count":19498,"max":[-10375.1572265625,80.82522583007813,1942.0],"min":[-10536.8427734375,-80.82522583007813,1805.0],"type":"VEC3"},{"bufferView":54,"componentType":5126,"count":19498,"type":"VEC3"},{"bufferView":55,"componentType":5125,"count":112608,"type":"SCALAR"},{"bufferView":56,"componentType":5126,"count":19498,"max":[-10375.1572265625,80.82522583007813,1942.0],"min":[-10536.8427734375,-80.82522583007813,1805.0],"type":"VEC3"},{"bufferView":57,"componentType":5126,"count":19498,"type":"VEC3"},{"bufferView":58,"componentType":5125,"count":112608,"type":"SCALAR"},{"bufferView":59,"componentType":5126,"count":19498,"max":[-9925.1572265625,80.82522583007813,1942.0],"min":[-10086.8427734375,-80.82522583007813,1805.0],"type":"VEC3"},{"bufferView":60,"componentType":5126,"count":19498,"type":"VEC3"},{"bufferView":61,"componentType":5125,"count":112608,"type":"SCALAR"},{"bufferView":62,"componentType":5126,"count":19498,"max":[-9925.1572265625,80.82522583007813,1942.0],"min":[-10086.8427734375,-80.82522583007813,1805.0],"type":"VEC3"},{"bufferView":63,"componentType":5126,"count":19498,"type":"VEC3"},{"bufferView":64,"componentType":5125,"count":112608,"type":"SCALAR"},{"bufferView":65,"componentType":5126,"count":19498,"max":[-9475.1572265625,80.82522583007813,1942.0],"min":[-9636.8427734375,-80.82522583007813,1805.0],"type":"VEC3"},{"bufferView":66,"componentType":5126,"count":19498,"type":"VEC3"},{"bufferView":67,"componentType":5125,"count":112608,"type":"SCALAR"},{"bufferView":68,"componentType":5126,"count":19498,"max":[-9475.1572265625,80.82522583007813,1942.0],"min":[-9636.8427734375,-80.82522583007813,1805.0],"type":"VEC3"},{"bufferView":69,"componentType":5126,"count":19498,"type":"VEC3"},{"bufferView":70,"componentType":5125,"count":112608,"type":"SCALAR"}],"asset":{"generator":"Luxion KeyShot","version":"2.0"},"bufferViews":[{"buffer":0,"byteLength":5458032,"byteOffset":0,"byteStride":12},{"buffer":0,"byteLength":5458032,"byteOffset":5458032,"byteStride":12},{"buffer":0,"byteLength":3638688,"byteOffset":10916064,"byteStride":8},{"buffer":0,"byteLength":1819344,"byteOffset":14554752},{"buffer":0,"byteLength":44160,"byteOffset":16374096,"byteStride":12},{"buffer":0,"byteLength":44160,"byteOffset":16418256,"byteStride":12},{"buffer":0,"byteLength":61728,"byteOffset":16462416},{"buffer":0,"byteLength":9283608,"byteOffset":16524144,"byteStride":12},{"buffer":0,"byteLength":9283608,"byteOffset":25807752,"byteStride":12},{"buffer":0,"byteLength":6189072,"byteOffset":35091360,"byteStride":8},{"buffer":0,"byteLength":3094536,"byteOffset":41280432},{"buffer":0,"byteLength":78504,"byteOffset":44374968,"byteStride":12},{"buffer":0,"byteLength":78504,"byteOffset":44453472,"byteStride":12},{"buffer":0,"byteLength":128424,"byteOffset":44531976},{"buffer":0,"byteLength":1096176,"byteOffset":44660400,"byteStride":12},{"buffer":0,"byteLength":1096176,"byteOffset":45756576,"byteStride":12},{"buffer":0,"byteLength":2113896,"byteOffset":46852752},{"buffer":0,"byteLength":231048,"byteOffset":48966648,"byteStride":12},{"buffer":0,"byteLength":231048,"byteOffset":49197696,"byteStride":12},{"buffer":0,"byteLength":456816,"byteOffset":49428744},{"buffer":0,"byteLength":231048,"byteOffset":49885560,"byteStride":12},{"buffer":0,"byteLength":231048,"byteOffset":50116608,"byteStride":12},{"buffer":0,"byteLength":456816,"byteOffset":50347656},{"buffer":0,"byteLength":231048,"byteOffset":50804472,"byteStride":12},{"buffer":0,"byteLength":231048,"byteOffset":51035520,"byteStride":12},{"buffer":0,"byteLength":456816,"byteOffset":51266568},{"buffer":0,"byteLength":231048,"byteOffset":51723384,"byteStride":12},{"buffer":0,"byteLength":231048,"byteOffset":51954432,"byteStride":12},{"buffer":0,"byteLength":456816,"byteOffset":52185480},{"buffer":0,"byteLength":127944,"byteOffset":52642296,"byteStride":12},{"buffer":0,"byteLength":127944,"byteOffset":52770240,"byteStride":12},{"buffer":0,"byteLength":237744,"byteOffset":52898184},{"buffer":0,"byteLength":1797144,"byteOffset":53135928,"byteStride":12},{"buffer":0,"byteLength":1797144,"byteOffset":54933072,"byteStride":12},{"buffer":0,"byteLength":3499008,"byteOffset":56730216},{"buffer":0,"byteLength":68160,"byteOffset":60229224,"byteStride":12},{"buffer":0,"byteLength":68160,"byteOffset":60297384,"byteStride":12},{"buffer":0,"byteLength":117504,"byteOffset":60365544},{"buffer":0,"byteLength":68160,"byteOffset":60483048,"byteStride":12},{"buffer":0,"byteLength":68160,"byteOffset":60551208,"byteStride":12},{"buffer":0,"byteLength":117504,"byteOffset":60619368},{"buffer":0,"byteLength":68160,"byteOffset":60736872,"byteStride":12},{"buffer":0,"byteLength":68160,"byteOffset":60805032,"byteStride":12},{"buffer":0,"byteLength":117504,"byteOffset":60873192},{"buffer":0,"byteLength":1084512,"byteOffset":60990696,"byteStride":12},{"buffer":0,"byteLength":1084512,"byteOffset":62075208,"byteStride":12},{"buffer":0,"byteLength":2103744,"byteOffset":63159720},{"buffer":0,"byteLength":1084512,"byteOffset":65263464,"byteStride":12},{"buffer":0,"byteLength":1084512,"byteOffset":66347976,"byteStride":12},{"buffer":0,"byteLength":2103744,"byteOffset":67432488},{"buffer":0,"byteLength":1084512,"byteOffset":69536232,"byteStride":12},{"buffer":0,"byteLength":1084512,"byteOffset":70620744,"byteStride":12},{"buffer":0,"byteLength":2103744,"byteOffset":71705256},{"buffer":0,"byteLength":233976,"byteOffset":73809000,"byteStride":12},{"buffer":0,"byteLength":233976,"byteOffset":74042976,"byteStride":12},{"buffer":0,"byteLength":450432,"byteOffset":74276952},{"buffer":0,"byteLength":233976,"byteOffset":74727384,"byteStride":12},{"buffer":0,"byteLength":233976,"byteOffset":74961360,"byteStride":12},{"buffer":0,"byteLength":450432,"byteOffset":75195336},{"buffer":0,"byteLength":233976,"byteOffset":75645768,"byteStride":12},{"buffer":0,"byteLength":233976,"byteOffset":75879744,"byteStride":12},{"buffer":0,"byteLength":450432,"byteOffset":76113720},{"buffer":0,"byteLength":233976,"byteOffset":76564152,"byteStride":12},{"buffer":0,"byteLength":233976,"byteOffset":76798128,"byteStride":12},{"buffer":0,"byteLength":450432,"byteOffset":77032104},{"buffer":0,"byteLength":233976,"byteOffset":77482536,"byteStride":12},{"buffer":0,"byteLength":233976,"byteOffset":77716512,"byteStride":12},{"buffer":0,"byteLength":450432,"byteOffset":77950488},{"buffer":0,"byteLength":233976,"byteOffset":78400920,"byteStride":12},{"buffer":0,"byteLength":233976,"byteOffset":78634896,"byteStride":12},{"buffer":0,"byteLength":450432,"byteOffset":78868872}],"buffers":[{"byteLength":79319304,"uri":"./MAEL+ALEXANDRE_FINAL_resources/MAEL+ALEXANDRE_FINAL.bin"}],"cameras":[{"name":"active","orthographic":{"xmag":95.96955871582031,"ymag":95.96955871582031,"zfar":3138.18115234375,"znear":116.94723510742188},"type":"orthographic"},{"name":"face","perspective":{"aspectRatio":1.0,"yfov":0.6911111421110921,"zfar":5645.14404296875,"znear":4354.85595703125},"type":"perspective"},{"name":"profil 1","perspective":{"aspectRatio":1.0,"yfov":0.6911111421110921,"zfar":6431.5166015625,"znear":3968.4833984375},"type":"perspective"},{"name":"profil 2","perspective":{"aspectRatio":1.0,"yfov":0.6911111421110921,"zfar":6369.6669921875,"znear":4030.33349609375},"type":"perspective"},{"name":"closeup 1","perspective":{"aspectRatio":1.0,"yfov":0.6911111421110921,"zfar":3394.05126953125,"znear":1005.9488525390625},"type":"perspective"},{"name":"closeup 2","perspective":{"aspectRatio":1.0,"yfov":0.6911111421110921,"zfar":4139.7646484375,"znear":2860.2353515625},"type":"perspective"},{"name":"profil 3","perspective":{"aspectRatio":1.0,"yfov":0.6911111421110921,"zfar":6048.87939453125,"znear":3951.120849609375},"type":"perspective"},{"name":"incrustation","perspective":{"aspectRatio":1.0,"yfov":1.6749847812770855,"zfar":4790.9287109375,"znear":2391.450439453125},"type":"perspective"},{"name":"incrustation 2","perspective":{"aspectRatio":1.0,"yfov":1.6749847812770855,"zfar":5499.7392578125,"znear":3100.260986328125},"type":"perspective"},{"name":"Camera 1","perspective":{"aspectRatio":1.0,"yfov":0.35618587815222,"zfar":4548.87939453125,"znear":2451.120849609375},"type":"perspective"}],"extensionsUsed":["KHR_materials_transmission"],"images":[{"uri":"./MAEL+ALEXANDRE_FINAL_resources/AGO_final_final_final_230_normal.jpeg"},{"uri":"./MAEL+ALEXANDRE_FINAL_resources/AGO_final_final_final_230_color.jpeg"},{"uri":"./MAEL+ALEXANDRE_FINAL_resources/AGO_final_final_final_230_roughness_metalness_transmission.jpeg"},{"uri":"./MAEL+ALEXANDRE_FINAL_resources/AGO_final_final_final_555_normal.jpeg"},{"uri":"./MAEL+ALEXANDRE_FINAL_resources/AGO_final_final_final_555_color.jpeg"},{"uri":"./MAEL+ALEXANDRE_FINAL_resources/AGO_final_final_final_555_roughness_metalness_transmission.jpeg"}],"materials":[{"doubleSided":true,"name":"HD Black Packing Foam #1","normalTexture":{"index":0,"scale":1},"pbrMetallicRoughness":{"baseColorTexture":{"index":1},"metallicRoughnessTexture":{"index":2}}},{"doubleSided":true,"name":"Hard Shiny Plastic Black #1","pbrMetallicRoughness":{"baseColorFactor":[0.006946626119315624,0.006946626119315624,0.006946626119315624,1.0],"metallicFactor":0.0,"roughnessFactor":0.3162277638912201}},{"doubleSided":true,"name":"Dark Grey PET 1 #1","normalTexture":{"index":3,"scale":1},"pbrMetallicRoughness":{"baseColorTexture":{"index":4},"metallicRoughnessTexture":{"index":5}}},{"doubleSided":true,"name":"Paint Matte Black #1","pbrMetallicRoughness":{"baseColorFactor":[0.0011126603931188583,0.0011126603931188583,0.0011126603931188583,1.0],"metallicFactor":0.0,"roughnessFactor":0.4472135901451111}},{"alphaMode":"MASK","doubleSided":true,"extensions":{"KHR_materials_transmission":{"transmissionFactor":1.0}},"name":"Clear Rough Plastic White #2","pbrMetallicRoughness":{"baseColorFactor":[1.0,1.0,1.0,1.0],"metallicFactor":0.0,"roughnessFactor":0.4472135901451111}},{"alphaMode":"MASK","doubleSided":true,"extensions":{"KHR_materials_transmission":{"transmissionFactor":1.0}},"name":"Clear Rough Plastic White #1","pbrMetallicRoughness":{"baseColorFactor":[1.0,1.0,1.0,1.0],"metallicFactor":0.0,"roughnessFactor":0.4472135901451111}}],"meshes":[{"name":"AGO final final final","primitives":[{"attributes":{"NORMAL":1,"POSITION":0,"TEXCOORD_0":2},"indices":3,"material":0,"mode":4}]},{"name":"AGO final final final","primitives":[{"attributes":{"NORMAL":5,"POSITION":4},"indices":6,"material":1,"mode":4}]},{"name":"AGO final final final","primitives":[{"attributes":{"NORMAL":8,"POSITION":7,"TEXCOORD_0":9},"indices":10,"material":2,"mode":4}]},{"name":"AGO final final final","primitives":[{"attributes":{"NORMAL":12,"POSITION":11},"indices":13,"material":1,"mode":4}]},{"name":"AGO final final final","primitives":[{"attributes":{"NORMAL":15,"POSITION":14},"indices":16,"material":3,"mode":4}]},{"name":"AGO final final final","primitives":[{"attributes":{"NORMAL":18,"POSITION":17},"indices":19,"material":1,"mode":4}]},{"name":"AGO final final final","primitives":[{"attributes":{"NORMAL":21,"POSITION":20},"indices":22,"material":1,"mode":4}]},{"name":"AGO final final final","primitives":[{"attributes":{"NORMAL":24,"POSITION":23},"indices":25,"material":1,"mode":4}]},{"name":"AGO final final final","primitives":[{"attributes":{"NORMAL":27,"POSITION":26},"indices":28,"material":1,"mode":4}]},{"name":"AGO final final final","primitives":[{"attributes":{"NORMAL":30,"POSITION":29},"indices":31,"material":3,"mode":4}]},{"name":"AGO final final final","primitives":[{"attributes":{"NORMAL":33,"POSITION":32},"indices":34,"material":3,"mode":4}]},{"name":"AGO final final final","primitives":[{"attributes":{"NORMAL":36,"POSITION":35},"indices":37,"material":3,"mode":4}]},{"name":"AGO final final final","primitives":[{"attributes":{"NORMAL":39,"POSITION":38},"indices":40,"material":3,"mode":4}]},{"name":"AGO final final final","primitives":[{"attributes":{"NORMAL":42,"POSITION":41},"indices":43,"material":3,"mode":4}]},{"name":"AGO final final final","primitives":[{"attributes":{"NORMAL":45,"POSITION":44},"indices":46,"material":3,"mode":4}]},{"name":"AGO final final final","primitives":[{"attributes":{"NORMAL":48,"POSITION":47},"indices":49,"material":3,"mode":4}]},{"name":"AGO final final final","primitives":[{"attributes":{"NORMAL":51,"POSITION":50},"indices":52,"material":3,"mode":4}]},{"name":"AGO final final final","primitives":[{"attributes":{"NORMAL":54,"POSITION":53},"indices":55,"material":4,"mode":4}]},{"name":"AGO final final final #1","primitives":[{"attributes":{"NORMAL":57,"POSITION":56},"indices":58,"material":5,"mode":4}]},{"name":"AGO final final final","primitives":[{"attributes":{"NORMAL":60,"POSITION":59},"indices":61,"material":4,"mode":4}]},{"name":"AGO final final final #2","primitives":[{"attributes":{"NORMAL":63,"POSITION":62},"indices":64,"material":5,"mode":4}]},{"name":"AGO final final final","primitives":[{"attributes":{"NORMAL":66,"POSITION":65},"indices":67,"material":4,"mode":4}]},{"name":"AGO final final final #3","primitives":[{"attributes":{"NORMAL":69,"POSITION":68},"indices":70,"material":5,"mode":4}]},{"name":"AGO final final final","primitives":[{"attributes":{"NORMAL":54,"POSITION":53},"indices":55,"material":4,"mode":4}]}],"nodes":[{"camera":0,"matrix":[0.0005909046265822831,-1.7375002246570404e-05,-0.000806554340544615,0.0,-0.0002771272018967053,0.0009345579457737823,-0.00022316375117192603,0.0,0.0007576491832733155,0.0003553866147994995,0.0005474194884300233,0.0,1.157155517578125,1.4770599365234376,1.08076904296875,1.0],"name":"active"},{"camera":1,"matrix":[0.0009999999973700025,-1.9470451020537125e-10,-1.0905400885608614e-11,0.0,1.9464474070186343e-10,0.0009999862883017404,-5.2359639529292045e-06,0.0,1.192471721367383e-11,5.235963966697455e-06,0.0009999862909317017,0.0,0.04950971603393555,0.9808427124023438,5.0003208007812505,1.0],"name":"face"},{"camera":2,"matrix":[0.0005735763837669989,-1.947100977672811e-10,0.0008191520797150832,0.0,4.28916016353216e-06,0.0009999862913087358,-3.003064180003453e-06,0.0,-0.0008191408514976502,5.2359611727297304e-06,0.0005735685229301453,0.0,-4.234201171875,1.06489453125,3.018654541015625,1.0],"name":"profil 1"},{"camera":3,"matrix":[0.0007660445074489965,-1.9477231941178454e-10,-0.0006427875041582904,0.0,-3.3654612118683534e-06,0.000999986256484124,-4.011104493083038e-06,0.0,0.0006427786946296692,5.2359611727297304e-06,0.0007660340070724487,0.0,3.3762023925781253,1.06489453125,3.95499609375,1.0],"name":"profil 2"},{"camera":4,"matrix":[0.0007071070671081543,-1.9470717754202497e-10,0.0007071064710617066,0.0,1.3767882125664795e-10,0.000999999965771636,1.3767870520212642e-10,0.0,-0.0007071064710617066,0.0,0.0007071070671081543,0.0,-1.85853271484375,1.7723992919921876,1.2527374267578126,1.0],"name":"closeup 1"},{"camera":5,"matrix":[0.001,-1.9470718370939725e-10,-1.1924880638503055e-11,0.0,1.9470718370939725e-10,0.0010000000000000002,-2.3218599251936487e-18,0.0,1.1924880638503055e-11,0.0,0.001,0.0,0.046295299530029296,1.875797607421875,3.5,1.0],"name":"closeup 2"},{"camera":6,"matrix":[3.2584136988589306e-10,-1.9470718370941788e-10,0.001,0.0,6.344365546650098e-17,0.001000000000000106,1.9470718370941788e-10,0.0,-0.001,0.0,3.2584136988589306e-10,0.0,-5.0,1.0006444702148438,0.23615316772460937,1.0],"name":"profil 3"},{"camera":7,"matrix":[0.0008376481989175808,-1.737499158382283e-05,-0.0005459335820964278,0.0,6.588410630898804e-05,0.00099541021941489,6.940855086569924e-05,0.0,0.0005422219634056092,-9.410830587148667e-05,0.0008349484205245972,0.0,2.428813720703125,0.6065576782226563,2.6761796875,1.0],"name":"incrustation"},{"camera":8,"matrix":[0.0008376482587657936,-1.7374995510822e-05,-0.0005459335825873026,0.0,6.588411473717779e-05,0.000995410319578951,6.940856060957383e-05,0.0,0.0005422219634056092,-9.410831332206727e-05,0.000834948480129242,0.0,2.806255126953125,0.8475501098632813,3.3071562500000002,1.0],"name":"incrustation 2"},{"camera":9,"matrix":[3.2584136988589306e-10,-1.9470718370941788e-10,0.001,0.0,6.344365546650098e-17,0.001000000000000106,1.9470718370941788e-10,0.0,-0.001,0.0,3.2584136988589306e-10,0.0,-3.5,1.80435693359375,0.23656526184082033,1.0],"name":"Camera 1"},{"mesh":0,"name":"AGO final final final"},{"mesh":1,"name":"AGO final final final"},{"matrix":[1.0,0.0,0.0,0.0,0.0,1.0,0.0,0.0,0.0,0.0,1.0,0.0,-13.483087050211907,0.0,0.0,1.0],"mesh":2,"name":"AGO final final final"},{"mesh":3,"name":"AGO final final final"},{"mesh":4,"name":"AGO final final final"},{"mesh":5,"name":"AGO final final final"},{"mesh":6,"name":"AGO final final final"},{"mesh":7,"name":"AGO final final final"},{"mesh":8,"name":"AGO final final final"},{"mesh":9,"name":"AGO final final final"},{"mesh":10,"name":"AGO final final final"},{"mesh":11,"name":"AGO final final final"},{"mesh":12,"name":"AGO final final final"},{"mesh":13,"name":"AGO final final final"},{"mesh":14,"name":"AGO final final final"},{"mesh":15,"name":"AGO final final final"},{"mesh":16,"name":"AGO final final final"},{"matrix":[0.8000000054098972,0.0,0.0,0.0,0.0,0.800000005409897,4.440891797659361e-17,0.0,0.0,3.5527134910670235e-17,0.8000000054098989,0.0,-2091.1998413151123,1.1346479220645988e-13,369.6999716076265,0.9999999999999973],"mesh":17,"name":"AGO final final final"},{"mesh":18,"name":"AGO final final final #1"},{"matrix":[0.80000001192093,0.0,0.0,0.0,0.0,0.800000011920929,4.4408918338028406e-17,0.0,0.0,3.552713519981821e-17,0.8000000119209306,0.0,-2001.1998807191871,-2.8643754022094004e-14,369.69997766614,0.9999999999999999],"mesh":19,"name":"AGO final final final"},{"mesh":20,"name":"AGO final final final #2"},{"matrix":[0.8000000119209283,0.0,0.0,0.0,0.0,0.8000000119209277,4.4408918338028375e-17,0.0,0.0,3.552713519981817e-17,0.8000000119209293,0.0,-1911.199886083608,-2.864375402209405e-14,369.69997766614017,0.9999999999999993],"mesh":21,"name":"AGO final final final"},{"mesh":22,"name":"AGO final final final #3"},{"mesh":23,"name":"AGO final final final #1 #1"},{"children":[10,11,12,13,14,15,16,17,18,19,20,21,22,23,24,25,26,27,28,29,30,31,32,33],"matrix":[1.0,0.0,0.0,0.0,0.0,6.123233995736766e-17,-1.0,0.0,0.0,1.0,6.123233995736766e-17,0.0,10054.87890625,18.125261306762695,236.3624725341797,1.0],"name":"AGO final final final #1"},{"children":[34],"name":"Default"},{"children":[35],"matrix":[0.001,0.0,0.0,0.0,0.0,0.001,0.0,0.0,0.0,0.0,0.001,0.0,0.0,0.0,0.0,1.0],"name":"lux_root"}],"samplers":[{"magFilter":9729,"minFilter":9987,"wrapS":10497,"wrapT":10497},{"magFilter":9729,"minFilter":9987,"wrapS":10497,"wrapT":10497},{"magFilter":9729,"minFilter":9987,"wrapS":10497,"wrapT":10497},{"magFilter":9729,"minFilter":9987,"wrapS":10497,"wrapT":10497},{"magFilter":9729,"minFilter":9987,"wrapS":10497,"wrapT":10497},{"magFilter":9729,"minFilter":9987,"wrapS":10497,"wrapT":10497}],"scenes":[{"nodes":[0,1,2,3,4,5,6,7,8,9,36]}],"textures":[{"sampler":0,"source":0},{"sampler":1,"source":1},{"sampler":2,"source":2},{"sampler":3,"source":3},{"sampler":4,"source":4},{"sampler":5,"source":5}]}  